%TF.GenerationSoftware,KiCad,Pcbnew,7.0.2-0*%
%TF.CreationDate,2024-11-09T14:05:59-05:00*%
%TF.ProjectId,PCB,5043422e-6b69-4636-9164-5f7063625858,rev?*%
%TF.SameCoordinates,Original*%
%TF.FileFunction,Paste,Bot*%
%TF.FilePolarity,Positive*%
%FSLAX46Y46*%
G04 Gerber Fmt 4.6, Leading zero omitted, Abs format (unit mm)*
G04 Created by KiCad (PCBNEW 7.0.2-0) date 2024-11-09 14:05:59*
%MOMM*%
%LPD*%
G01*
G04 APERTURE LIST*
G04 Aperture macros list*
%AMRoundRect*
0 Rectangle with rounded corners*
0 $1 Rounding radius*
0 $2 $3 $4 $5 $6 $7 $8 $9 X,Y pos of 4 corners*
0 Add a 4 corners polygon primitive as box body*
4,1,4,$2,$3,$4,$5,$6,$7,$8,$9,$2,$3,0*
0 Add four circle primitives for the rounded corners*
1,1,$1+$1,$2,$3*
1,1,$1+$1,$4,$5*
1,1,$1+$1,$6,$7*
1,1,$1+$1,$8,$9*
0 Add four rect primitives between the rounded corners*
20,1,$1+$1,$2,$3,$4,$5,0*
20,1,$1+$1,$4,$5,$6,$7,0*
20,1,$1+$1,$6,$7,$8,$9,0*
20,1,$1+$1,$8,$9,$2,$3,0*%
G04 Aperture macros list end*
%ADD10R,2.600000X2.600000*%
%ADD11RoundRect,0.225000X0.225000X0.375000X-0.225000X0.375000X-0.225000X-0.375000X0.225000X-0.375000X0*%
%ADD12RoundRect,0.225000X0.375000X-0.225000X0.375000X0.225000X-0.375000X0.225000X-0.375000X-0.225000X0*%
%ADD13RoundRect,0.250000X-0.450000X-0.425000X0.450000X-0.425000X0.450000X0.425000X-0.450000X0.425000X0*%
%ADD14RoundRect,0.250000X-0.250000X-0.475000X0.250000X-0.475000X0.250000X0.475000X-0.250000X0.475000X0*%
%ADD15R,0.920000X0.610000*%
%ADD16R,0.610000X0.920000*%
%ADD17RoundRect,0.250000X-0.262500X-0.450000X0.262500X-0.450000X0.262500X0.450000X-0.262500X0.450000X0*%
%ADD18RoundRect,0.250000X0.250000X0.475000X-0.250000X0.475000X-0.250000X-0.475000X0.250000X-0.475000X0*%
%ADD19R,3.000000X2.000000*%
%ADD20C,1.500000*%
%ADD21R,1.300000X2.300000*%
%ADD22RoundRect,0.250000X0.450000X0.425000X-0.450000X0.425000X-0.450000X-0.425000X0.450000X-0.425000X0*%
%ADD23RoundRect,0.250000X0.262500X0.450000X-0.262500X0.450000X-0.262500X-0.450000X0.262500X-0.450000X0*%
G04 APERTURE END LIST*
D10*
%TO.C,MX12*%
X57275000Y-82444000D03*
X45725000Y-80244000D03*
%TD*%
%TO.C,MX6*%
X39275000Y-73950000D03*
X27725000Y-71750000D03*
%TD*%
%TO.C,MX15*%
X111275000Y-73950000D03*
X99725000Y-71750000D03*
%TD*%
%TO.C,MX31*%
X183275000Y-82450000D03*
X171725000Y-80250000D03*
%TD*%
%TO.C,MX27*%
X165275000Y-56950000D03*
X153725000Y-54750000D03*
%TD*%
%TO.C,MX5*%
X111275000Y-39950000D03*
X99725000Y-37750000D03*
%TD*%
%TO.C,MX11*%
X39275000Y-90950000D03*
X27725000Y-88750000D03*
%TD*%
%TO.C,MX29*%
X129275000Y-56950000D03*
X117725000Y-54750000D03*
%TD*%
%TO.C,MX16*%
X75275000Y-90950000D03*
X63725000Y-88750000D03*
%TD*%
%TO.C,MX2*%
X57275000Y-48450000D03*
X45725000Y-46250000D03*
%TD*%
%TO.C,MX10*%
X111275000Y-56950000D03*
X99725000Y-54750000D03*
%TD*%
%TO.C,MX30*%
X201275000Y-90950000D03*
X189725000Y-88750000D03*
%TD*%
%TO.C,MX34*%
X129275000Y-73950000D03*
X117725000Y-71750000D03*
%TD*%
%TO.C,MX3*%
X75275000Y-39950000D03*
X63725000Y-37750000D03*
%TD*%
%TO.C,MX21*%
X183275000Y-48450000D03*
X171725000Y-46250000D03*
%TD*%
%TO.C,MX20*%
X201275000Y-56950000D03*
X189725000Y-54750000D03*
%TD*%
%TO.C,MX7*%
X57275000Y-65450000D03*
X45725000Y-63250000D03*
%TD*%
%TO.C,MX32*%
X165275000Y-73950000D03*
X153725000Y-71750000D03*
%TD*%
%TO.C,MX13*%
X75275000Y-73950000D03*
X63725000Y-71750000D03*
%TD*%
%TO.C,MX35*%
X165275000Y-90950000D03*
X153725000Y-88750000D03*
%TD*%
%TO.C,MX33*%
X147275000Y-73950000D03*
X135725000Y-71750000D03*
%TD*%
%TO.C,MX25*%
X201275000Y-73950000D03*
X189725000Y-71750000D03*
%TD*%
%TO.C,MX14*%
X93275000Y-73950000D03*
X81725000Y-71750000D03*
%TD*%
%TO.C,MX1*%
X39275000Y-56950000D03*
X27725000Y-54750000D03*
%TD*%
%TO.C,MX8*%
X75275000Y-56950000D03*
X63725000Y-54750000D03*
%TD*%
%TO.C,MX37*%
X129275000Y-90950000D03*
X117725000Y-88750000D03*
%TD*%
%TO.C,MX28*%
X147275000Y-56950000D03*
X135725000Y-54750000D03*
%TD*%
%TO.C,MX9*%
X93275000Y-56950000D03*
X81725000Y-54750000D03*
%TD*%
%TO.C,MX23*%
X147275000Y-39950000D03*
X135725000Y-37750000D03*
%TD*%
%TO.C,MX36*%
X147275000Y-90950000D03*
X135725000Y-88750000D03*
%TD*%
%TO.C,MX17*%
X93275000Y-90950000D03*
X81725000Y-88750000D03*
%TD*%
%TO.C,MX18*%
X111275000Y-90950000D03*
X99725000Y-88750000D03*
%TD*%
%TO.C,MX4*%
X93275000Y-39950000D03*
X81725000Y-37750000D03*
%TD*%
%TO.C,MX24*%
X129275000Y-39950000D03*
X117725000Y-37750000D03*
%TD*%
%TO.C,MX22*%
X165275000Y-39950000D03*
X153725000Y-37750000D03*
%TD*%
%TO.C,MX26*%
X183275000Y-65450000D03*
X171725000Y-63250000D03*
%TD*%
D11*
%TO.C,D36*%
X141150000Y-93500000D03*
X137850000Y-93500000D03*
%TD*%
%TO.C,D8*%
X69150000Y-59500000D03*
X65850000Y-59500000D03*
%TD*%
%TO.C,D25*%
X195150000Y-76500000D03*
X191850000Y-76500000D03*
%TD*%
%TO.C,D27*%
X159150000Y-59500000D03*
X155850000Y-59500000D03*
%TD*%
D12*
%TO.C,D12*%
X47250000Y-88775000D03*
X47250000Y-85475000D03*
%TD*%
D11*
%TO.C,D1*%
X33150000Y-59500000D03*
X29850000Y-59500000D03*
%TD*%
D13*
%TO.C,C6*%
X178800000Y-31050000D03*
X181500000Y-31050000D03*
%TD*%
D11*
%TO.C,D6*%
X33150000Y-76500000D03*
X29850000Y-76500000D03*
%TD*%
%TO.C,D39*%
X82750000Y-26950000D03*
X79450000Y-26950000D03*
%TD*%
%TO.C,D9*%
X87150000Y-59500000D03*
X83850000Y-59500000D03*
%TD*%
%TO.C,D24*%
X123150000Y-42500000D03*
X119850000Y-42500000D03*
%TD*%
D12*
%TO.C,D38*%
X173250000Y-88775000D03*
X173250000Y-85475000D03*
%TD*%
D11*
%TO.C,D35*%
X159150000Y-93500000D03*
X155850000Y-93500000D03*
%TD*%
%TO.C,D20*%
X195150000Y-59500000D03*
X191850000Y-59500000D03*
%TD*%
D14*
%TO.C,C5*%
X179150000Y-28950000D03*
X181050000Y-28950000D03*
%TD*%
D15*
%TO.C,U1*%
X49155000Y-32988000D03*
X49155000Y-32188000D03*
X49155000Y-31388000D03*
X49155000Y-30588000D03*
X49155000Y-29788000D03*
X49155000Y-28988000D03*
D16*
X50165000Y-28978000D03*
D15*
X51175000Y-28988000D03*
X51175000Y-29788000D03*
X51175000Y-30588000D03*
X51175000Y-31388000D03*
X51175000Y-32188000D03*
X51175000Y-32988000D03*
D16*
X50165000Y-32998000D03*
%TD*%
D11*
%TO.C,D28*%
X141150000Y-59500000D03*
X137850000Y-59500000D03*
%TD*%
D12*
%TO.C,D19*%
X60750000Y-88775000D03*
X60750000Y-85475000D03*
%TD*%
D17*
%TO.C,R3*%
X205587500Y-47100000D03*
X207412500Y-47100000D03*
%TD*%
D11*
%TO.C,D13*%
X69150000Y-76500000D03*
X65850000Y-76500000D03*
%TD*%
%TO.C,D23*%
X141150000Y-42500000D03*
X137850000Y-42500000D03*
%TD*%
D18*
%TO.C,C2*%
X55306000Y-28829000D03*
X53406000Y-28829000D03*
%TD*%
D11*
%TO.C,D3*%
X69150000Y-42500000D03*
X65850000Y-42500000D03*
%TD*%
D19*
%TO.C,U2*%
X44500000Y-27675000D03*
X44500000Y-30215000D03*
X44500000Y-32755000D03*
X44500000Y-35295000D03*
X44500000Y-37835000D03*
X44500000Y-40375000D03*
X44500000Y-42915000D03*
X27500000Y-42915000D03*
X27500000Y-40375000D03*
X27500000Y-37835000D03*
X27500000Y-35295000D03*
X27500000Y-32755000D03*
X27500000Y-30215000D03*
X27500000Y-27675000D03*
D20*
X37270000Y-26905000D03*
X34730000Y-26905000D03*
X37270000Y-29445000D03*
X34730000Y-29445000D03*
D21*
X32200000Y-44545000D03*
X30300000Y-44545000D03*
%TD*%
D11*
%TO.C,D17*%
X87150000Y-93500000D03*
X83850000Y-93500000D03*
%TD*%
D22*
%TO.C,C3*%
X55706000Y-30861000D03*
X53006000Y-30861000D03*
%TD*%
D11*
%TO.C,D15*%
X105150000Y-76500000D03*
X101850000Y-76500000D03*
%TD*%
D23*
%TO.C,R2*%
X48918500Y-37846000D03*
X47093500Y-37846000D03*
%TD*%
D11*
%TO.C,D34*%
X123150000Y-76500000D03*
X119850000Y-76500000D03*
%TD*%
D19*
%TO.C,U4*%
X206500000Y-27675000D03*
X206500000Y-30215000D03*
X206500000Y-32755000D03*
X206500000Y-35295000D03*
X206500000Y-37835000D03*
X206500000Y-40375000D03*
X206500000Y-42915000D03*
X189500000Y-42915000D03*
X189500000Y-40375000D03*
X189500000Y-37835000D03*
X189500000Y-35295000D03*
X189500000Y-32755000D03*
X189500000Y-30215000D03*
X189500000Y-27675000D03*
D20*
X199270000Y-26905000D03*
X196730000Y-26905000D03*
X199270000Y-29445000D03*
X196730000Y-29445000D03*
D21*
X194200000Y-44545000D03*
X192300000Y-44545000D03*
%TD*%
D11*
%TO.C,D32*%
X159150000Y-76500000D03*
X155850000Y-76500000D03*
%TD*%
%TO.C,D18*%
X105150000Y-93500000D03*
X101850000Y-93500000D03*
%TD*%
%TO.C,D4*%
X87150000Y-42500000D03*
X83850000Y-42500000D03*
%TD*%
%TO.C,D21*%
X177150000Y-51000000D03*
X173850000Y-51000000D03*
%TD*%
%TO.C,D29*%
X123150000Y-59500000D03*
X119850000Y-59500000D03*
%TD*%
%TO.C,D16*%
X69150000Y-93500000D03*
X65850000Y-93500000D03*
%TD*%
%TO.C,D33*%
X141150000Y-76500000D03*
X137850000Y-76500000D03*
%TD*%
D15*
%TO.C,U3*%
X185310000Y-28988000D03*
X185310000Y-29788000D03*
X185310000Y-30588000D03*
X185310000Y-31388000D03*
X185310000Y-32188000D03*
X185310000Y-32988000D03*
D16*
X184300000Y-32998000D03*
D15*
X183290000Y-32988000D03*
X183290000Y-32188000D03*
X183290000Y-31388000D03*
X183290000Y-30588000D03*
X183290000Y-29788000D03*
X183290000Y-28988000D03*
D16*
X184300000Y-28978000D03*
%TD*%
D11*
%TO.C,D30*%
X195150000Y-93500000D03*
X191850000Y-93500000D03*
%TD*%
%TO.C,D7*%
X51150000Y-68000000D03*
X47850000Y-68000000D03*
%TD*%
D23*
%TO.C,R1*%
X48918500Y-40386000D03*
X47093500Y-40386000D03*
%TD*%
D11*
%TO.C,D37*%
X123150000Y-93500000D03*
X119850000Y-93500000D03*
%TD*%
D17*
%TO.C,R4*%
X205587500Y-49000000D03*
X207412500Y-49000000D03*
%TD*%
D11*
%TO.C,D11*%
X33150000Y-93500000D03*
X29850000Y-93500000D03*
%TD*%
D14*
%TO.C,C4*%
X179150000Y-33100000D03*
X181050000Y-33100000D03*
%TD*%
D11*
%TO.C,D2*%
X51150000Y-51000000D03*
X47850000Y-51000000D03*
%TD*%
%TO.C,D26*%
X177150000Y-68000000D03*
X173850000Y-68000000D03*
%TD*%
%TO.C,D22*%
X159150000Y-42500000D03*
X155850000Y-42500000D03*
%TD*%
%TO.C,D5*%
X105150000Y-42500000D03*
X101850000Y-42500000D03*
%TD*%
%TO.C,D10*%
X105150000Y-59500000D03*
X101850000Y-59500000D03*
%TD*%
%TO.C,D14*%
X87150000Y-76500000D03*
X83850000Y-76500000D03*
%TD*%
D12*
%TO.C,D31*%
X186750000Y-88775000D03*
X186750000Y-85475000D03*
%TD*%
D18*
%TO.C,C1*%
X55306000Y-32893000D03*
X53406000Y-32893000D03*
%TD*%
M02*
