%TF.GenerationSoftware,KiCad,Pcbnew,7.0.2-0*%
%TF.CreationDate,2024-11-09T14:05:59-05:00*%
%TF.ProjectId,PCB,5043422e-6b69-4636-9164-5f7063625858,rev?*%
%TF.SameCoordinates,Original*%
%TF.FileFunction,Soldermask,Bot*%
%TF.FilePolarity,Negative*%
%FSLAX46Y46*%
G04 Gerber Fmt 4.6, Leading zero omitted, Abs format (unit mm)*
G04 Created by KiCad (PCBNEW 7.0.2-0) date 2024-11-09 14:05:59*
%MOMM*%
%LPD*%
G01*
G04 APERTURE LIST*
G04 Aperture macros list*
%AMRoundRect*
0 Rectangle with rounded corners*
0 $1 Rounding radius*
0 $2 $3 $4 $5 $6 $7 $8 $9 X,Y pos of 4 corners*
0 Add a 4 corners polygon primitive as box body*
4,1,4,$2,$3,$4,$5,$6,$7,$8,$9,$2,$3,0*
0 Add four circle primitives for the rounded corners*
1,1,$1+$1,$2,$3*
1,1,$1+$1,$4,$5*
1,1,$1+$1,$6,$7*
1,1,$1+$1,$8,$9*
0 Add four rect primitives between the rounded corners*
20,1,$1+$1,$2,$3,$4,$5,0*
20,1,$1+$1,$4,$5,$6,$7,0*
20,1,$1+$1,$6,$7,$8,$9,0*
20,1,$1+$1,$8,$9,$2,$3,0*%
G04 Aperture macros list end*
%ADD10C,0.010000*%
%ADD11C,1.701800*%
%ADD12C,3.000000*%
%ADD13C,3.429000*%
%ADD14C,0.990600*%
%ADD15R,2.600000X2.600000*%
%ADD16C,2.000000*%
%ADD17R,1.700000X1.700000*%
%ADD18O,1.700000X1.700000*%
%ADD19RoundRect,0.225000X0.225000X0.375000X-0.225000X0.375000X-0.225000X-0.375000X0.225000X-0.375000X0*%
%ADD20RoundRect,0.250000X0.625000X-0.350000X0.625000X0.350000X-0.625000X0.350000X-0.625000X-0.350000X0*%
%ADD21O,1.750000X1.200000*%
%ADD22RoundRect,0.225000X0.375000X-0.225000X0.375000X0.225000X-0.375000X0.225000X-0.375000X-0.225000X0*%
%ADD23RoundRect,0.250000X-0.450000X-0.425000X0.450000X-0.425000X0.450000X0.425000X-0.450000X0.425000X0*%
%ADD24RoundRect,0.250000X-0.250000X-0.475000X0.250000X-0.475000X0.250000X0.475000X-0.250000X0.475000X0*%
%ADD25RoundRect,0.250000X-0.262500X-0.450000X0.262500X-0.450000X0.262500X0.450000X-0.262500X0.450000X0*%
%ADD26RoundRect,0.250000X0.250000X0.475000X-0.250000X0.475000X-0.250000X-0.475000X0.250000X-0.475000X0*%
%ADD27R,3.000000X2.000000*%
%ADD28C,1.500000*%
%ADD29R,1.300000X2.300000*%
%ADD30R,2.300000X1.300000*%
%ADD31RoundRect,0.250000X0.450000X0.425000X-0.450000X0.425000X-0.450000X-0.425000X0.450000X-0.425000X0*%
%ADD32RoundRect,0.250000X0.262500X0.450000X-0.262500X0.450000X-0.262500X-0.450000X0.262500X-0.450000X0*%
%ADD33RoundRect,0.250000X-0.625000X0.350000X-0.625000X-0.350000X0.625000X-0.350000X0.625000X0.350000X0*%
G04 APERTURE END LIST*
%TO.C,U1*%
D10*
X49665000Y-29343000D02*
X48645000Y-29343000D01*
X48645000Y-28633000D01*
X49665000Y-28633000D01*
X49665000Y-29343000D01*
G36*
X49665000Y-29343000D02*
G01*
X48645000Y-29343000D01*
X48645000Y-28633000D01*
X49665000Y-28633000D01*
X49665000Y-29343000D01*
G37*
X49665000Y-30143000D02*
X48645000Y-30143000D01*
X48645000Y-29433000D01*
X49665000Y-29433000D01*
X49665000Y-30143000D01*
G36*
X49665000Y-30143000D02*
G01*
X48645000Y-30143000D01*
X48645000Y-29433000D01*
X49665000Y-29433000D01*
X49665000Y-30143000D01*
G37*
X49665000Y-30943000D02*
X48645000Y-30943000D01*
X48645000Y-30233000D01*
X49665000Y-30233000D01*
X49665000Y-30943000D01*
G36*
X49665000Y-30943000D02*
G01*
X48645000Y-30943000D01*
X48645000Y-30233000D01*
X49665000Y-30233000D01*
X49665000Y-30943000D01*
G37*
X49665000Y-31743000D02*
X48645000Y-31743000D01*
X48645000Y-31033000D01*
X49665000Y-31033000D01*
X49665000Y-31743000D01*
G36*
X49665000Y-31743000D02*
G01*
X48645000Y-31743000D01*
X48645000Y-31033000D01*
X49665000Y-31033000D01*
X49665000Y-31743000D01*
G37*
X49665000Y-32543000D02*
X48645000Y-32543000D01*
X48645000Y-31833000D01*
X49665000Y-31833000D01*
X49665000Y-32543000D01*
G36*
X49665000Y-32543000D02*
G01*
X48645000Y-32543000D01*
X48645000Y-31833000D01*
X49665000Y-31833000D01*
X49665000Y-32543000D01*
G37*
X49665000Y-33343000D02*
X48645000Y-33343000D01*
X48645000Y-32633000D01*
X49665000Y-32633000D01*
X49665000Y-33343000D01*
G36*
X49665000Y-33343000D02*
G01*
X48645000Y-33343000D01*
X48645000Y-32633000D01*
X49665000Y-32633000D01*
X49665000Y-33343000D01*
G37*
X50520000Y-29488000D02*
X49810000Y-29488000D01*
X49810000Y-28468000D01*
X50520000Y-28468000D01*
X50520000Y-29488000D01*
G36*
X50520000Y-29488000D02*
G01*
X49810000Y-29488000D01*
X49810000Y-28468000D01*
X50520000Y-28468000D01*
X50520000Y-29488000D01*
G37*
X50520000Y-33508000D02*
X49810000Y-33508000D01*
X49810000Y-32488000D01*
X50520000Y-32488000D01*
X50520000Y-33508000D01*
G36*
X50520000Y-33508000D02*
G01*
X49810000Y-33508000D01*
X49810000Y-32488000D01*
X50520000Y-32488000D01*
X50520000Y-33508000D01*
G37*
X51685000Y-29343000D02*
X50665000Y-29343000D01*
X50665000Y-28633000D01*
X51685000Y-28633000D01*
X51685000Y-29343000D01*
G36*
X51685000Y-29343000D02*
G01*
X50665000Y-29343000D01*
X50665000Y-28633000D01*
X51685000Y-28633000D01*
X51685000Y-29343000D01*
G37*
X51685000Y-30143000D02*
X50665000Y-30143000D01*
X50665000Y-29433000D01*
X51685000Y-29433000D01*
X51685000Y-30143000D01*
G36*
X51685000Y-30143000D02*
G01*
X50665000Y-30143000D01*
X50665000Y-29433000D01*
X51685000Y-29433000D01*
X51685000Y-30143000D01*
G37*
X51685000Y-30943000D02*
X50665000Y-30943000D01*
X50665000Y-30233000D01*
X51685000Y-30233000D01*
X51685000Y-30943000D01*
G36*
X51685000Y-30943000D02*
G01*
X50665000Y-30943000D01*
X50665000Y-30233000D01*
X51685000Y-30233000D01*
X51685000Y-30943000D01*
G37*
X51685000Y-31743000D02*
X50665000Y-31743000D01*
X50665000Y-31033000D01*
X51685000Y-31033000D01*
X51685000Y-31743000D01*
G36*
X51685000Y-31743000D02*
G01*
X50665000Y-31743000D01*
X50665000Y-31033000D01*
X51685000Y-31033000D01*
X51685000Y-31743000D01*
G37*
X51685000Y-32543000D02*
X50665000Y-32543000D01*
X50665000Y-31833000D01*
X51685000Y-31833000D01*
X51685000Y-32543000D01*
G36*
X51685000Y-32543000D02*
G01*
X50665000Y-32543000D01*
X50665000Y-31833000D01*
X51685000Y-31833000D01*
X51685000Y-32543000D01*
G37*
X51685000Y-33343000D02*
X50665000Y-33343000D01*
X50665000Y-32633000D01*
X51685000Y-32633000D01*
X51685000Y-33343000D01*
G36*
X51685000Y-33343000D02*
G01*
X50665000Y-33343000D01*
X50665000Y-32633000D01*
X51685000Y-32633000D01*
X51685000Y-33343000D01*
G37*
%TO.C,U3*%
X185820000Y-33343000D02*
X184800000Y-33343000D01*
X184800000Y-32633000D01*
X185820000Y-32633000D01*
X185820000Y-33343000D01*
G36*
X185820000Y-33343000D02*
G01*
X184800000Y-33343000D01*
X184800000Y-32633000D01*
X185820000Y-32633000D01*
X185820000Y-33343000D01*
G37*
X185820000Y-32543000D02*
X184800000Y-32543000D01*
X184800000Y-31833000D01*
X185820000Y-31833000D01*
X185820000Y-32543000D01*
G36*
X185820000Y-32543000D02*
G01*
X184800000Y-32543000D01*
X184800000Y-31833000D01*
X185820000Y-31833000D01*
X185820000Y-32543000D01*
G37*
X185820000Y-31743000D02*
X184800000Y-31743000D01*
X184800000Y-31033000D01*
X185820000Y-31033000D01*
X185820000Y-31743000D01*
G36*
X185820000Y-31743000D02*
G01*
X184800000Y-31743000D01*
X184800000Y-31033000D01*
X185820000Y-31033000D01*
X185820000Y-31743000D01*
G37*
X185820000Y-30943000D02*
X184800000Y-30943000D01*
X184800000Y-30233000D01*
X185820000Y-30233000D01*
X185820000Y-30943000D01*
G36*
X185820000Y-30943000D02*
G01*
X184800000Y-30943000D01*
X184800000Y-30233000D01*
X185820000Y-30233000D01*
X185820000Y-30943000D01*
G37*
X185820000Y-30143000D02*
X184800000Y-30143000D01*
X184800000Y-29433000D01*
X185820000Y-29433000D01*
X185820000Y-30143000D01*
G36*
X185820000Y-30143000D02*
G01*
X184800000Y-30143000D01*
X184800000Y-29433000D01*
X185820000Y-29433000D01*
X185820000Y-30143000D01*
G37*
X185820000Y-29343000D02*
X184800000Y-29343000D01*
X184800000Y-28633000D01*
X185820000Y-28633000D01*
X185820000Y-29343000D01*
G36*
X185820000Y-29343000D02*
G01*
X184800000Y-29343000D01*
X184800000Y-28633000D01*
X185820000Y-28633000D01*
X185820000Y-29343000D01*
G37*
X184655000Y-33508000D02*
X183945000Y-33508000D01*
X183945000Y-32488000D01*
X184655000Y-32488000D01*
X184655000Y-33508000D01*
G36*
X184655000Y-33508000D02*
G01*
X183945000Y-33508000D01*
X183945000Y-32488000D01*
X184655000Y-32488000D01*
X184655000Y-33508000D01*
G37*
X184655000Y-29488000D02*
X183945000Y-29488000D01*
X183945000Y-28468000D01*
X184655000Y-28468000D01*
X184655000Y-29488000D01*
G36*
X184655000Y-29488000D02*
G01*
X183945000Y-29488000D01*
X183945000Y-28468000D01*
X184655000Y-28468000D01*
X184655000Y-29488000D01*
G37*
X183800000Y-33343000D02*
X182780000Y-33343000D01*
X182780000Y-32633000D01*
X183800000Y-32633000D01*
X183800000Y-33343000D01*
G36*
X183800000Y-33343000D02*
G01*
X182780000Y-33343000D01*
X182780000Y-32633000D01*
X183800000Y-32633000D01*
X183800000Y-33343000D01*
G37*
X183800000Y-32543000D02*
X182780000Y-32543000D01*
X182780000Y-31833000D01*
X183800000Y-31833000D01*
X183800000Y-32543000D01*
G36*
X183800000Y-32543000D02*
G01*
X182780000Y-32543000D01*
X182780000Y-31833000D01*
X183800000Y-31833000D01*
X183800000Y-32543000D01*
G37*
X183800000Y-31743000D02*
X182780000Y-31743000D01*
X182780000Y-31033000D01*
X183800000Y-31033000D01*
X183800000Y-31743000D01*
G36*
X183800000Y-31743000D02*
G01*
X182780000Y-31743000D01*
X182780000Y-31033000D01*
X183800000Y-31033000D01*
X183800000Y-31743000D01*
G37*
X183800000Y-30943000D02*
X182780000Y-30943000D01*
X182780000Y-30233000D01*
X183800000Y-30233000D01*
X183800000Y-30943000D01*
G36*
X183800000Y-30943000D02*
G01*
X182780000Y-30943000D01*
X182780000Y-30233000D01*
X183800000Y-30233000D01*
X183800000Y-30943000D01*
G37*
X183800000Y-30143000D02*
X182780000Y-30143000D01*
X182780000Y-29433000D01*
X183800000Y-29433000D01*
X183800000Y-30143000D01*
G36*
X183800000Y-30143000D02*
G01*
X182780000Y-30143000D01*
X182780000Y-29433000D01*
X183800000Y-29433000D01*
X183800000Y-30143000D01*
G37*
X183800000Y-29343000D02*
X182780000Y-29343000D01*
X182780000Y-28633000D01*
X183800000Y-28633000D01*
X183800000Y-29343000D01*
G36*
X183800000Y-29343000D02*
G01*
X182780000Y-29343000D01*
X182780000Y-28633000D01*
X183800000Y-28633000D01*
X183800000Y-29343000D01*
G37*
%TD*%
D11*
%TO.C,MX12*%
X48500000Y-76494000D03*
D12*
X49000000Y-80244000D03*
D13*
X54000000Y-76494000D03*
D12*
X54000000Y-82444000D03*
D14*
X59220000Y-72294000D03*
D11*
X59500000Y-76494000D03*
D15*
X57275000Y-82444000D03*
X45725000Y-80244000D03*
%TD*%
D11*
%TO.C,MX6*%
X30500000Y-68000000D03*
D12*
X31000000Y-71750000D03*
D13*
X36000000Y-68000000D03*
D12*
X36000000Y-73950000D03*
D14*
X41220000Y-63800000D03*
D11*
X41500000Y-68000000D03*
D15*
X39275000Y-73950000D03*
X27725000Y-71750000D03*
%TD*%
D11*
%TO.C,MX15*%
X102500000Y-68000000D03*
D12*
X103000000Y-71750000D03*
D13*
X108000000Y-68000000D03*
D12*
X108000000Y-73950000D03*
D14*
X113220000Y-63800000D03*
D11*
X113500000Y-68000000D03*
D15*
X111275000Y-73950000D03*
X99725000Y-71750000D03*
%TD*%
D11*
%TO.C,MX31*%
X174500000Y-76500000D03*
D12*
X175000000Y-80250000D03*
D13*
X180000000Y-76500000D03*
D12*
X180000000Y-82450000D03*
D14*
X185220000Y-72300000D03*
D11*
X185500000Y-76500000D03*
D15*
X183275000Y-82450000D03*
X171725000Y-80250000D03*
%TD*%
D11*
%TO.C,MX27*%
X156500000Y-51000000D03*
D12*
X157000000Y-54750000D03*
D13*
X162000000Y-51000000D03*
D12*
X162000000Y-56950000D03*
D14*
X167220000Y-46800000D03*
D11*
X167500000Y-51000000D03*
D15*
X165275000Y-56950000D03*
X153725000Y-54750000D03*
%TD*%
D11*
%TO.C,MX5*%
X102500000Y-34000000D03*
D12*
X103000000Y-37750000D03*
D13*
X108000000Y-34000000D03*
D12*
X108000000Y-39950000D03*
D14*
X113220000Y-29800000D03*
D11*
X113500000Y-34000000D03*
D15*
X111275000Y-39950000D03*
X99725000Y-37750000D03*
%TD*%
D11*
%TO.C,MX11*%
X30500000Y-85000000D03*
D12*
X31000000Y-88750000D03*
D13*
X36000000Y-85000000D03*
D12*
X36000000Y-90950000D03*
D14*
X41220000Y-80800000D03*
D11*
X41500000Y-85000000D03*
D15*
X39275000Y-90950000D03*
X27725000Y-88750000D03*
%TD*%
D16*
%TO.C,MX19*%
X51750000Y-92500000D03*
X51750000Y-86000000D03*
X56250000Y-92500000D03*
X56250000Y-86000000D03*
%TD*%
D11*
%TO.C,MX29*%
X120500000Y-51000000D03*
D12*
X121000000Y-54750000D03*
D13*
X126000000Y-51000000D03*
D12*
X126000000Y-56950000D03*
D14*
X131220000Y-46800000D03*
D11*
X131500000Y-51000000D03*
D15*
X129275000Y-56950000D03*
X117725000Y-54750000D03*
%TD*%
D11*
%TO.C,MX16*%
X66500000Y-85000000D03*
D12*
X67000000Y-88750000D03*
D13*
X72000000Y-85000000D03*
D12*
X72000000Y-90950000D03*
D14*
X77220000Y-80800000D03*
D11*
X77500000Y-85000000D03*
D15*
X75275000Y-90950000D03*
X63725000Y-88750000D03*
%TD*%
D16*
%TO.C,MX38*%
X182250000Y-86000000D03*
X182250000Y-92500000D03*
X177750000Y-86000000D03*
X177750000Y-92500000D03*
%TD*%
D11*
%TO.C,MX2*%
X48500000Y-42500000D03*
D12*
X49000000Y-46250000D03*
D13*
X54000000Y-42500000D03*
D12*
X54000000Y-48450000D03*
D14*
X59220000Y-38300000D03*
D11*
X59500000Y-42500000D03*
D15*
X57275000Y-48450000D03*
X45725000Y-46250000D03*
%TD*%
D11*
%TO.C,MX10*%
X102500000Y-51000000D03*
D12*
X103000000Y-54750000D03*
D13*
X108000000Y-51000000D03*
D12*
X108000000Y-56950000D03*
D14*
X113220000Y-46800000D03*
D11*
X113500000Y-51000000D03*
D15*
X111275000Y-56950000D03*
X99725000Y-54750000D03*
%TD*%
D17*
%TO.C,J3*%
X114450000Y-59725000D03*
D18*
X114450000Y-62265000D03*
%TD*%
D11*
%TO.C,MX30*%
X192500000Y-85000000D03*
D12*
X193000000Y-88750000D03*
D13*
X198000000Y-85000000D03*
D12*
X198000000Y-90950000D03*
D14*
X203220000Y-80800000D03*
D11*
X203500000Y-85000000D03*
D15*
X201275000Y-90950000D03*
X189725000Y-88750000D03*
%TD*%
D11*
%TO.C,MX34*%
X120500000Y-68000000D03*
D12*
X121000000Y-71750000D03*
D13*
X126000000Y-68000000D03*
D12*
X126000000Y-73950000D03*
D14*
X131220000Y-63800000D03*
D11*
X131500000Y-68000000D03*
D15*
X129275000Y-73950000D03*
X117725000Y-71750000D03*
%TD*%
D11*
%TO.C,MX3*%
X66500000Y-34000000D03*
D12*
X67000000Y-37750000D03*
D13*
X72000000Y-34000000D03*
D12*
X72000000Y-39950000D03*
D14*
X77220000Y-29800000D03*
D11*
X77500000Y-34000000D03*
D15*
X75275000Y-39950000D03*
X63725000Y-37750000D03*
%TD*%
D11*
%TO.C,MX21*%
X174500000Y-42500000D03*
D12*
X175000000Y-46250000D03*
D13*
X180000000Y-42500000D03*
D12*
X180000000Y-48450000D03*
D14*
X185220000Y-38300000D03*
D11*
X185500000Y-42500000D03*
D15*
X183275000Y-48450000D03*
X171725000Y-46250000D03*
%TD*%
D11*
%TO.C,MX20*%
X192500000Y-51000000D03*
D12*
X193000000Y-54750000D03*
D13*
X198000000Y-51000000D03*
D12*
X198000000Y-56950000D03*
D14*
X203220000Y-46800000D03*
D11*
X203500000Y-51000000D03*
D15*
X201275000Y-56950000D03*
X189725000Y-54750000D03*
%TD*%
D11*
%TO.C,MX7*%
X48500000Y-59500000D03*
D12*
X49000000Y-63250000D03*
D13*
X54000000Y-59500000D03*
D12*
X54000000Y-65450000D03*
D14*
X59220000Y-55300000D03*
D11*
X59500000Y-59500000D03*
D15*
X57275000Y-65450000D03*
X45725000Y-63250000D03*
%TD*%
D11*
%TO.C,MX32*%
X156500000Y-68000000D03*
D12*
X157000000Y-71750000D03*
D13*
X162000000Y-68000000D03*
D12*
X162000000Y-73950000D03*
D14*
X167220000Y-63800000D03*
D11*
X167500000Y-68000000D03*
D15*
X165275000Y-73950000D03*
X153725000Y-71750000D03*
%TD*%
D11*
%TO.C,MX13*%
X66500000Y-68000000D03*
D12*
X67000000Y-71750000D03*
D13*
X72000000Y-68000000D03*
D12*
X72000000Y-73950000D03*
D14*
X77220000Y-63800000D03*
D11*
X77500000Y-68000000D03*
D15*
X75275000Y-73950000D03*
X63725000Y-71750000D03*
%TD*%
D11*
%TO.C,MX35*%
X156500000Y-85000000D03*
D12*
X157000000Y-88750000D03*
D13*
X162000000Y-85000000D03*
D12*
X162000000Y-90950000D03*
D14*
X167220000Y-80800000D03*
D11*
X167500000Y-85000000D03*
D15*
X165275000Y-90950000D03*
X153725000Y-88750000D03*
%TD*%
D11*
%TO.C,MX33*%
X138500000Y-68000000D03*
D12*
X139000000Y-71750000D03*
D13*
X144000000Y-68000000D03*
D12*
X144000000Y-73950000D03*
D14*
X149220000Y-63800000D03*
D11*
X149500000Y-68000000D03*
D15*
X147275000Y-73950000D03*
X135725000Y-71750000D03*
%TD*%
D11*
%TO.C,MX25*%
X192500000Y-68000000D03*
D12*
X193000000Y-71750000D03*
D13*
X198000000Y-68000000D03*
D12*
X198000000Y-73950000D03*
D14*
X203220000Y-63800000D03*
D11*
X203500000Y-68000000D03*
D15*
X201275000Y-73950000D03*
X189725000Y-71750000D03*
%TD*%
D11*
%TO.C,MX14*%
X84500000Y-68000000D03*
D12*
X85000000Y-71750000D03*
D13*
X90000000Y-68000000D03*
D12*
X90000000Y-73950000D03*
D14*
X95220000Y-63800000D03*
D11*
X95500000Y-68000000D03*
D15*
X93275000Y-73950000D03*
X81725000Y-71750000D03*
%TD*%
D11*
%TO.C,MX1*%
X30500000Y-51000000D03*
D12*
X31000000Y-54750000D03*
D13*
X36000000Y-51000000D03*
D12*
X36000000Y-56950000D03*
D14*
X41220000Y-46800000D03*
D11*
X41500000Y-51000000D03*
D15*
X39275000Y-56950000D03*
X27725000Y-54750000D03*
%TD*%
D11*
%TO.C,MX8*%
X66500000Y-51000000D03*
D12*
X67000000Y-54750000D03*
D13*
X72000000Y-51000000D03*
D12*
X72000000Y-56950000D03*
D14*
X77220000Y-46800000D03*
D11*
X77500000Y-51000000D03*
D15*
X75275000Y-56950000D03*
X63725000Y-54750000D03*
%TD*%
D11*
%TO.C,MX37*%
X120500000Y-85000000D03*
D12*
X121000000Y-88750000D03*
D13*
X126000000Y-85000000D03*
D12*
X126000000Y-90950000D03*
D14*
X131220000Y-80800000D03*
D11*
X131500000Y-85000000D03*
D15*
X129275000Y-90950000D03*
X117725000Y-88750000D03*
%TD*%
D11*
%TO.C,MX28*%
X138500000Y-51000000D03*
D12*
X139000000Y-54750000D03*
D13*
X144000000Y-51000000D03*
D12*
X144000000Y-56950000D03*
D14*
X149220000Y-46800000D03*
D11*
X149500000Y-51000000D03*
D15*
X147275000Y-56950000D03*
X135725000Y-54750000D03*
%TD*%
D11*
%TO.C,MX9*%
X84500000Y-51000000D03*
D12*
X85000000Y-54750000D03*
D13*
X90000000Y-51000000D03*
D12*
X90000000Y-56950000D03*
D14*
X95220000Y-46800000D03*
D11*
X95500000Y-51000000D03*
D15*
X93275000Y-56950000D03*
X81725000Y-54750000D03*
%TD*%
D11*
%TO.C,MX23*%
X138500000Y-34000000D03*
D12*
X139000000Y-37750000D03*
D13*
X144000000Y-34000000D03*
D12*
X144000000Y-39950000D03*
D14*
X149220000Y-29800000D03*
D11*
X149500000Y-34000000D03*
D15*
X147275000Y-39950000D03*
X135725000Y-37750000D03*
%TD*%
D11*
%TO.C,MX36*%
X138500000Y-85000000D03*
D12*
X139000000Y-88750000D03*
D13*
X144000000Y-85000000D03*
D12*
X144000000Y-90950000D03*
D14*
X149220000Y-80800000D03*
D11*
X149500000Y-85000000D03*
D15*
X147275000Y-90950000D03*
X135725000Y-88750000D03*
%TD*%
D11*
%TO.C,MX17*%
X84500000Y-85000000D03*
D12*
X85000000Y-88750000D03*
D13*
X90000000Y-85000000D03*
D12*
X90000000Y-90950000D03*
D14*
X95220000Y-80800000D03*
D11*
X95500000Y-85000000D03*
D15*
X93275000Y-90950000D03*
X81725000Y-88750000D03*
%TD*%
D11*
%TO.C,MX18*%
X102500000Y-85000000D03*
D12*
X103000000Y-88750000D03*
D13*
X108000000Y-85000000D03*
D12*
X108000000Y-90950000D03*
D14*
X113220000Y-80800000D03*
D11*
X113500000Y-85000000D03*
D15*
X111275000Y-90950000D03*
X99725000Y-88750000D03*
%TD*%
D11*
%TO.C,MX4*%
X84500000Y-34000000D03*
D12*
X85000000Y-37750000D03*
D13*
X90000000Y-34000000D03*
D12*
X90000000Y-39950000D03*
D14*
X95220000Y-29800000D03*
D11*
X95500000Y-34000000D03*
D15*
X93275000Y-39950000D03*
X81725000Y-37750000D03*
%TD*%
D11*
%TO.C,MX24*%
X120500000Y-34000000D03*
D12*
X121000000Y-37750000D03*
D13*
X126000000Y-34000000D03*
D12*
X126000000Y-39950000D03*
D14*
X131220000Y-29800000D03*
D11*
X131500000Y-34000000D03*
D15*
X129275000Y-39950000D03*
X117725000Y-37750000D03*
%TD*%
D11*
%TO.C,MX22*%
X156500000Y-34000000D03*
D12*
X157000000Y-37750000D03*
D13*
X162000000Y-34000000D03*
D12*
X162000000Y-39950000D03*
D14*
X167220000Y-29800000D03*
D11*
X167500000Y-34000000D03*
D15*
X165275000Y-39950000D03*
X153725000Y-37750000D03*
%TD*%
D11*
%TO.C,MX26*%
X174500000Y-59500000D03*
D12*
X175000000Y-63250000D03*
D13*
X180000000Y-59500000D03*
D12*
X180000000Y-65450000D03*
D14*
X185220000Y-55300000D03*
D11*
X185500000Y-59500000D03*
D15*
X183275000Y-65450000D03*
X171725000Y-63250000D03*
%TD*%
D17*
%TO.C,J4*%
X117300000Y-59725000D03*
D18*
X117300000Y-62265000D03*
%TD*%
D19*
%TO.C,D36*%
X141150000Y-93500000D03*
X137850000Y-93500000D03*
%TD*%
%TO.C,D8*%
X69150000Y-59500000D03*
X65850000Y-59500000D03*
%TD*%
%TO.C,D25*%
X195150000Y-76500000D03*
X191850000Y-76500000D03*
%TD*%
D20*
%TO.C,J2*%
X175800000Y-29900000D03*
D21*
X175800000Y-27900000D03*
%TD*%
D19*
%TO.C,D27*%
X159150000Y-59500000D03*
X155850000Y-59500000D03*
%TD*%
D22*
%TO.C,D12*%
X47250000Y-88775000D03*
X47250000Y-85475000D03*
%TD*%
D19*
%TO.C,D1*%
X33150000Y-59500000D03*
X29850000Y-59500000D03*
%TD*%
D23*
%TO.C,C6*%
X178800000Y-31050000D03*
X181500000Y-31050000D03*
%TD*%
D19*
%TO.C,D6*%
X33150000Y-76500000D03*
X29850000Y-76500000D03*
%TD*%
%TO.C,D39*%
X82750000Y-26950000D03*
X79450000Y-26950000D03*
%TD*%
%TO.C,D9*%
X87150000Y-59500000D03*
X83850000Y-59500000D03*
%TD*%
%TO.C,D24*%
X123150000Y-42500000D03*
X119850000Y-42500000D03*
%TD*%
D22*
%TO.C,D38*%
X173250000Y-88775000D03*
X173250000Y-85475000D03*
%TD*%
D19*
%TO.C,D35*%
X159150000Y-93500000D03*
X155850000Y-93500000D03*
%TD*%
%TO.C,D20*%
X195150000Y-59500000D03*
X191850000Y-59500000D03*
%TD*%
D24*
%TO.C,C5*%
X179150000Y-28950000D03*
X181050000Y-28950000D03*
%TD*%
D19*
%TO.C,D28*%
X141150000Y-59500000D03*
X137850000Y-59500000D03*
%TD*%
D22*
%TO.C,D19*%
X60750000Y-88775000D03*
X60750000Y-85475000D03*
%TD*%
D25*
%TO.C,R3*%
X205587500Y-47100000D03*
X207412500Y-47100000D03*
%TD*%
D19*
%TO.C,D13*%
X69150000Y-76500000D03*
X65850000Y-76500000D03*
%TD*%
%TO.C,D23*%
X141150000Y-42500000D03*
X137850000Y-42500000D03*
%TD*%
D26*
%TO.C,C2*%
X55306000Y-28829000D03*
X53406000Y-28829000D03*
%TD*%
D19*
%TO.C,D3*%
X69150000Y-42500000D03*
X65850000Y-42500000D03*
%TD*%
D27*
%TO.C,U2*%
X44500000Y-27675000D03*
X44500000Y-30215000D03*
X44500000Y-32755000D03*
X44500000Y-35295000D03*
X44500000Y-37835000D03*
X44500000Y-40375000D03*
X44500000Y-42915000D03*
X27500000Y-42915000D03*
X27500000Y-40375000D03*
X27500000Y-37835000D03*
X27500000Y-35295000D03*
X27500000Y-32755000D03*
X27500000Y-30215000D03*
X27500000Y-27675000D03*
D28*
X37270000Y-26905000D03*
X34730000Y-26905000D03*
X37270000Y-29445000D03*
X34730000Y-29445000D03*
D29*
X32200000Y-44545000D03*
X30300000Y-44545000D03*
D30*
X40500000Y-33095000D03*
X40500000Y-34995000D03*
%TD*%
D19*
%TO.C,D17*%
X87150000Y-93500000D03*
X83850000Y-93500000D03*
%TD*%
D31*
%TO.C,C3*%
X55706000Y-30861000D03*
X53006000Y-30861000D03*
%TD*%
D19*
%TO.C,D15*%
X105150000Y-76500000D03*
X101850000Y-76500000D03*
%TD*%
D32*
%TO.C,R2*%
X48918500Y-37846000D03*
X47093500Y-37846000D03*
%TD*%
D19*
%TO.C,D34*%
X123150000Y-76500000D03*
X119850000Y-76500000D03*
%TD*%
D27*
%TO.C,U4*%
X206500000Y-27675000D03*
X206500000Y-30215000D03*
X206500000Y-32755000D03*
X206500000Y-35295000D03*
X206500000Y-37835000D03*
X206500000Y-40375000D03*
X206500000Y-42915000D03*
X189500000Y-42915000D03*
X189500000Y-40375000D03*
X189500000Y-37835000D03*
X189500000Y-35295000D03*
X189500000Y-32755000D03*
X189500000Y-30215000D03*
X189500000Y-27675000D03*
D28*
X199270000Y-26905000D03*
X196730000Y-26905000D03*
X199270000Y-29445000D03*
X196730000Y-29445000D03*
D29*
X194200000Y-44545000D03*
X192300000Y-44545000D03*
D30*
X202500000Y-33095000D03*
X202500000Y-34995000D03*
%TD*%
D19*
%TO.C,D32*%
X159150000Y-76500000D03*
X155850000Y-76500000D03*
%TD*%
%TO.C,D18*%
X105150000Y-93500000D03*
X101850000Y-93500000D03*
%TD*%
%TO.C,D4*%
X87150000Y-42500000D03*
X83850000Y-42500000D03*
%TD*%
%TO.C,D21*%
X177150000Y-51000000D03*
X173850000Y-51000000D03*
%TD*%
%TO.C,D29*%
X123150000Y-59500000D03*
X119850000Y-59500000D03*
%TD*%
%TO.C,D16*%
X69150000Y-93500000D03*
X65850000Y-93500000D03*
%TD*%
%TO.C,D33*%
X141150000Y-76500000D03*
X137850000Y-76500000D03*
%TD*%
%TO.C,D30*%
X195150000Y-93500000D03*
X191850000Y-93500000D03*
%TD*%
%TO.C,D7*%
X51150000Y-68000000D03*
X47850000Y-68000000D03*
%TD*%
D32*
%TO.C,R1*%
X48918500Y-40386000D03*
X47093500Y-40386000D03*
%TD*%
D19*
%TO.C,D37*%
X123150000Y-93500000D03*
X119850000Y-93500000D03*
%TD*%
D25*
%TO.C,R4*%
X205587500Y-49000000D03*
X207412500Y-49000000D03*
%TD*%
D19*
%TO.C,D11*%
X33150000Y-93500000D03*
X29850000Y-93500000D03*
%TD*%
D24*
%TO.C,C4*%
X179150000Y-33100000D03*
X181050000Y-33100000D03*
%TD*%
D19*
%TO.C,D2*%
X51150000Y-51000000D03*
X47850000Y-51000000D03*
%TD*%
%TO.C,D26*%
X177150000Y-68000000D03*
X173850000Y-68000000D03*
%TD*%
D33*
%TO.C,J1*%
X58950000Y-27750000D03*
D21*
X58950000Y-29750000D03*
%TD*%
D19*
%TO.C,D22*%
X159150000Y-42500000D03*
X155850000Y-42500000D03*
%TD*%
%TO.C,D5*%
X105150000Y-42500000D03*
X101850000Y-42500000D03*
%TD*%
%TO.C,D10*%
X105150000Y-59500000D03*
X101850000Y-59500000D03*
%TD*%
%TO.C,D14*%
X87150000Y-76500000D03*
X83850000Y-76500000D03*
%TD*%
D22*
%TO.C,D31*%
X186750000Y-88775000D03*
X186750000Y-85475000D03*
%TD*%
D26*
%TO.C,C1*%
X55306000Y-32893000D03*
X53406000Y-32893000D03*
%TD*%
M02*
