%TF.GenerationSoftware,KiCad,Pcbnew,7.0.2-0*%
%TF.CreationDate,2024-08-24T17:52:38-04:00*%
%TF.ProjectId,PCB,5043422e-6b69-4636-9164-5f7063625858,rev?*%
%TF.SameCoordinates,Original*%
%TF.FileFunction,Soldermask,Top*%
%TF.FilePolarity,Negative*%
%FSLAX46Y46*%
G04 Gerber Fmt 4.6, Leading zero omitted, Abs format (unit mm)*
G04 Created by KiCad (PCBNEW 7.0.2-0) date 2024-08-24 17:52:38*
%MOMM*%
%LPD*%
G01*
G04 APERTURE LIST*
G04 Aperture macros list*
%AMRoundRect*
0 Rectangle with rounded corners*
0 $1 Rounding radius*
0 $2 $3 $4 $5 $6 $7 $8 $9 X,Y pos of 4 corners*
0 Add a 4 corners polygon primitive as box body*
4,1,4,$2,$3,$4,$5,$6,$7,$8,$9,$2,$3,0*
0 Add four circle primitives for the rounded corners*
1,1,$1+$1,$2,$3*
1,1,$1+$1,$4,$5*
1,1,$1+$1,$6,$7*
1,1,$1+$1,$8,$9*
0 Add four rect primitives between the rounded corners*
20,1,$1+$1,$2,$3,$4,$5,0*
20,1,$1+$1,$4,$5,$6,$7,0*
20,1,$1+$1,$6,$7,$8,$9,0*
20,1,$1+$1,$8,$9,$2,$3,0*%
G04 Aperture macros list end*
%ADD10C,1.701800*%
%ADD11C,3.000000*%
%ADD12C,3.429000*%
%ADD13C,0.990600*%
%ADD14C,2.000000*%
%ADD15RoundRect,0.250000X0.625000X-0.350000X0.625000X0.350000X-0.625000X0.350000X-0.625000X-0.350000X0*%
%ADD16O,1.750000X1.200000*%
%ADD17R,2.300000X1.300000*%
%ADD18RoundRect,0.250000X-0.625000X0.350000X-0.625000X-0.350000X0.625000X-0.350000X0.625000X0.350000X0*%
G04 APERTURE END LIST*
D10*
%TO.C,MX12*%
X48500000Y-76500000D03*
D11*
X49000000Y-80250000D03*
D12*
X54000000Y-76500000D03*
D11*
X54000000Y-82450000D03*
D13*
X59220000Y-72300000D03*
D10*
X59500000Y-76500000D03*
%TD*%
%TO.C,MX6*%
X30500000Y-68000000D03*
D11*
X31000000Y-71750000D03*
D12*
X36000000Y-68000000D03*
D11*
X36000000Y-73950000D03*
D13*
X41220000Y-63800000D03*
D10*
X41500000Y-68000000D03*
%TD*%
%TO.C,MX15*%
X102500000Y-68000000D03*
D11*
X103000000Y-71750000D03*
D12*
X108000000Y-68000000D03*
D11*
X108000000Y-73950000D03*
D13*
X113220000Y-63800000D03*
D10*
X113500000Y-68000000D03*
%TD*%
%TO.C,MX31*%
X174500000Y-76500000D03*
D11*
X175000000Y-80250000D03*
D12*
X180000000Y-76500000D03*
D11*
X180000000Y-82450000D03*
D13*
X185220000Y-72300000D03*
D10*
X185500000Y-76500000D03*
%TD*%
%TO.C,MX27*%
X156500000Y-51000000D03*
D11*
X157000000Y-54750000D03*
D12*
X162000000Y-51000000D03*
D11*
X162000000Y-56950000D03*
D13*
X167220000Y-46800000D03*
D10*
X167500000Y-51000000D03*
%TD*%
%TO.C,MX5*%
X102500000Y-34000000D03*
D11*
X103000000Y-37750000D03*
D12*
X108000000Y-34000000D03*
D11*
X108000000Y-39950000D03*
D13*
X113220000Y-29800000D03*
D10*
X113500000Y-34000000D03*
%TD*%
%TO.C,MX11*%
X30500000Y-85000000D03*
D11*
X31000000Y-88750000D03*
D12*
X36000000Y-85000000D03*
D11*
X36000000Y-90950000D03*
D13*
X41220000Y-80800000D03*
D10*
X41500000Y-85000000D03*
%TD*%
D14*
%TO.C,MX19*%
X51750000Y-92500000D03*
X51750000Y-86000000D03*
X56250000Y-92500000D03*
X56250000Y-86000000D03*
%TD*%
D10*
%TO.C,MX29*%
X120500000Y-51000000D03*
D11*
X121000000Y-54750000D03*
D12*
X126000000Y-51000000D03*
D11*
X126000000Y-56950000D03*
D13*
X131220000Y-46800000D03*
D10*
X131500000Y-51000000D03*
%TD*%
%TO.C,MX16*%
X66500000Y-85000000D03*
D11*
X67000000Y-88750000D03*
D12*
X72000000Y-85000000D03*
D11*
X72000000Y-90950000D03*
D13*
X77220000Y-80800000D03*
D10*
X77500000Y-85000000D03*
%TD*%
D14*
%TO.C,MX38*%
X182250000Y-86000000D03*
X182250000Y-92500000D03*
X177750000Y-86000000D03*
X177750000Y-92500000D03*
%TD*%
D10*
%TO.C,MX2*%
X48500000Y-42500000D03*
D11*
X49000000Y-46250000D03*
D12*
X54000000Y-42500000D03*
D11*
X54000000Y-48450000D03*
D13*
X59220000Y-38300000D03*
D10*
X59500000Y-42500000D03*
%TD*%
%TO.C,MX10*%
X102500000Y-51000000D03*
D11*
X103000000Y-54750000D03*
D12*
X108000000Y-51000000D03*
D11*
X108000000Y-56950000D03*
D13*
X113220000Y-46800000D03*
D10*
X113500000Y-51000000D03*
%TD*%
%TO.C,MX30*%
X192500000Y-85000000D03*
D11*
X193000000Y-88750000D03*
D12*
X198000000Y-85000000D03*
D11*
X198000000Y-90950000D03*
D13*
X203220000Y-80800000D03*
D10*
X203500000Y-85000000D03*
%TD*%
%TO.C,MX34*%
X120500000Y-68000000D03*
D11*
X121000000Y-71750000D03*
D12*
X126000000Y-68000000D03*
D11*
X126000000Y-73950000D03*
D13*
X131220000Y-63800000D03*
D10*
X131500000Y-68000000D03*
%TD*%
%TO.C,MX3*%
X66500000Y-34000000D03*
D11*
X67000000Y-37750000D03*
D12*
X72000000Y-34000000D03*
D11*
X72000000Y-39950000D03*
D13*
X77220000Y-29800000D03*
D10*
X77500000Y-34000000D03*
%TD*%
%TO.C,MX21*%
X174500000Y-42500000D03*
D11*
X175000000Y-46250000D03*
D12*
X180000000Y-42500000D03*
D11*
X180000000Y-48450000D03*
D13*
X185220000Y-38300000D03*
D10*
X185500000Y-42500000D03*
%TD*%
%TO.C,MX20*%
X192500000Y-51000000D03*
D11*
X193000000Y-54750000D03*
D12*
X198000000Y-51000000D03*
D11*
X198000000Y-56950000D03*
D13*
X203220000Y-46800000D03*
D10*
X203500000Y-51000000D03*
%TD*%
%TO.C,MX7*%
X48500000Y-59500000D03*
D11*
X49000000Y-63250000D03*
D12*
X54000000Y-59500000D03*
D11*
X54000000Y-65450000D03*
D13*
X59220000Y-55300000D03*
D10*
X59500000Y-59500000D03*
%TD*%
%TO.C,MX32*%
X156500000Y-68000000D03*
D11*
X157000000Y-71750000D03*
D12*
X162000000Y-68000000D03*
D11*
X162000000Y-73950000D03*
D13*
X167220000Y-63800000D03*
D10*
X167500000Y-68000000D03*
%TD*%
%TO.C,MX13*%
X66500000Y-68000000D03*
D11*
X67000000Y-71750000D03*
D12*
X72000000Y-68000000D03*
D11*
X72000000Y-73950000D03*
D13*
X77220000Y-63800000D03*
D10*
X77500000Y-68000000D03*
%TD*%
%TO.C,MX35*%
X156500000Y-85000000D03*
D11*
X157000000Y-88750000D03*
D12*
X162000000Y-85000000D03*
D11*
X162000000Y-90950000D03*
D13*
X167220000Y-80800000D03*
D10*
X167500000Y-85000000D03*
%TD*%
%TO.C,MX33*%
X138500000Y-68000000D03*
D11*
X139000000Y-71750000D03*
D12*
X144000000Y-68000000D03*
D11*
X144000000Y-73950000D03*
D13*
X149220000Y-63800000D03*
D10*
X149500000Y-68000000D03*
%TD*%
%TO.C,MX25*%
X192500000Y-68000000D03*
D11*
X193000000Y-71750000D03*
D12*
X198000000Y-68000000D03*
D11*
X198000000Y-73950000D03*
D13*
X203220000Y-63800000D03*
D10*
X203500000Y-68000000D03*
%TD*%
%TO.C,MX14*%
X84500000Y-68000000D03*
D11*
X85000000Y-71750000D03*
D12*
X90000000Y-68000000D03*
D11*
X90000000Y-73950000D03*
D13*
X95220000Y-63800000D03*
D10*
X95500000Y-68000000D03*
%TD*%
%TO.C,MX1*%
X30500000Y-51000000D03*
D11*
X31000000Y-54750000D03*
D12*
X36000000Y-51000000D03*
D11*
X36000000Y-56950000D03*
D13*
X41220000Y-46800000D03*
D10*
X41500000Y-51000000D03*
%TD*%
%TO.C,MX8*%
X66500000Y-51000000D03*
D11*
X67000000Y-54750000D03*
D12*
X72000000Y-51000000D03*
D11*
X72000000Y-56950000D03*
D13*
X77220000Y-46800000D03*
D10*
X77500000Y-51000000D03*
%TD*%
%TO.C,MX37*%
X120500000Y-85000000D03*
D11*
X121000000Y-88750000D03*
D12*
X126000000Y-85000000D03*
D11*
X126000000Y-90950000D03*
D13*
X131220000Y-80800000D03*
D10*
X131500000Y-85000000D03*
%TD*%
%TO.C,MX28*%
X138500000Y-51000000D03*
D11*
X139000000Y-54750000D03*
D12*
X144000000Y-51000000D03*
D11*
X144000000Y-56950000D03*
D13*
X149220000Y-46800000D03*
D10*
X149500000Y-51000000D03*
%TD*%
%TO.C,MX9*%
X84500000Y-51000000D03*
D11*
X85000000Y-54750000D03*
D12*
X90000000Y-51000000D03*
D11*
X90000000Y-56950000D03*
D13*
X95220000Y-46800000D03*
D10*
X95500000Y-51000000D03*
%TD*%
%TO.C,MX23*%
X138500000Y-34000000D03*
D11*
X139000000Y-37750000D03*
D12*
X144000000Y-34000000D03*
D11*
X144000000Y-39950000D03*
D13*
X149220000Y-29800000D03*
D10*
X149500000Y-34000000D03*
%TD*%
%TO.C,MX36*%
X138500000Y-85000000D03*
D11*
X139000000Y-88750000D03*
D12*
X144000000Y-85000000D03*
D11*
X144000000Y-90950000D03*
D13*
X149220000Y-80800000D03*
D10*
X149500000Y-85000000D03*
%TD*%
%TO.C,MX17*%
X84500000Y-85000000D03*
D11*
X85000000Y-88750000D03*
D12*
X90000000Y-85000000D03*
D11*
X90000000Y-90950000D03*
D13*
X95220000Y-80800000D03*
D10*
X95500000Y-85000000D03*
%TD*%
%TO.C,MX18*%
X102500000Y-85000000D03*
D11*
X103000000Y-88750000D03*
D12*
X108000000Y-85000000D03*
D11*
X108000000Y-90950000D03*
D13*
X113220000Y-80800000D03*
D10*
X113500000Y-85000000D03*
%TD*%
%TO.C,MX4*%
X84500000Y-34000000D03*
D11*
X85000000Y-37750000D03*
D12*
X90000000Y-34000000D03*
D11*
X90000000Y-39950000D03*
D13*
X95220000Y-29800000D03*
D10*
X95500000Y-34000000D03*
%TD*%
%TO.C,MX24*%
X120500000Y-34000000D03*
D11*
X121000000Y-37750000D03*
D12*
X126000000Y-34000000D03*
D11*
X126000000Y-39950000D03*
D13*
X131220000Y-29800000D03*
D10*
X131500000Y-34000000D03*
%TD*%
%TO.C,MX22*%
X156500000Y-34000000D03*
D11*
X157000000Y-37750000D03*
D12*
X162000000Y-34000000D03*
D11*
X162000000Y-39950000D03*
D13*
X167220000Y-29800000D03*
D10*
X167500000Y-34000000D03*
%TD*%
%TO.C,MX26*%
X174500000Y-59500000D03*
D11*
X175000000Y-63250000D03*
D12*
X180000000Y-59500000D03*
D11*
X180000000Y-65450000D03*
D13*
X185220000Y-55300000D03*
D10*
X185500000Y-59500000D03*
%TD*%
D15*
%TO.C,J2*%
X175800000Y-29900000D03*
D16*
X175800000Y-27900000D03*
%TD*%
D17*
%TO.C,U2*%
X40500000Y-33095000D03*
X40500000Y-34995000D03*
%TD*%
%TO.C,U4*%
X202500000Y-33095000D03*
X202500000Y-34995000D03*
%TD*%
D18*
%TO.C,J1*%
X58950000Y-27750000D03*
D16*
X58950000Y-29750000D03*
%TD*%
M02*
