%TF.GenerationSoftware,KiCad,Pcbnew,7.0.2-0*%
%TF.CreationDate,2024-08-24T17:52:38-04:00*%
%TF.ProjectId,PCB,5043422e-6b69-4636-9164-5f7063625858,rev?*%
%TF.SameCoordinates,Original*%
%TF.FileFunction,Legend,Bot*%
%TF.FilePolarity,Positive*%
%FSLAX46Y46*%
G04 Gerber Fmt 4.6, Leading zero omitted, Abs format (unit mm)*
G04 Created by KiCad (PCBNEW 7.0.2-0) date 2024-08-24 17:52:38*
%MOMM*%
%LPD*%
G01*
G04 APERTURE LIST*
%ADD10C,0.150000*%
%ADD11C,0.101600*%
%ADD12C,0.120000*%
%ADD13C,0.127000*%
%ADD14C,0.200000*%
%ADD15C,0.254000*%
%ADD16C,0.025400*%
G04 APERTURE END LIST*
D10*
%TO.C,MX12*%
X50761904Y-74962619D02*
X50761904Y-73962619D01*
X50761904Y-73962619D02*
X50428571Y-74676904D01*
X50428571Y-74676904D02*
X50095238Y-73962619D01*
X50095238Y-73962619D02*
X50095238Y-74962619D01*
X49714285Y-73962619D02*
X49047619Y-74962619D01*
X49047619Y-73962619D02*
X49714285Y-74962619D01*
X48142857Y-74962619D02*
X48714285Y-74962619D01*
X48428571Y-74962619D02*
X48428571Y-73962619D01*
X48428571Y-73962619D02*
X48523809Y-74105476D01*
X48523809Y-74105476D02*
X48619047Y-74200714D01*
X48619047Y-74200714D02*
X48714285Y-74248333D01*
X47761904Y-74057857D02*
X47714285Y-74010238D01*
X47714285Y-74010238D02*
X47619047Y-73962619D01*
X47619047Y-73962619D02*
X47380952Y-73962619D01*
X47380952Y-73962619D02*
X47285714Y-74010238D01*
X47285714Y-74010238D02*
X47238095Y-74057857D01*
X47238095Y-74057857D02*
X47190476Y-74153095D01*
X47190476Y-74153095D02*
X47190476Y-74248333D01*
X47190476Y-74248333D02*
X47238095Y-74391190D01*
X47238095Y-74391190D02*
X47809523Y-74962619D01*
X47809523Y-74962619D02*
X47190476Y-74962619D01*
%TO.C,MX6*%
X32285713Y-66462619D02*
X32285713Y-65462619D01*
X32285713Y-65462619D02*
X31952380Y-66176904D01*
X31952380Y-66176904D02*
X31619047Y-65462619D01*
X31619047Y-65462619D02*
X31619047Y-66462619D01*
X31238094Y-65462619D02*
X30571428Y-66462619D01*
X30571428Y-65462619D02*
X31238094Y-66462619D01*
X29761904Y-65462619D02*
X29952380Y-65462619D01*
X29952380Y-65462619D02*
X30047618Y-65510238D01*
X30047618Y-65510238D02*
X30095237Y-65557857D01*
X30095237Y-65557857D02*
X30190475Y-65700714D01*
X30190475Y-65700714D02*
X30238094Y-65891190D01*
X30238094Y-65891190D02*
X30238094Y-66272142D01*
X30238094Y-66272142D02*
X30190475Y-66367380D01*
X30190475Y-66367380D02*
X30142856Y-66415000D01*
X30142856Y-66415000D02*
X30047618Y-66462619D01*
X30047618Y-66462619D02*
X29857142Y-66462619D01*
X29857142Y-66462619D02*
X29761904Y-66415000D01*
X29761904Y-66415000D02*
X29714285Y-66367380D01*
X29714285Y-66367380D02*
X29666666Y-66272142D01*
X29666666Y-66272142D02*
X29666666Y-66034047D01*
X29666666Y-66034047D02*
X29714285Y-65938809D01*
X29714285Y-65938809D02*
X29761904Y-65891190D01*
X29761904Y-65891190D02*
X29857142Y-65843571D01*
X29857142Y-65843571D02*
X30047618Y-65843571D01*
X30047618Y-65843571D02*
X30142856Y-65891190D01*
X30142856Y-65891190D02*
X30190475Y-65938809D01*
X30190475Y-65938809D02*
X30238094Y-66034047D01*
%TO.C,MX15*%
X104761904Y-66462619D02*
X104761904Y-65462619D01*
X104761904Y-65462619D02*
X104428571Y-66176904D01*
X104428571Y-66176904D02*
X104095238Y-65462619D01*
X104095238Y-65462619D02*
X104095238Y-66462619D01*
X103714285Y-65462619D02*
X103047619Y-66462619D01*
X103047619Y-65462619D02*
X103714285Y-66462619D01*
X102142857Y-66462619D02*
X102714285Y-66462619D01*
X102428571Y-66462619D02*
X102428571Y-65462619D01*
X102428571Y-65462619D02*
X102523809Y-65605476D01*
X102523809Y-65605476D02*
X102619047Y-65700714D01*
X102619047Y-65700714D02*
X102714285Y-65748333D01*
X101238095Y-65462619D02*
X101714285Y-65462619D01*
X101714285Y-65462619D02*
X101761904Y-65938809D01*
X101761904Y-65938809D02*
X101714285Y-65891190D01*
X101714285Y-65891190D02*
X101619047Y-65843571D01*
X101619047Y-65843571D02*
X101380952Y-65843571D01*
X101380952Y-65843571D02*
X101285714Y-65891190D01*
X101285714Y-65891190D02*
X101238095Y-65938809D01*
X101238095Y-65938809D02*
X101190476Y-66034047D01*
X101190476Y-66034047D02*
X101190476Y-66272142D01*
X101190476Y-66272142D02*
X101238095Y-66367380D01*
X101238095Y-66367380D02*
X101285714Y-66415000D01*
X101285714Y-66415000D02*
X101380952Y-66462619D01*
X101380952Y-66462619D02*
X101619047Y-66462619D01*
X101619047Y-66462619D02*
X101714285Y-66415000D01*
X101714285Y-66415000D02*
X101761904Y-66367380D01*
%TO.C,MX31*%
X176761904Y-74962619D02*
X176761904Y-73962619D01*
X176761904Y-73962619D02*
X176428571Y-74676904D01*
X176428571Y-74676904D02*
X176095238Y-73962619D01*
X176095238Y-73962619D02*
X176095238Y-74962619D01*
X175714285Y-73962619D02*
X175047619Y-74962619D01*
X175047619Y-73962619D02*
X175714285Y-74962619D01*
X174761904Y-73962619D02*
X174142857Y-73962619D01*
X174142857Y-73962619D02*
X174476190Y-74343571D01*
X174476190Y-74343571D02*
X174333333Y-74343571D01*
X174333333Y-74343571D02*
X174238095Y-74391190D01*
X174238095Y-74391190D02*
X174190476Y-74438809D01*
X174190476Y-74438809D02*
X174142857Y-74534047D01*
X174142857Y-74534047D02*
X174142857Y-74772142D01*
X174142857Y-74772142D02*
X174190476Y-74867380D01*
X174190476Y-74867380D02*
X174238095Y-74915000D01*
X174238095Y-74915000D02*
X174333333Y-74962619D01*
X174333333Y-74962619D02*
X174619047Y-74962619D01*
X174619047Y-74962619D02*
X174714285Y-74915000D01*
X174714285Y-74915000D02*
X174761904Y-74867380D01*
X173190476Y-74962619D02*
X173761904Y-74962619D01*
X173476190Y-74962619D02*
X173476190Y-73962619D01*
X173476190Y-73962619D02*
X173571428Y-74105476D01*
X173571428Y-74105476D02*
X173666666Y-74200714D01*
X173666666Y-74200714D02*
X173761904Y-74248333D01*
%TO.C,MX27*%
X158761904Y-49462619D02*
X158761904Y-48462619D01*
X158761904Y-48462619D02*
X158428571Y-49176904D01*
X158428571Y-49176904D02*
X158095238Y-48462619D01*
X158095238Y-48462619D02*
X158095238Y-49462619D01*
X157714285Y-48462619D02*
X157047619Y-49462619D01*
X157047619Y-48462619D02*
X157714285Y-49462619D01*
X156714285Y-48557857D02*
X156666666Y-48510238D01*
X156666666Y-48510238D02*
X156571428Y-48462619D01*
X156571428Y-48462619D02*
X156333333Y-48462619D01*
X156333333Y-48462619D02*
X156238095Y-48510238D01*
X156238095Y-48510238D02*
X156190476Y-48557857D01*
X156190476Y-48557857D02*
X156142857Y-48653095D01*
X156142857Y-48653095D02*
X156142857Y-48748333D01*
X156142857Y-48748333D02*
X156190476Y-48891190D01*
X156190476Y-48891190D02*
X156761904Y-49462619D01*
X156761904Y-49462619D02*
X156142857Y-49462619D01*
X155809523Y-48462619D02*
X155142857Y-48462619D01*
X155142857Y-48462619D02*
X155571428Y-49462619D01*
%TO.C,MX5*%
X104285713Y-32462619D02*
X104285713Y-31462619D01*
X104285713Y-31462619D02*
X103952380Y-32176904D01*
X103952380Y-32176904D02*
X103619047Y-31462619D01*
X103619047Y-31462619D02*
X103619047Y-32462619D01*
X103238094Y-31462619D02*
X102571428Y-32462619D01*
X102571428Y-31462619D02*
X103238094Y-32462619D01*
X101714285Y-31462619D02*
X102190475Y-31462619D01*
X102190475Y-31462619D02*
X102238094Y-31938809D01*
X102238094Y-31938809D02*
X102190475Y-31891190D01*
X102190475Y-31891190D02*
X102095237Y-31843571D01*
X102095237Y-31843571D02*
X101857142Y-31843571D01*
X101857142Y-31843571D02*
X101761904Y-31891190D01*
X101761904Y-31891190D02*
X101714285Y-31938809D01*
X101714285Y-31938809D02*
X101666666Y-32034047D01*
X101666666Y-32034047D02*
X101666666Y-32272142D01*
X101666666Y-32272142D02*
X101714285Y-32367380D01*
X101714285Y-32367380D02*
X101761904Y-32415000D01*
X101761904Y-32415000D02*
X101857142Y-32462619D01*
X101857142Y-32462619D02*
X102095237Y-32462619D01*
X102095237Y-32462619D02*
X102190475Y-32415000D01*
X102190475Y-32415000D02*
X102238094Y-32367380D01*
%TO.C,MX11*%
X32761904Y-83462619D02*
X32761904Y-82462619D01*
X32761904Y-82462619D02*
X32428571Y-83176904D01*
X32428571Y-83176904D02*
X32095238Y-82462619D01*
X32095238Y-82462619D02*
X32095238Y-83462619D01*
X31714285Y-82462619D02*
X31047619Y-83462619D01*
X31047619Y-82462619D02*
X31714285Y-83462619D01*
X30142857Y-83462619D02*
X30714285Y-83462619D01*
X30428571Y-83462619D02*
X30428571Y-82462619D01*
X30428571Y-82462619D02*
X30523809Y-82605476D01*
X30523809Y-82605476D02*
X30619047Y-82700714D01*
X30619047Y-82700714D02*
X30714285Y-82748333D01*
X29190476Y-83462619D02*
X29761904Y-83462619D01*
X29476190Y-83462619D02*
X29476190Y-82462619D01*
X29476190Y-82462619D02*
X29571428Y-82605476D01*
X29571428Y-82605476D02*
X29666666Y-82700714D01*
X29666666Y-82700714D02*
X29761904Y-82748333D01*
%TO.C,MX29*%
X122761904Y-49462619D02*
X122761904Y-48462619D01*
X122761904Y-48462619D02*
X122428571Y-49176904D01*
X122428571Y-49176904D02*
X122095238Y-48462619D01*
X122095238Y-48462619D02*
X122095238Y-49462619D01*
X121714285Y-48462619D02*
X121047619Y-49462619D01*
X121047619Y-48462619D02*
X121714285Y-49462619D01*
X120714285Y-48557857D02*
X120666666Y-48510238D01*
X120666666Y-48510238D02*
X120571428Y-48462619D01*
X120571428Y-48462619D02*
X120333333Y-48462619D01*
X120333333Y-48462619D02*
X120238095Y-48510238D01*
X120238095Y-48510238D02*
X120190476Y-48557857D01*
X120190476Y-48557857D02*
X120142857Y-48653095D01*
X120142857Y-48653095D02*
X120142857Y-48748333D01*
X120142857Y-48748333D02*
X120190476Y-48891190D01*
X120190476Y-48891190D02*
X120761904Y-49462619D01*
X120761904Y-49462619D02*
X120142857Y-49462619D01*
X119666666Y-49462619D02*
X119476190Y-49462619D01*
X119476190Y-49462619D02*
X119380952Y-49415000D01*
X119380952Y-49415000D02*
X119333333Y-49367380D01*
X119333333Y-49367380D02*
X119238095Y-49224523D01*
X119238095Y-49224523D02*
X119190476Y-49034047D01*
X119190476Y-49034047D02*
X119190476Y-48653095D01*
X119190476Y-48653095D02*
X119238095Y-48557857D01*
X119238095Y-48557857D02*
X119285714Y-48510238D01*
X119285714Y-48510238D02*
X119380952Y-48462619D01*
X119380952Y-48462619D02*
X119571428Y-48462619D01*
X119571428Y-48462619D02*
X119666666Y-48510238D01*
X119666666Y-48510238D02*
X119714285Y-48557857D01*
X119714285Y-48557857D02*
X119761904Y-48653095D01*
X119761904Y-48653095D02*
X119761904Y-48891190D01*
X119761904Y-48891190D02*
X119714285Y-48986428D01*
X119714285Y-48986428D02*
X119666666Y-49034047D01*
X119666666Y-49034047D02*
X119571428Y-49081666D01*
X119571428Y-49081666D02*
X119380952Y-49081666D01*
X119380952Y-49081666D02*
X119285714Y-49034047D01*
X119285714Y-49034047D02*
X119238095Y-48986428D01*
X119238095Y-48986428D02*
X119190476Y-48891190D01*
%TO.C,MX16*%
X68761904Y-83462619D02*
X68761904Y-82462619D01*
X68761904Y-82462619D02*
X68428571Y-83176904D01*
X68428571Y-83176904D02*
X68095238Y-82462619D01*
X68095238Y-82462619D02*
X68095238Y-83462619D01*
X67714285Y-82462619D02*
X67047619Y-83462619D01*
X67047619Y-82462619D02*
X67714285Y-83462619D01*
X66142857Y-83462619D02*
X66714285Y-83462619D01*
X66428571Y-83462619D02*
X66428571Y-82462619D01*
X66428571Y-82462619D02*
X66523809Y-82605476D01*
X66523809Y-82605476D02*
X66619047Y-82700714D01*
X66619047Y-82700714D02*
X66714285Y-82748333D01*
X65285714Y-82462619D02*
X65476190Y-82462619D01*
X65476190Y-82462619D02*
X65571428Y-82510238D01*
X65571428Y-82510238D02*
X65619047Y-82557857D01*
X65619047Y-82557857D02*
X65714285Y-82700714D01*
X65714285Y-82700714D02*
X65761904Y-82891190D01*
X65761904Y-82891190D02*
X65761904Y-83272142D01*
X65761904Y-83272142D02*
X65714285Y-83367380D01*
X65714285Y-83367380D02*
X65666666Y-83415000D01*
X65666666Y-83415000D02*
X65571428Y-83462619D01*
X65571428Y-83462619D02*
X65380952Y-83462619D01*
X65380952Y-83462619D02*
X65285714Y-83415000D01*
X65285714Y-83415000D02*
X65238095Y-83367380D01*
X65238095Y-83367380D02*
X65190476Y-83272142D01*
X65190476Y-83272142D02*
X65190476Y-83034047D01*
X65190476Y-83034047D02*
X65238095Y-82938809D01*
X65238095Y-82938809D02*
X65285714Y-82891190D01*
X65285714Y-82891190D02*
X65380952Y-82843571D01*
X65380952Y-82843571D02*
X65571428Y-82843571D01*
X65571428Y-82843571D02*
X65666666Y-82891190D01*
X65666666Y-82891190D02*
X65714285Y-82938809D01*
X65714285Y-82938809D02*
X65761904Y-83034047D01*
%TO.C,MX2*%
X50285713Y-40962619D02*
X50285713Y-39962619D01*
X50285713Y-39962619D02*
X49952380Y-40676904D01*
X49952380Y-40676904D02*
X49619047Y-39962619D01*
X49619047Y-39962619D02*
X49619047Y-40962619D01*
X49238094Y-39962619D02*
X48571428Y-40962619D01*
X48571428Y-39962619D02*
X49238094Y-40962619D01*
X48238094Y-40057857D02*
X48190475Y-40010238D01*
X48190475Y-40010238D02*
X48095237Y-39962619D01*
X48095237Y-39962619D02*
X47857142Y-39962619D01*
X47857142Y-39962619D02*
X47761904Y-40010238D01*
X47761904Y-40010238D02*
X47714285Y-40057857D01*
X47714285Y-40057857D02*
X47666666Y-40153095D01*
X47666666Y-40153095D02*
X47666666Y-40248333D01*
X47666666Y-40248333D02*
X47714285Y-40391190D01*
X47714285Y-40391190D02*
X48285713Y-40962619D01*
X48285713Y-40962619D02*
X47666666Y-40962619D01*
%TO.C,MX10*%
X104761904Y-49462619D02*
X104761904Y-48462619D01*
X104761904Y-48462619D02*
X104428571Y-49176904D01*
X104428571Y-49176904D02*
X104095238Y-48462619D01*
X104095238Y-48462619D02*
X104095238Y-49462619D01*
X103714285Y-48462619D02*
X103047619Y-49462619D01*
X103047619Y-48462619D02*
X103714285Y-49462619D01*
X102142857Y-49462619D02*
X102714285Y-49462619D01*
X102428571Y-49462619D02*
X102428571Y-48462619D01*
X102428571Y-48462619D02*
X102523809Y-48605476D01*
X102523809Y-48605476D02*
X102619047Y-48700714D01*
X102619047Y-48700714D02*
X102714285Y-48748333D01*
X101523809Y-48462619D02*
X101428571Y-48462619D01*
X101428571Y-48462619D02*
X101333333Y-48510238D01*
X101333333Y-48510238D02*
X101285714Y-48557857D01*
X101285714Y-48557857D02*
X101238095Y-48653095D01*
X101238095Y-48653095D02*
X101190476Y-48843571D01*
X101190476Y-48843571D02*
X101190476Y-49081666D01*
X101190476Y-49081666D02*
X101238095Y-49272142D01*
X101238095Y-49272142D02*
X101285714Y-49367380D01*
X101285714Y-49367380D02*
X101333333Y-49415000D01*
X101333333Y-49415000D02*
X101428571Y-49462619D01*
X101428571Y-49462619D02*
X101523809Y-49462619D01*
X101523809Y-49462619D02*
X101619047Y-49415000D01*
X101619047Y-49415000D02*
X101666666Y-49367380D01*
X101666666Y-49367380D02*
X101714285Y-49272142D01*
X101714285Y-49272142D02*
X101761904Y-49081666D01*
X101761904Y-49081666D02*
X101761904Y-48843571D01*
X101761904Y-48843571D02*
X101714285Y-48653095D01*
X101714285Y-48653095D02*
X101666666Y-48557857D01*
X101666666Y-48557857D02*
X101619047Y-48510238D01*
X101619047Y-48510238D02*
X101523809Y-48462619D01*
%TO.C,MX30*%
X194761904Y-83462619D02*
X194761904Y-82462619D01*
X194761904Y-82462619D02*
X194428571Y-83176904D01*
X194428571Y-83176904D02*
X194095238Y-82462619D01*
X194095238Y-82462619D02*
X194095238Y-83462619D01*
X193714285Y-82462619D02*
X193047619Y-83462619D01*
X193047619Y-82462619D02*
X193714285Y-83462619D01*
X192761904Y-82462619D02*
X192142857Y-82462619D01*
X192142857Y-82462619D02*
X192476190Y-82843571D01*
X192476190Y-82843571D02*
X192333333Y-82843571D01*
X192333333Y-82843571D02*
X192238095Y-82891190D01*
X192238095Y-82891190D02*
X192190476Y-82938809D01*
X192190476Y-82938809D02*
X192142857Y-83034047D01*
X192142857Y-83034047D02*
X192142857Y-83272142D01*
X192142857Y-83272142D02*
X192190476Y-83367380D01*
X192190476Y-83367380D02*
X192238095Y-83415000D01*
X192238095Y-83415000D02*
X192333333Y-83462619D01*
X192333333Y-83462619D02*
X192619047Y-83462619D01*
X192619047Y-83462619D02*
X192714285Y-83415000D01*
X192714285Y-83415000D02*
X192761904Y-83367380D01*
X191523809Y-82462619D02*
X191428571Y-82462619D01*
X191428571Y-82462619D02*
X191333333Y-82510238D01*
X191333333Y-82510238D02*
X191285714Y-82557857D01*
X191285714Y-82557857D02*
X191238095Y-82653095D01*
X191238095Y-82653095D02*
X191190476Y-82843571D01*
X191190476Y-82843571D02*
X191190476Y-83081666D01*
X191190476Y-83081666D02*
X191238095Y-83272142D01*
X191238095Y-83272142D02*
X191285714Y-83367380D01*
X191285714Y-83367380D02*
X191333333Y-83415000D01*
X191333333Y-83415000D02*
X191428571Y-83462619D01*
X191428571Y-83462619D02*
X191523809Y-83462619D01*
X191523809Y-83462619D02*
X191619047Y-83415000D01*
X191619047Y-83415000D02*
X191666666Y-83367380D01*
X191666666Y-83367380D02*
X191714285Y-83272142D01*
X191714285Y-83272142D02*
X191761904Y-83081666D01*
X191761904Y-83081666D02*
X191761904Y-82843571D01*
X191761904Y-82843571D02*
X191714285Y-82653095D01*
X191714285Y-82653095D02*
X191666666Y-82557857D01*
X191666666Y-82557857D02*
X191619047Y-82510238D01*
X191619047Y-82510238D02*
X191523809Y-82462619D01*
%TO.C,MX34*%
X122761904Y-66462619D02*
X122761904Y-65462619D01*
X122761904Y-65462619D02*
X122428571Y-66176904D01*
X122428571Y-66176904D02*
X122095238Y-65462619D01*
X122095238Y-65462619D02*
X122095238Y-66462619D01*
X121714285Y-65462619D02*
X121047619Y-66462619D01*
X121047619Y-65462619D02*
X121714285Y-66462619D01*
X120761904Y-65462619D02*
X120142857Y-65462619D01*
X120142857Y-65462619D02*
X120476190Y-65843571D01*
X120476190Y-65843571D02*
X120333333Y-65843571D01*
X120333333Y-65843571D02*
X120238095Y-65891190D01*
X120238095Y-65891190D02*
X120190476Y-65938809D01*
X120190476Y-65938809D02*
X120142857Y-66034047D01*
X120142857Y-66034047D02*
X120142857Y-66272142D01*
X120142857Y-66272142D02*
X120190476Y-66367380D01*
X120190476Y-66367380D02*
X120238095Y-66415000D01*
X120238095Y-66415000D02*
X120333333Y-66462619D01*
X120333333Y-66462619D02*
X120619047Y-66462619D01*
X120619047Y-66462619D02*
X120714285Y-66415000D01*
X120714285Y-66415000D02*
X120761904Y-66367380D01*
X119285714Y-65795952D02*
X119285714Y-66462619D01*
X119523809Y-65415000D02*
X119761904Y-66129285D01*
X119761904Y-66129285D02*
X119142857Y-66129285D01*
%TO.C,MX3*%
X68285713Y-32462619D02*
X68285713Y-31462619D01*
X68285713Y-31462619D02*
X67952380Y-32176904D01*
X67952380Y-32176904D02*
X67619047Y-31462619D01*
X67619047Y-31462619D02*
X67619047Y-32462619D01*
X67238094Y-31462619D02*
X66571428Y-32462619D01*
X66571428Y-31462619D02*
X67238094Y-32462619D01*
X66285713Y-31462619D02*
X65666666Y-31462619D01*
X65666666Y-31462619D02*
X65999999Y-31843571D01*
X65999999Y-31843571D02*
X65857142Y-31843571D01*
X65857142Y-31843571D02*
X65761904Y-31891190D01*
X65761904Y-31891190D02*
X65714285Y-31938809D01*
X65714285Y-31938809D02*
X65666666Y-32034047D01*
X65666666Y-32034047D02*
X65666666Y-32272142D01*
X65666666Y-32272142D02*
X65714285Y-32367380D01*
X65714285Y-32367380D02*
X65761904Y-32415000D01*
X65761904Y-32415000D02*
X65857142Y-32462619D01*
X65857142Y-32462619D02*
X66142856Y-32462619D01*
X66142856Y-32462619D02*
X66238094Y-32415000D01*
X66238094Y-32415000D02*
X66285713Y-32367380D01*
%TO.C,MX21*%
X176761904Y-40962619D02*
X176761904Y-39962619D01*
X176761904Y-39962619D02*
X176428571Y-40676904D01*
X176428571Y-40676904D02*
X176095238Y-39962619D01*
X176095238Y-39962619D02*
X176095238Y-40962619D01*
X175714285Y-39962619D02*
X175047619Y-40962619D01*
X175047619Y-39962619D02*
X175714285Y-40962619D01*
X174714285Y-40057857D02*
X174666666Y-40010238D01*
X174666666Y-40010238D02*
X174571428Y-39962619D01*
X174571428Y-39962619D02*
X174333333Y-39962619D01*
X174333333Y-39962619D02*
X174238095Y-40010238D01*
X174238095Y-40010238D02*
X174190476Y-40057857D01*
X174190476Y-40057857D02*
X174142857Y-40153095D01*
X174142857Y-40153095D02*
X174142857Y-40248333D01*
X174142857Y-40248333D02*
X174190476Y-40391190D01*
X174190476Y-40391190D02*
X174761904Y-40962619D01*
X174761904Y-40962619D02*
X174142857Y-40962619D01*
X173190476Y-40962619D02*
X173761904Y-40962619D01*
X173476190Y-40962619D02*
X173476190Y-39962619D01*
X173476190Y-39962619D02*
X173571428Y-40105476D01*
X173571428Y-40105476D02*
X173666666Y-40200714D01*
X173666666Y-40200714D02*
X173761904Y-40248333D01*
%TO.C,MX20*%
X194761904Y-49462619D02*
X194761904Y-48462619D01*
X194761904Y-48462619D02*
X194428571Y-49176904D01*
X194428571Y-49176904D02*
X194095238Y-48462619D01*
X194095238Y-48462619D02*
X194095238Y-49462619D01*
X193714285Y-48462619D02*
X193047619Y-49462619D01*
X193047619Y-48462619D02*
X193714285Y-49462619D01*
X192714285Y-48557857D02*
X192666666Y-48510238D01*
X192666666Y-48510238D02*
X192571428Y-48462619D01*
X192571428Y-48462619D02*
X192333333Y-48462619D01*
X192333333Y-48462619D02*
X192238095Y-48510238D01*
X192238095Y-48510238D02*
X192190476Y-48557857D01*
X192190476Y-48557857D02*
X192142857Y-48653095D01*
X192142857Y-48653095D02*
X192142857Y-48748333D01*
X192142857Y-48748333D02*
X192190476Y-48891190D01*
X192190476Y-48891190D02*
X192761904Y-49462619D01*
X192761904Y-49462619D02*
X192142857Y-49462619D01*
X191523809Y-48462619D02*
X191428571Y-48462619D01*
X191428571Y-48462619D02*
X191333333Y-48510238D01*
X191333333Y-48510238D02*
X191285714Y-48557857D01*
X191285714Y-48557857D02*
X191238095Y-48653095D01*
X191238095Y-48653095D02*
X191190476Y-48843571D01*
X191190476Y-48843571D02*
X191190476Y-49081666D01*
X191190476Y-49081666D02*
X191238095Y-49272142D01*
X191238095Y-49272142D02*
X191285714Y-49367380D01*
X191285714Y-49367380D02*
X191333333Y-49415000D01*
X191333333Y-49415000D02*
X191428571Y-49462619D01*
X191428571Y-49462619D02*
X191523809Y-49462619D01*
X191523809Y-49462619D02*
X191619047Y-49415000D01*
X191619047Y-49415000D02*
X191666666Y-49367380D01*
X191666666Y-49367380D02*
X191714285Y-49272142D01*
X191714285Y-49272142D02*
X191761904Y-49081666D01*
X191761904Y-49081666D02*
X191761904Y-48843571D01*
X191761904Y-48843571D02*
X191714285Y-48653095D01*
X191714285Y-48653095D02*
X191666666Y-48557857D01*
X191666666Y-48557857D02*
X191619047Y-48510238D01*
X191619047Y-48510238D02*
X191523809Y-48462619D01*
%TO.C,MX7*%
X50285713Y-57962619D02*
X50285713Y-56962619D01*
X50285713Y-56962619D02*
X49952380Y-57676904D01*
X49952380Y-57676904D02*
X49619047Y-56962619D01*
X49619047Y-56962619D02*
X49619047Y-57962619D01*
X49238094Y-56962619D02*
X48571428Y-57962619D01*
X48571428Y-56962619D02*
X49238094Y-57962619D01*
X48285713Y-56962619D02*
X47619047Y-56962619D01*
X47619047Y-56962619D02*
X48047618Y-57962619D01*
%TO.C,MX32*%
X158761904Y-66462619D02*
X158761904Y-65462619D01*
X158761904Y-65462619D02*
X158428571Y-66176904D01*
X158428571Y-66176904D02*
X158095238Y-65462619D01*
X158095238Y-65462619D02*
X158095238Y-66462619D01*
X157714285Y-65462619D02*
X157047619Y-66462619D01*
X157047619Y-65462619D02*
X157714285Y-66462619D01*
X156761904Y-65462619D02*
X156142857Y-65462619D01*
X156142857Y-65462619D02*
X156476190Y-65843571D01*
X156476190Y-65843571D02*
X156333333Y-65843571D01*
X156333333Y-65843571D02*
X156238095Y-65891190D01*
X156238095Y-65891190D02*
X156190476Y-65938809D01*
X156190476Y-65938809D02*
X156142857Y-66034047D01*
X156142857Y-66034047D02*
X156142857Y-66272142D01*
X156142857Y-66272142D02*
X156190476Y-66367380D01*
X156190476Y-66367380D02*
X156238095Y-66415000D01*
X156238095Y-66415000D02*
X156333333Y-66462619D01*
X156333333Y-66462619D02*
X156619047Y-66462619D01*
X156619047Y-66462619D02*
X156714285Y-66415000D01*
X156714285Y-66415000D02*
X156761904Y-66367380D01*
X155761904Y-65557857D02*
X155714285Y-65510238D01*
X155714285Y-65510238D02*
X155619047Y-65462619D01*
X155619047Y-65462619D02*
X155380952Y-65462619D01*
X155380952Y-65462619D02*
X155285714Y-65510238D01*
X155285714Y-65510238D02*
X155238095Y-65557857D01*
X155238095Y-65557857D02*
X155190476Y-65653095D01*
X155190476Y-65653095D02*
X155190476Y-65748333D01*
X155190476Y-65748333D02*
X155238095Y-65891190D01*
X155238095Y-65891190D02*
X155809523Y-66462619D01*
X155809523Y-66462619D02*
X155190476Y-66462619D01*
%TO.C,MX13*%
X68761904Y-66462619D02*
X68761904Y-65462619D01*
X68761904Y-65462619D02*
X68428571Y-66176904D01*
X68428571Y-66176904D02*
X68095238Y-65462619D01*
X68095238Y-65462619D02*
X68095238Y-66462619D01*
X67714285Y-65462619D02*
X67047619Y-66462619D01*
X67047619Y-65462619D02*
X67714285Y-66462619D01*
X66142857Y-66462619D02*
X66714285Y-66462619D01*
X66428571Y-66462619D02*
X66428571Y-65462619D01*
X66428571Y-65462619D02*
X66523809Y-65605476D01*
X66523809Y-65605476D02*
X66619047Y-65700714D01*
X66619047Y-65700714D02*
X66714285Y-65748333D01*
X65809523Y-65462619D02*
X65190476Y-65462619D01*
X65190476Y-65462619D02*
X65523809Y-65843571D01*
X65523809Y-65843571D02*
X65380952Y-65843571D01*
X65380952Y-65843571D02*
X65285714Y-65891190D01*
X65285714Y-65891190D02*
X65238095Y-65938809D01*
X65238095Y-65938809D02*
X65190476Y-66034047D01*
X65190476Y-66034047D02*
X65190476Y-66272142D01*
X65190476Y-66272142D02*
X65238095Y-66367380D01*
X65238095Y-66367380D02*
X65285714Y-66415000D01*
X65285714Y-66415000D02*
X65380952Y-66462619D01*
X65380952Y-66462619D02*
X65666666Y-66462619D01*
X65666666Y-66462619D02*
X65761904Y-66415000D01*
X65761904Y-66415000D02*
X65809523Y-66367380D01*
%TO.C,MX35*%
X158761904Y-83462619D02*
X158761904Y-82462619D01*
X158761904Y-82462619D02*
X158428571Y-83176904D01*
X158428571Y-83176904D02*
X158095238Y-82462619D01*
X158095238Y-82462619D02*
X158095238Y-83462619D01*
X157714285Y-82462619D02*
X157047619Y-83462619D01*
X157047619Y-82462619D02*
X157714285Y-83462619D01*
X156761904Y-82462619D02*
X156142857Y-82462619D01*
X156142857Y-82462619D02*
X156476190Y-82843571D01*
X156476190Y-82843571D02*
X156333333Y-82843571D01*
X156333333Y-82843571D02*
X156238095Y-82891190D01*
X156238095Y-82891190D02*
X156190476Y-82938809D01*
X156190476Y-82938809D02*
X156142857Y-83034047D01*
X156142857Y-83034047D02*
X156142857Y-83272142D01*
X156142857Y-83272142D02*
X156190476Y-83367380D01*
X156190476Y-83367380D02*
X156238095Y-83415000D01*
X156238095Y-83415000D02*
X156333333Y-83462619D01*
X156333333Y-83462619D02*
X156619047Y-83462619D01*
X156619047Y-83462619D02*
X156714285Y-83415000D01*
X156714285Y-83415000D02*
X156761904Y-83367380D01*
X155238095Y-82462619D02*
X155714285Y-82462619D01*
X155714285Y-82462619D02*
X155761904Y-82938809D01*
X155761904Y-82938809D02*
X155714285Y-82891190D01*
X155714285Y-82891190D02*
X155619047Y-82843571D01*
X155619047Y-82843571D02*
X155380952Y-82843571D01*
X155380952Y-82843571D02*
X155285714Y-82891190D01*
X155285714Y-82891190D02*
X155238095Y-82938809D01*
X155238095Y-82938809D02*
X155190476Y-83034047D01*
X155190476Y-83034047D02*
X155190476Y-83272142D01*
X155190476Y-83272142D02*
X155238095Y-83367380D01*
X155238095Y-83367380D02*
X155285714Y-83415000D01*
X155285714Y-83415000D02*
X155380952Y-83462619D01*
X155380952Y-83462619D02*
X155619047Y-83462619D01*
X155619047Y-83462619D02*
X155714285Y-83415000D01*
X155714285Y-83415000D02*
X155761904Y-83367380D01*
%TO.C,MX33*%
X140761904Y-66462619D02*
X140761904Y-65462619D01*
X140761904Y-65462619D02*
X140428571Y-66176904D01*
X140428571Y-66176904D02*
X140095238Y-65462619D01*
X140095238Y-65462619D02*
X140095238Y-66462619D01*
X139714285Y-65462619D02*
X139047619Y-66462619D01*
X139047619Y-65462619D02*
X139714285Y-66462619D01*
X138761904Y-65462619D02*
X138142857Y-65462619D01*
X138142857Y-65462619D02*
X138476190Y-65843571D01*
X138476190Y-65843571D02*
X138333333Y-65843571D01*
X138333333Y-65843571D02*
X138238095Y-65891190D01*
X138238095Y-65891190D02*
X138190476Y-65938809D01*
X138190476Y-65938809D02*
X138142857Y-66034047D01*
X138142857Y-66034047D02*
X138142857Y-66272142D01*
X138142857Y-66272142D02*
X138190476Y-66367380D01*
X138190476Y-66367380D02*
X138238095Y-66415000D01*
X138238095Y-66415000D02*
X138333333Y-66462619D01*
X138333333Y-66462619D02*
X138619047Y-66462619D01*
X138619047Y-66462619D02*
X138714285Y-66415000D01*
X138714285Y-66415000D02*
X138761904Y-66367380D01*
X137809523Y-65462619D02*
X137190476Y-65462619D01*
X137190476Y-65462619D02*
X137523809Y-65843571D01*
X137523809Y-65843571D02*
X137380952Y-65843571D01*
X137380952Y-65843571D02*
X137285714Y-65891190D01*
X137285714Y-65891190D02*
X137238095Y-65938809D01*
X137238095Y-65938809D02*
X137190476Y-66034047D01*
X137190476Y-66034047D02*
X137190476Y-66272142D01*
X137190476Y-66272142D02*
X137238095Y-66367380D01*
X137238095Y-66367380D02*
X137285714Y-66415000D01*
X137285714Y-66415000D02*
X137380952Y-66462619D01*
X137380952Y-66462619D02*
X137666666Y-66462619D01*
X137666666Y-66462619D02*
X137761904Y-66415000D01*
X137761904Y-66415000D02*
X137809523Y-66367380D01*
%TO.C,MX25*%
X194761904Y-66462619D02*
X194761904Y-65462619D01*
X194761904Y-65462619D02*
X194428571Y-66176904D01*
X194428571Y-66176904D02*
X194095238Y-65462619D01*
X194095238Y-65462619D02*
X194095238Y-66462619D01*
X193714285Y-65462619D02*
X193047619Y-66462619D01*
X193047619Y-65462619D02*
X193714285Y-66462619D01*
X192714285Y-65557857D02*
X192666666Y-65510238D01*
X192666666Y-65510238D02*
X192571428Y-65462619D01*
X192571428Y-65462619D02*
X192333333Y-65462619D01*
X192333333Y-65462619D02*
X192238095Y-65510238D01*
X192238095Y-65510238D02*
X192190476Y-65557857D01*
X192190476Y-65557857D02*
X192142857Y-65653095D01*
X192142857Y-65653095D02*
X192142857Y-65748333D01*
X192142857Y-65748333D02*
X192190476Y-65891190D01*
X192190476Y-65891190D02*
X192761904Y-66462619D01*
X192761904Y-66462619D02*
X192142857Y-66462619D01*
X191238095Y-65462619D02*
X191714285Y-65462619D01*
X191714285Y-65462619D02*
X191761904Y-65938809D01*
X191761904Y-65938809D02*
X191714285Y-65891190D01*
X191714285Y-65891190D02*
X191619047Y-65843571D01*
X191619047Y-65843571D02*
X191380952Y-65843571D01*
X191380952Y-65843571D02*
X191285714Y-65891190D01*
X191285714Y-65891190D02*
X191238095Y-65938809D01*
X191238095Y-65938809D02*
X191190476Y-66034047D01*
X191190476Y-66034047D02*
X191190476Y-66272142D01*
X191190476Y-66272142D02*
X191238095Y-66367380D01*
X191238095Y-66367380D02*
X191285714Y-66415000D01*
X191285714Y-66415000D02*
X191380952Y-66462619D01*
X191380952Y-66462619D02*
X191619047Y-66462619D01*
X191619047Y-66462619D02*
X191714285Y-66415000D01*
X191714285Y-66415000D02*
X191761904Y-66367380D01*
%TO.C,MX14*%
X86761904Y-66462619D02*
X86761904Y-65462619D01*
X86761904Y-65462619D02*
X86428571Y-66176904D01*
X86428571Y-66176904D02*
X86095238Y-65462619D01*
X86095238Y-65462619D02*
X86095238Y-66462619D01*
X85714285Y-65462619D02*
X85047619Y-66462619D01*
X85047619Y-65462619D02*
X85714285Y-66462619D01*
X84142857Y-66462619D02*
X84714285Y-66462619D01*
X84428571Y-66462619D02*
X84428571Y-65462619D01*
X84428571Y-65462619D02*
X84523809Y-65605476D01*
X84523809Y-65605476D02*
X84619047Y-65700714D01*
X84619047Y-65700714D02*
X84714285Y-65748333D01*
X83285714Y-65795952D02*
X83285714Y-66462619D01*
X83523809Y-65415000D02*
X83761904Y-66129285D01*
X83761904Y-66129285D02*
X83142857Y-66129285D01*
%TO.C,MX1*%
X32285713Y-49462619D02*
X32285713Y-48462619D01*
X32285713Y-48462619D02*
X31952380Y-49176904D01*
X31952380Y-49176904D02*
X31619047Y-48462619D01*
X31619047Y-48462619D02*
X31619047Y-49462619D01*
X31238094Y-48462619D02*
X30571428Y-49462619D01*
X30571428Y-48462619D02*
X31238094Y-49462619D01*
X29666666Y-49462619D02*
X30238094Y-49462619D01*
X29952380Y-49462619D02*
X29952380Y-48462619D01*
X29952380Y-48462619D02*
X30047618Y-48605476D01*
X30047618Y-48605476D02*
X30142856Y-48700714D01*
X30142856Y-48700714D02*
X30238094Y-48748333D01*
%TO.C,MX8*%
X68285713Y-49462619D02*
X68285713Y-48462619D01*
X68285713Y-48462619D02*
X67952380Y-49176904D01*
X67952380Y-49176904D02*
X67619047Y-48462619D01*
X67619047Y-48462619D02*
X67619047Y-49462619D01*
X67238094Y-48462619D02*
X66571428Y-49462619D01*
X66571428Y-48462619D02*
X67238094Y-49462619D01*
X66047618Y-48891190D02*
X66142856Y-48843571D01*
X66142856Y-48843571D02*
X66190475Y-48795952D01*
X66190475Y-48795952D02*
X66238094Y-48700714D01*
X66238094Y-48700714D02*
X66238094Y-48653095D01*
X66238094Y-48653095D02*
X66190475Y-48557857D01*
X66190475Y-48557857D02*
X66142856Y-48510238D01*
X66142856Y-48510238D02*
X66047618Y-48462619D01*
X66047618Y-48462619D02*
X65857142Y-48462619D01*
X65857142Y-48462619D02*
X65761904Y-48510238D01*
X65761904Y-48510238D02*
X65714285Y-48557857D01*
X65714285Y-48557857D02*
X65666666Y-48653095D01*
X65666666Y-48653095D02*
X65666666Y-48700714D01*
X65666666Y-48700714D02*
X65714285Y-48795952D01*
X65714285Y-48795952D02*
X65761904Y-48843571D01*
X65761904Y-48843571D02*
X65857142Y-48891190D01*
X65857142Y-48891190D02*
X66047618Y-48891190D01*
X66047618Y-48891190D02*
X66142856Y-48938809D01*
X66142856Y-48938809D02*
X66190475Y-48986428D01*
X66190475Y-48986428D02*
X66238094Y-49081666D01*
X66238094Y-49081666D02*
X66238094Y-49272142D01*
X66238094Y-49272142D02*
X66190475Y-49367380D01*
X66190475Y-49367380D02*
X66142856Y-49415000D01*
X66142856Y-49415000D02*
X66047618Y-49462619D01*
X66047618Y-49462619D02*
X65857142Y-49462619D01*
X65857142Y-49462619D02*
X65761904Y-49415000D01*
X65761904Y-49415000D02*
X65714285Y-49367380D01*
X65714285Y-49367380D02*
X65666666Y-49272142D01*
X65666666Y-49272142D02*
X65666666Y-49081666D01*
X65666666Y-49081666D02*
X65714285Y-48986428D01*
X65714285Y-48986428D02*
X65761904Y-48938809D01*
X65761904Y-48938809D02*
X65857142Y-48891190D01*
%TO.C,MX37*%
X122761904Y-83462619D02*
X122761904Y-82462619D01*
X122761904Y-82462619D02*
X122428571Y-83176904D01*
X122428571Y-83176904D02*
X122095238Y-82462619D01*
X122095238Y-82462619D02*
X122095238Y-83462619D01*
X121714285Y-82462619D02*
X121047619Y-83462619D01*
X121047619Y-82462619D02*
X121714285Y-83462619D01*
X120761904Y-82462619D02*
X120142857Y-82462619D01*
X120142857Y-82462619D02*
X120476190Y-82843571D01*
X120476190Y-82843571D02*
X120333333Y-82843571D01*
X120333333Y-82843571D02*
X120238095Y-82891190D01*
X120238095Y-82891190D02*
X120190476Y-82938809D01*
X120190476Y-82938809D02*
X120142857Y-83034047D01*
X120142857Y-83034047D02*
X120142857Y-83272142D01*
X120142857Y-83272142D02*
X120190476Y-83367380D01*
X120190476Y-83367380D02*
X120238095Y-83415000D01*
X120238095Y-83415000D02*
X120333333Y-83462619D01*
X120333333Y-83462619D02*
X120619047Y-83462619D01*
X120619047Y-83462619D02*
X120714285Y-83415000D01*
X120714285Y-83415000D02*
X120761904Y-83367380D01*
X119809523Y-82462619D02*
X119142857Y-82462619D01*
X119142857Y-82462619D02*
X119571428Y-83462619D01*
%TO.C,MX28*%
X140761904Y-49462619D02*
X140761904Y-48462619D01*
X140761904Y-48462619D02*
X140428571Y-49176904D01*
X140428571Y-49176904D02*
X140095238Y-48462619D01*
X140095238Y-48462619D02*
X140095238Y-49462619D01*
X139714285Y-48462619D02*
X139047619Y-49462619D01*
X139047619Y-48462619D02*
X139714285Y-49462619D01*
X138714285Y-48557857D02*
X138666666Y-48510238D01*
X138666666Y-48510238D02*
X138571428Y-48462619D01*
X138571428Y-48462619D02*
X138333333Y-48462619D01*
X138333333Y-48462619D02*
X138238095Y-48510238D01*
X138238095Y-48510238D02*
X138190476Y-48557857D01*
X138190476Y-48557857D02*
X138142857Y-48653095D01*
X138142857Y-48653095D02*
X138142857Y-48748333D01*
X138142857Y-48748333D02*
X138190476Y-48891190D01*
X138190476Y-48891190D02*
X138761904Y-49462619D01*
X138761904Y-49462619D02*
X138142857Y-49462619D01*
X137571428Y-48891190D02*
X137666666Y-48843571D01*
X137666666Y-48843571D02*
X137714285Y-48795952D01*
X137714285Y-48795952D02*
X137761904Y-48700714D01*
X137761904Y-48700714D02*
X137761904Y-48653095D01*
X137761904Y-48653095D02*
X137714285Y-48557857D01*
X137714285Y-48557857D02*
X137666666Y-48510238D01*
X137666666Y-48510238D02*
X137571428Y-48462619D01*
X137571428Y-48462619D02*
X137380952Y-48462619D01*
X137380952Y-48462619D02*
X137285714Y-48510238D01*
X137285714Y-48510238D02*
X137238095Y-48557857D01*
X137238095Y-48557857D02*
X137190476Y-48653095D01*
X137190476Y-48653095D02*
X137190476Y-48700714D01*
X137190476Y-48700714D02*
X137238095Y-48795952D01*
X137238095Y-48795952D02*
X137285714Y-48843571D01*
X137285714Y-48843571D02*
X137380952Y-48891190D01*
X137380952Y-48891190D02*
X137571428Y-48891190D01*
X137571428Y-48891190D02*
X137666666Y-48938809D01*
X137666666Y-48938809D02*
X137714285Y-48986428D01*
X137714285Y-48986428D02*
X137761904Y-49081666D01*
X137761904Y-49081666D02*
X137761904Y-49272142D01*
X137761904Y-49272142D02*
X137714285Y-49367380D01*
X137714285Y-49367380D02*
X137666666Y-49415000D01*
X137666666Y-49415000D02*
X137571428Y-49462619D01*
X137571428Y-49462619D02*
X137380952Y-49462619D01*
X137380952Y-49462619D02*
X137285714Y-49415000D01*
X137285714Y-49415000D02*
X137238095Y-49367380D01*
X137238095Y-49367380D02*
X137190476Y-49272142D01*
X137190476Y-49272142D02*
X137190476Y-49081666D01*
X137190476Y-49081666D02*
X137238095Y-48986428D01*
X137238095Y-48986428D02*
X137285714Y-48938809D01*
X137285714Y-48938809D02*
X137380952Y-48891190D01*
%TO.C,MX9*%
X86285713Y-49462619D02*
X86285713Y-48462619D01*
X86285713Y-48462619D02*
X85952380Y-49176904D01*
X85952380Y-49176904D02*
X85619047Y-48462619D01*
X85619047Y-48462619D02*
X85619047Y-49462619D01*
X85238094Y-48462619D02*
X84571428Y-49462619D01*
X84571428Y-48462619D02*
X85238094Y-49462619D01*
X84142856Y-49462619D02*
X83952380Y-49462619D01*
X83952380Y-49462619D02*
X83857142Y-49415000D01*
X83857142Y-49415000D02*
X83809523Y-49367380D01*
X83809523Y-49367380D02*
X83714285Y-49224523D01*
X83714285Y-49224523D02*
X83666666Y-49034047D01*
X83666666Y-49034047D02*
X83666666Y-48653095D01*
X83666666Y-48653095D02*
X83714285Y-48557857D01*
X83714285Y-48557857D02*
X83761904Y-48510238D01*
X83761904Y-48510238D02*
X83857142Y-48462619D01*
X83857142Y-48462619D02*
X84047618Y-48462619D01*
X84047618Y-48462619D02*
X84142856Y-48510238D01*
X84142856Y-48510238D02*
X84190475Y-48557857D01*
X84190475Y-48557857D02*
X84238094Y-48653095D01*
X84238094Y-48653095D02*
X84238094Y-48891190D01*
X84238094Y-48891190D02*
X84190475Y-48986428D01*
X84190475Y-48986428D02*
X84142856Y-49034047D01*
X84142856Y-49034047D02*
X84047618Y-49081666D01*
X84047618Y-49081666D02*
X83857142Y-49081666D01*
X83857142Y-49081666D02*
X83761904Y-49034047D01*
X83761904Y-49034047D02*
X83714285Y-48986428D01*
X83714285Y-48986428D02*
X83666666Y-48891190D01*
%TO.C,MX23*%
X140761904Y-32462619D02*
X140761904Y-31462619D01*
X140761904Y-31462619D02*
X140428571Y-32176904D01*
X140428571Y-32176904D02*
X140095238Y-31462619D01*
X140095238Y-31462619D02*
X140095238Y-32462619D01*
X139714285Y-31462619D02*
X139047619Y-32462619D01*
X139047619Y-31462619D02*
X139714285Y-32462619D01*
X138714285Y-31557857D02*
X138666666Y-31510238D01*
X138666666Y-31510238D02*
X138571428Y-31462619D01*
X138571428Y-31462619D02*
X138333333Y-31462619D01*
X138333333Y-31462619D02*
X138238095Y-31510238D01*
X138238095Y-31510238D02*
X138190476Y-31557857D01*
X138190476Y-31557857D02*
X138142857Y-31653095D01*
X138142857Y-31653095D02*
X138142857Y-31748333D01*
X138142857Y-31748333D02*
X138190476Y-31891190D01*
X138190476Y-31891190D02*
X138761904Y-32462619D01*
X138761904Y-32462619D02*
X138142857Y-32462619D01*
X137809523Y-31462619D02*
X137190476Y-31462619D01*
X137190476Y-31462619D02*
X137523809Y-31843571D01*
X137523809Y-31843571D02*
X137380952Y-31843571D01*
X137380952Y-31843571D02*
X137285714Y-31891190D01*
X137285714Y-31891190D02*
X137238095Y-31938809D01*
X137238095Y-31938809D02*
X137190476Y-32034047D01*
X137190476Y-32034047D02*
X137190476Y-32272142D01*
X137190476Y-32272142D02*
X137238095Y-32367380D01*
X137238095Y-32367380D02*
X137285714Y-32415000D01*
X137285714Y-32415000D02*
X137380952Y-32462619D01*
X137380952Y-32462619D02*
X137666666Y-32462619D01*
X137666666Y-32462619D02*
X137761904Y-32415000D01*
X137761904Y-32415000D02*
X137809523Y-32367380D01*
%TO.C,MX36*%
X140761904Y-83462619D02*
X140761904Y-82462619D01*
X140761904Y-82462619D02*
X140428571Y-83176904D01*
X140428571Y-83176904D02*
X140095238Y-82462619D01*
X140095238Y-82462619D02*
X140095238Y-83462619D01*
X139714285Y-82462619D02*
X139047619Y-83462619D01*
X139047619Y-82462619D02*
X139714285Y-83462619D01*
X138761904Y-82462619D02*
X138142857Y-82462619D01*
X138142857Y-82462619D02*
X138476190Y-82843571D01*
X138476190Y-82843571D02*
X138333333Y-82843571D01*
X138333333Y-82843571D02*
X138238095Y-82891190D01*
X138238095Y-82891190D02*
X138190476Y-82938809D01*
X138190476Y-82938809D02*
X138142857Y-83034047D01*
X138142857Y-83034047D02*
X138142857Y-83272142D01*
X138142857Y-83272142D02*
X138190476Y-83367380D01*
X138190476Y-83367380D02*
X138238095Y-83415000D01*
X138238095Y-83415000D02*
X138333333Y-83462619D01*
X138333333Y-83462619D02*
X138619047Y-83462619D01*
X138619047Y-83462619D02*
X138714285Y-83415000D01*
X138714285Y-83415000D02*
X138761904Y-83367380D01*
X137285714Y-82462619D02*
X137476190Y-82462619D01*
X137476190Y-82462619D02*
X137571428Y-82510238D01*
X137571428Y-82510238D02*
X137619047Y-82557857D01*
X137619047Y-82557857D02*
X137714285Y-82700714D01*
X137714285Y-82700714D02*
X137761904Y-82891190D01*
X137761904Y-82891190D02*
X137761904Y-83272142D01*
X137761904Y-83272142D02*
X137714285Y-83367380D01*
X137714285Y-83367380D02*
X137666666Y-83415000D01*
X137666666Y-83415000D02*
X137571428Y-83462619D01*
X137571428Y-83462619D02*
X137380952Y-83462619D01*
X137380952Y-83462619D02*
X137285714Y-83415000D01*
X137285714Y-83415000D02*
X137238095Y-83367380D01*
X137238095Y-83367380D02*
X137190476Y-83272142D01*
X137190476Y-83272142D02*
X137190476Y-83034047D01*
X137190476Y-83034047D02*
X137238095Y-82938809D01*
X137238095Y-82938809D02*
X137285714Y-82891190D01*
X137285714Y-82891190D02*
X137380952Y-82843571D01*
X137380952Y-82843571D02*
X137571428Y-82843571D01*
X137571428Y-82843571D02*
X137666666Y-82891190D01*
X137666666Y-82891190D02*
X137714285Y-82938809D01*
X137714285Y-82938809D02*
X137761904Y-83034047D01*
%TO.C,MX17*%
X86761904Y-83462619D02*
X86761904Y-82462619D01*
X86761904Y-82462619D02*
X86428571Y-83176904D01*
X86428571Y-83176904D02*
X86095238Y-82462619D01*
X86095238Y-82462619D02*
X86095238Y-83462619D01*
X85714285Y-82462619D02*
X85047619Y-83462619D01*
X85047619Y-82462619D02*
X85714285Y-83462619D01*
X84142857Y-83462619D02*
X84714285Y-83462619D01*
X84428571Y-83462619D02*
X84428571Y-82462619D01*
X84428571Y-82462619D02*
X84523809Y-82605476D01*
X84523809Y-82605476D02*
X84619047Y-82700714D01*
X84619047Y-82700714D02*
X84714285Y-82748333D01*
X83809523Y-82462619D02*
X83142857Y-82462619D01*
X83142857Y-82462619D02*
X83571428Y-83462619D01*
%TO.C,MX18*%
X104761904Y-83462619D02*
X104761904Y-82462619D01*
X104761904Y-82462619D02*
X104428571Y-83176904D01*
X104428571Y-83176904D02*
X104095238Y-82462619D01*
X104095238Y-82462619D02*
X104095238Y-83462619D01*
X103714285Y-82462619D02*
X103047619Y-83462619D01*
X103047619Y-82462619D02*
X103714285Y-83462619D01*
X102142857Y-83462619D02*
X102714285Y-83462619D01*
X102428571Y-83462619D02*
X102428571Y-82462619D01*
X102428571Y-82462619D02*
X102523809Y-82605476D01*
X102523809Y-82605476D02*
X102619047Y-82700714D01*
X102619047Y-82700714D02*
X102714285Y-82748333D01*
X101571428Y-82891190D02*
X101666666Y-82843571D01*
X101666666Y-82843571D02*
X101714285Y-82795952D01*
X101714285Y-82795952D02*
X101761904Y-82700714D01*
X101761904Y-82700714D02*
X101761904Y-82653095D01*
X101761904Y-82653095D02*
X101714285Y-82557857D01*
X101714285Y-82557857D02*
X101666666Y-82510238D01*
X101666666Y-82510238D02*
X101571428Y-82462619D01*
X101571428Y-82462619D02*
X101380952Y-82462619D01*
X101380952Y-82462619D02*
X101285714Y-82510238D01*
X101285714Y-82510238D02*
X101238095Y-82557857D01*
X101238095Y-82557857D02*
X101190476Y-82653095D01*
X101190476Y-82653095D02*
X101190476Y-82700714D01*
X101190476Y-82700714D02*
X101238095Y-82795952D01*
X101238095Y-82795952D02*
X101285714Y-82843571D01*
X101285714Y-82843571D02*
X101380952Y-82891190D01*
X101380952Y-82891190D02*
X101571428Y-82891190D01*
X101571428Y-82891190D02*
X101666666Y-82938809D01*
X101666666Y-82938809D02*
X101714285Y-82986428D01*
X101714285Y-82986428D02*
X101761904Y-83081666D01*
X101761904Y-83081666D02*
X101761904Y-83272142D01*
X101761904Y-83272142D02*
X101714285Y-83367380D01*
X101714285Y-83367380D02*
X101666666Y-83415000D01*
X101666666Y-83415000D02*
X101571428Y-83462619D01*
X101571428Y-83462619D02*
X101380952Y-83462619D01*
X101380952Y-83462619D02*
X101285714Y-83415000D01*
X101285714Y-83415000D02*
X101238095Y-83367380D01*
X101238095Y-83367380D02*
X101190476Y-83272142D01*
X101190476Y-83272142D02*
X101190476Y-83081666D01*
X101190476Y-83081666D02*
X101238095Y-82986428D01*
X101238095Y-82986428D02*
X101285714Y-82938809D01*
X101285714Y-82938809D02*
X101380952Y-82891190D01*
%TO.C,MX4*%
X86285713Y-32462619D02*
X86285713Y-31462619D01*
X86285713Y-31462619D02*
X85952380Y-32176904D01*
X85952380Y-32176904D02*
X85619047Y-31462619D01*
X85619047Y-31462619D02*
X85619047Y-32462619D01*
X85238094Y-31462619D02*
X84571428Y-32462619D01*
X84571428Y-31462619D02*
X85238094Y-32462619D01*
X83761904Y-31795952D02*
X83761904Y-32462619D01*
X83999999Y-31415000D02*
X84238094Y-32129285D01*
X84238094Y-32129285D02*
X83619047Y-32129285D01*
%TO.C,MX24*%
X122761904Y-32462619D02*
X122761904Y-31462619D01*
X122761904Y-31462619D02*
X122428571Y-32176904D01*
X122428571Y-32176904D02*
X122095238Y-31462619D01*
X122095238Y-31462619D02*
X122095238Y-32462619D01*
X121714285Y-31462619D02*
X121047619Y-32462619D01*
X121047619Y-31462619D02*
X121714285Y-32462619D01*
X120714285Y-31557857D02*
X120666666Y-31510238D01*
X120666666Y-31510238D02*
X120571428Y-31462619D01*
X120571428Y-31462619D02*
X120333333Y-31462619D01*
X120333333Y-31462619D02*
X120238095Y-31510238D01*
X120238095Y-31510238D02*
X120190476Y-31557857D01*
X120190476Y-31557857D02*
X120142857Y-31653095D01*
X120142857Y-31653095D02*
X120142857Y-31748333D01*
X120142857Y-31748333D02*
X120190476Y-31891190D01*
X120190476Y-31891190D02*
X120761904Y-32462619D01*
X120761904Y-32462619D02*
X120142857Y-32462619D01*
X119285714Y-31795952D02*
X119285714Y-32462619D01*
X119523809Y-31415000D02*
X119761904Y-32129285D01*
X119761904Y-32129285D02*
X119142857Y-32129285D01*
%TO.C,MX22*%
X158761904Y-32462619D02*
X158761904Y-31462619D01*
X158761904Y-31462619D02*
X158428571Y-32176904D01*
X158428571Y-32176904D02*
X158095238Y-31462619D01*
X158095238Y-31462619D02*
X158095238Y-32462619D01*
X157714285Y-31462619D02*
X157047619Y-32462619D01*
X157047619Y-31462619D02*
X157714285Y-32462619D01*
X156714285Y-31557857D02*
X156666666Y-31510238D01*
X156666666Y-31510238D02*
X156571428Y-31462619D01*
X156571428Y-31462619D02*
X156333333Y-31462619D01*
X156333333Y-31462619D02*
X156238095Y-31510238D01*
X156238095Y-31510238D02*
X156190476Y-31557857D01*
X156190476Y-31557857D02*
X156142857Y-31653095D01*
X156142857Y-31653095D02*
X156142857Y-31748333D01*
X156142857Y-31748333D02*
X156190476Y-31891190D01*
X156190476Y-31891190D02*
X156761904Y-32462619D01*
X156761904Y-32462619D02*
X156142857Y-32462619D01*
X155761904Y-31557857D02*
X155714285Y-31510238D01*
X155714285Y-31510238D02*
X155619047Y-31462619D01*
X155619047Y-31462619D02*
X155380952Y-31462619D01*
X155380952Y-31462619D02*
X155285714Y-31510238D01*
X155285714Y-31510238D02*
X155238095Y-31557857D01*
X155238095Y-31557857D02*
X155190476Y-31653095D01*
X155190476Y-31653095D02*
X155190476Y-31748333D01*
X155190476Y-31748333D02*
X155238095Y-31891190D01*
X155238095Y-31891190D02*
X155809523Y-32462619D01*
X155809523Y-32462619D02*
X155190476Y-32462619D01*
%TO.C,MX26*%
X176761904Y-57962619D02*
X176761904Y-56962619D01*
X176761904Y-56962619D02*
X176428571Y-57676904D01*
X176428571Y-57676904D02*
X176095238Y-56962619D01*
X176095238Y-56962619D02*
X176095238Y-57962619D01*
X175714285Y-56962619D02*
X175047619Y-57962619D01*
X175047619Y-56962619D02*
X175714285Y-57962619D01*
X174714285Y-57057857D02*
X174666666Y-57010238D01*
X174666666Y-57010238D02*
X174571428Y-56962619D01*
X174571428Y-56962619D02*
X174333333Y-56962619D01*
X174333333Y-56962619D02*
X174238095Y-57010238D01*
X174238095Y-57010238D02*
X174190476Y-57057857D01*
X174190476Y-57057857D02*
X174142857Y-57153095D01*
X174142857Y-57153095D02*
X174142857Y-57248333D01*
X174142857Y-57248333D02*
X174190476Y-57391190D01*
X174190476Y-57391190D02*
X174761904Y-57962619D01*
X174761904Y-57962619D02*
X174142857Y-57962619D01*
X173285714Y-56962619D02*
X173476190Y-56962619D01*
X173476190Y-56962619D02*
X173571428Y-57010238D01*
X173571428Y-57010238D02*
X173619047Y-57057857D01*
X173619047Y-57057857D02*
X173714285Y-57200714D01*
X173714285Y-57200714D02*
X173761904Y-57391190D01*
X173761904Y-57391190D02*
X173761904Y-57772142D01*
X173761904Y-57772142D02*
X173714285Y-57867380D01*
X173714285Y-57867380D02*
X173666666Y-57915000D01*
X173666666Y-57915000D02*
X173571428Y-57962619D01*
X173571428Y-57962619D02*
X173380952Y-57962619D01*
X173380952Y-57962619D02*
X173285714Y-57915000D01*
X173285714Y-57915000D02*
X173238095Y-57867380D01*
X173238095Y-57867380D02*
X173190476Y-57772142D01*
X173190476Y-57772142D02*
X173190476Y-57534047D01*
X173190476Y-57534047D02*
X173238095Y-57438809D01*
X173238095Y-57438809D02*
X173285714Y-57391190D01*
X173285714Y-57391190D02*
X173380952Y-57343571D01*
X173380952Y-57343571D02*
X173571428Y-57343571D01*
X173571428Y-57343571D02*
X173666666Y-57391190D01*
X173666666Y-57391190D02*
X173714285Y-57438809D01*
X173714285Y-57438809D02*
X173761904Y-57534047D01*
%TO.C,D36*%
X140714285Y-91962619D02*
X140714285Y-90962619D01*
X140714285Y-90962619D02*
X140476190Y-90962619D01*
X140476190Y-90962619D02*
X140333333Y-91010238D01*
X140333333Y-91010238D02*
X140238095Y-91105476D01*
X140238095Y-91105476D02*
X140190476Y-91200714D01*
X140190476Y-91200714D02*
X140142857Y-91391190D01*
X140142857Y-91391190D02*
X140142857Y-91534047D01*
X140142857Y-91534047D02*
X140190476Y-91724523D01*
X140190476Y-91724523D02*
X140238095Y-91819761D01*
X140238095Y-91819761D02*
X140333333Y-91915000D01*
X140333333Y-91915000D02*
X140476190Y-91962619D01*
X140476190Y-91962619D02*
X140714285Y-91962619D01*
X139809523Y-90962619D02*
X139190476Y-90962619D01*
X139190476Y-90962619D02*
X139523809Y-91343571D01*
X139523809Y-91343571D02*
X139380952Y-91343571D01*
X139380952Y-91343571D02*
X139285714Y-91391190D01*
X139285714Y-91391190D02*
X139238095Y-91438809D01*
X139238095Y-91438809D02*
X139190476Y-91534047D01*
X139190476Y-91534047D02*
X139190476Y-91772142D01*
X139190476Y-91772142D02*
X139238095Y-91867380D01*
X139238095Y-91867380D02*
X139285714Y-91915000D01*
X139285714Y-91915000D02*
X139380952Y-91962619D01*
X139380952Y-91962619D02*
X139666666Y-91962619D01*
X139666666Y-91962619D02*
X139761904Y-91915000D01*
X139761904Y-91915000D02*
X139809523Y-91867380D01*
X138333333Y-90962619D02*
X138523809Y-90962619D01*
X138523809Y-90962619D02*
X138619047Y-91010238D01*
X138619047Y-91010238D02*
X138666666Y-91057857D01*
X138666666Y-91057857D02*
X138761904Y-91200714D01*
X138761904Y-91200714D02*
X138809523Y-91391190D01*
X138809523Y-91391190D02*
X138809523Y-91772142D01*
X138809523Y-91772142D02*
X138761904Y-91867380D01*
X138761904Y-91867380D02*
X138714285Y-91915000D01*
X138714285Y-91915000D02*
X138619047Y-91962619D01*
X138619047Y-91962619D02*
X138428571Y-91962619D01*
X138428571Y-91962619D02*
X138333333Y-91915000D01*
X138333333Y-91915000D02*
X138285714Y-91867380D01*
X138285714Y-91867380D02*
X138238095Y-91772142D01*
X138238095Y-91772142D02*
X138238095Y-91534047D01*
X138238095Y-91534047D02*
X138285714Y-91438809D01*
X138285714Y-91438809D02*
X138333333Y-91391190D01*
X138333333Y-91391190D02*
X138428571Y-91343571D01*
X138428571Y-91343571D02*
X138619047Y-91343571D01*
X138619047Y-91343571D02*
X138714285Y-91391190D01*
X138714285Y-91391190D02*
X138761904Y-91438809D01*
X138761904Y-91438809D02*
X138809523Y-91534047D01*
%TO.C,D8*%
X68238094Y-57962619D02*
X68238094Y-56962619D01*
X68238094Y-56962619D02*
X67999999Y-56962619D01*
X67999999Y-56962619D02*
X67857142Y-57010238D01*
X67857142Y-57010238D02*
X67761904Y-57105476D01*
X67761904Y-57105476D02*
X67714285Y-57200714D01*
X67714285Y-57200714D02*
X67666666Y-57391190D01*
X67666666Y-57391190D02*
X67666666Y-57534047D01*
X67666666Y-57534047D02*
X67714285Y-57724523D01*
X67714285Y-57724523D02*
X67761904Y-57819761D01*
X67761904Y-57819761D02*
X67857142Y-57915000D01*
X67857142Y-57915000D02*
X67999999Y-57962619D01*
X67999999Y-57962619D02*
X68238094Y-57962619D01*
X67095237Y-57391190D02*
X67190475Y-57343571D01*
X67190475Y-57343571D02*
X67238094Y-57295952D01*
X67238094Y-57295952D02*
X67285713Y-57200714D01*
X67285713Y-57200714D02*
X67285713Y-57153095D01*
X67285713Y-57153095D02*
X67238094Y-57057857D01*
X67238094Y-57057857D02*
X67190475Y-57010238D01*
X67190475Y-57010238D02*
X67095237Y-56962619D01*
X67095237Y-56962619D02*
X66904761Y-56962619D01*
X66904761Y-56962619D02*
X66809523Y-57010238D01*
X66809523Y-57010238D02*
X66761904Y-57057857D01*
X66761904Y-57057857D02*
X66714285Y-57153095D01*
X66714285Y-57153095D02*
X66714285Y-57200714D01*
X66714285Y-57200714D02*
X66761904Y-57295952D01*
X66761904Y-57295952D02*
X66809523Y-57343571D01*
X66809523Y-57343571D02*
X66904761Y-57391190D01*
X66904761Y-57391190D02*
X67095237Y-57391190D01*
X67095237Y-57391190D02*
X67190475Y-57438809D01*
X67190475Y-57438809D02*
X67238094Y-57486428D01*
X67238094Y-57486428D02*
X67285713Y-57581666D01*
X67285713Y-57581666D02*
X67285713Y-57772142D01*
X67285713Y-57772142D02*
X67238094Y-57867380D01*
X67238094Y-57867380D02*
X67190475Y-57915000D01*
X67190475Y-57915000D02*
X67095237Y-57962619D01*
X67095237Y-57962619D02*
X66904761Y-57962619D01*
X66904761Y-57962619D02*
X66809523Y-57915000D01*
X66809523Y-57915000D02*
X66761904Y-57867380D01*
X66761904Y-57867380D02*
X66714285Y-57772142D01*
X66714285Y-57772142D02*
X66714285Y-57581666D01*
X66714285Y-57581666D02*
X66761904Y-57486428D01*
X66761904Y-57486428D02*
X66809523Y-57438809D01*
X66809523Y-57438809D02*
X66904761Y-57391190D01*
%TO.C,D25*%
X194714285Y-74962619D02*
X194714285Y-73962619D01*
X194714285Y-73962619D02*
X194476190Y-73962619D01*
X194476190Y-73962619D02*
X194333333Y-74010238D01*
X194333333Y-74010238D02*
X194238095Y-74105476D01*
X194238095Y-74105476D02*
X194190476Y-74200714D01*
X194190476Y-74200714D02*
X194142857Y-74391190D01*
X194142857Y-74391190D02*
X194142857Y-74534047D01*
X194142857Y-74534047D02*
X194190476Y-74724523D01*
X194190476Y-74724523D02*
X194238095Y-74819761D01*
X194238095Y-74819761D02*
X194333333Y-74915000D01*
X194333333Y-74915000D02*
X194476190Y-74962619D01*
X194476190Y-74962619D02*
X194714285Y-74962619D01*
X193761904Y-74057857D02*
X193714285Y-74010238D01*
X193714285Y-74010238D02*
X193619047Y-73962619D01*
X193619047Y-73962619D02*
X193380952Y-73962619D01*
X193380952Y-73962619D02*
X193285714Y-74010238D01*
X193285714Y-74010238D02*
X193238095Y-74057857D01*
X193238095Y-74057857D02*
X193190476Y-74153095D01*
X193190476Y-74153095D02*
X193190476Y-74248333D01*
X193190476Y-74248333D02*
X193238095Y-74391190D01*
X193238095Y-74391190D02*
X193809523Y-74962619D01*
X193809523Y-74962619D02*
X193190476Y-74962619D01*
X192285714Y-73962619D02*
X192761904Y-73962619D01*
X192761904Y-73962619D02*
X192809523Y-74438809D01*
X192809523Y-74438809D02*
X192761904Y-74391190D01*
X192761904Y-74391190D02*
X192666666Y-74343571D01*
X192666666Y-74343571D02*
X192428571Y-74343571D01*
X192428571Y-74343571D02*
X192333333Y-74391190D01*
X192333333Y-74391190D02*
X192285714Y-74438809D01*
X192285714Y-74438809D02*
X192238095Y-74534047D01*
X192238095Y-74534047D02*
X192238095Y-74772142D01*
X192238095Y-74772142D02*
X192285714Y-74867380D01*
X192285714Y-74867380D02*
X192333333Y-74915000D01*
X192333333Y-74915000D02*
X192428571Y-74962619D01*
X192428571Y-74962619D02*
X192666666Y-74962619D01*
X192666666Y-74962619D02*
X192761904Y-74915000D01*
X192761904Y-74915000D02*
X192809523Y-74867380D01*
%TO.C,J2*%
X177812619Y-28566666D02*
X178526904Y-28566666D01*
X178526904Y-28566666D02*
X178669761Y-28519047D01*
X178669761Y-28519047D02*
X178765000Y-28423809D01*
X178765000Y-28423809D02*
X178812619Y-28280952D01*
X178812619Y-28280952D02*
X178812619Y-28185714D01*
X177907857Y-28995238D02*
X177860238Y-29042857D01*
X177860238Y-29042857D02*
X177812619Y-29138095D01*
X177812619Y-29138095D02*
X177812619Y-29376190D01*
X177812619Y-29376190D02*
X177860238Y-29471428D01*
X177860238Y-29471428D02*
X177907857Y-29519047D01*
X177907857Y-29519047D02*
X178003095Y-29566666D01*
X178003095Y-29566666D02*
X178098333Y-29566666D01*
X178098333Y-29566666D02*
X178241190Y-29519047D01*
X178241190Y-29519047D02*
X178812619Y-28947619D01*
X178812619Y-28947619D02*
X178812619Y-29566666D01*
%TO.C,D27*%
X158714285Y-57962619D02*
X158714285Y-56962619D01*
X158714285Y-56962619D02*
X158476190Y-56962619D01*
X158476190Y-56962619D02*
X158333333Y-57010238D01*
X158333333Y-57010238D02*
X158238095Y-57105476D01*
X158238095Y-57105476D02*
X158190476Y-57200714D01*
X158190476Y-57200714D02*
X158142857Y-57391190D01*
X158142857Y-57391190D02*
X158142857Y-57534047D01*
X158142857Y-57534047D02*
X158190476Y-57724523D01*
X158190476Y-57724523D02*
X158238095Y-57819761D01*
X158238095Y-57819761D02*
X158333333Y-57915000D01*
X158333333Y-57915000D02*
X158476190Y-57962619D01*
X158476190Y-57962619D02*
X158714285Y-57962619D01*
X157761904Y-57057857D02*
X157714285Y-57010238D01*
X157714285Y-57010238D02*
X157619047Y-56962619D01*
X157619047Y-56962619D02*
X157380952Y-56962619D01*
X157380952Y-56962619D02*
X157285714Y-57010238D01*
X157285714Y-57010238D02*
X157238095Y-57057857D01*
X157238095Y-57057857D02*
X157190476Y-57153095D01*
X157190476Y-57153095D02*
X157190476Y-57248333D01*
X157190476Y-57248333D02*
X157238095Y-57391190D01*
X157238095Y-57391190D02*
X157809523Y-57962619D01*
X157809523Y-57962619D02*
X157190476Y-57962619D01*
X156857142Y-56962619D02*
X156190476Y-56962619D01*
X156190476Y-56962619D02*
X156619047Y-57962619D01*
%TO.C,D12*%
X49712619Y-85910714D02*
X48712619Y-85910714D01*
X48712619Y-85910714D02*
X48712619Y-86148809D01*
X48712619Y-86148809D02*
X48760238Y-86291666D01*
X48760238Y-86291666D02*
X48855476Y-86386904D01*
X48855476Y-86386904D02*
X48950714Y-86434523D01*
X48950714Y-86434523D02*
X49141190Y-86482142D01*
X49141190Y-86482142D02*
X49284047Y-86482142D01*
X49284047Y-86482142D02*
X49474523Y-86434523D01*
X49474523Y-86434523D02*
X49569761Y-86386904D01*
X49569761Y-86386904D02*
X49665000Y-86291666D01*
X49665000Y-86291666D02*
X49712619Y-86148809D01*
X49712619Y-86148809D02*
X49712619Y-85910714D01*
X49712619Y-87434523D02*
X49712619Y-86863095D01*
X49712619Y-87148809D02*
X48712619Y-87148809D01*
X48712619Y-87148809D02*
X48855476Y-87053571D01*
X48855476Y-87053571D02*
X48950714Y-86958333D01*
X48950714Y-86958333D02*
X48998333Y-86863095D01*
X48807857Y-87815476D02*
X48760238Y-87863095D01*
X48760238Y-87863095D02*
X48712619Y-87958333D01*
X48712619Y-87958333D02*
X48712619Y-88196428D01*
X48712619Y-88196428D02*
X48760238Y-88291666D01*
X48760238Y-88291666D02*
X48807857Y-88339285D01*
X48807857Y-88339285D02*
X48903095Y-88386904D01*
X48903095Y-88386904D02*
X48998333Y-88386904D01*
X48998333Y-88386904D02*
X49141190Y-88339285D01*
X49141190Y-88339285D02*
X49712619Y-87767857D01*
X49712619Y-87767857D02*
X49712619Y-88386904D01*
%TO.C,D1*%
X32238094Y-57962619D02*
X32238094Y-56962619D01*
X32238094Y-56962619D02*
X31999999Y-56962619D01*
X31999999Y-56962619D02*
X31857142Y-57010238D01*
X31857142Y-57010238D02*
X31761904Y-57105476D01*
X31761904Y-57105476D02*
X31714285Y-57200714D01*
X31714285Y-57200714D02*
X31666666Y-57391190D01*
X31666666Y-57391190D02*
X31666666Y-57534047D01*
X31666666Y-57534047D02*
X31714285Y-57724523D01*
X31714285Y-57724523D02*
X31761904Y-57819761D01*
X31761904Y-57819761D02*
X31857142Y-57915000D01*
X31857142Y-57915000D02*
X31999999Y-57962619D01*
X31999999Y-57962619D02*
X32238094Y-57962619D01*
X30714285Y-57962619D02*
X31285713Y-57962619D01*
X30999999Y-57962619D02*
X30999999Y-56962619D01*
X30999999Y-56962619D02*
X31095237Y-57105476D01*
X31095237Y-57105476D02*
X31190475Y-57200714D01*
X31190475Y-57200714D02*
X31285713Y-57248333D01*
%TO.C,C6*%
X180316666Y-33167380D02*
X180364285Y-33215000D01*
X180364285Y-33215000D02*
X180507142Y-33262619D01*
X180507142Y-33262619D02*
X180602380Y-33262619D01*
X180602380Y-33262619D02*
X180745237Y-33215000D01*
X180745237Y-33215000D02*
X180840475Y-33119761D01*
X180840475Y-33119761D02*
X180888094Y-33024523D01*
X180888094Y-33024523D02*
X180935713Y-32834047D01*
X180935713Y-32834047D02*
X180935713Y-32691190D01*
X180935713Y-32691190D02*
X180888094Y-32500714D01*
X180888094Y-32500714D02*
X180840475Y-32405476D01*
X180840475Y-32405476D02*
X180745237Y-32310238D01*
X180745237Y-32310238D02*
X180602380Y-32262619D01*
X180602380Y-32262619D02*
X180507142Y-32262619D01*
X180507142Y-32262619D02*
X180364285Y-32310238D01*
X180364285Y-32310238D02*
X180316666Y-32357857D01*
X179459523Y-32262619D02*
X179649999Y-32262619D01*
X179649999Y-32262619D02*
X179745237Y-32310238D01*
X179745237Y-32310238D02*
X179792856Y-32357857D01*
X179792856Y-32357857D02*
X179888094Y-32500714D01*
X179888094Y-32500714D02*
X179935713Y-32691190D01*
X179935713Y-32691190D02*
X179935713Y-33072142D01*
X179935713Y-33072142D02*
X179888094Y-33167380D01*
X179888094Y-33167380D02*
X179840475Y-33215000D01*
X179840475Y-33215000D02*
X179745237Y-33262619D01*
X179745237Y-33262619D02*
X179554761Y-33262619D01*
X179554761Y-33262619D02*
X179459523Y-33215000D01*
X179459523Y-33215000D02*
X179411904Y-33167380D01*
X179411904Y-33167380D02*
X179364285Y-33072142D01*
X179364285Y-33072142D02*
X179364285Y-32834047D01*
X179364285Y-32834047D02*
X179411904Y-32738809D01*
X179411904Y-32738809D02*
X179459523Y-32691190D01*
X179459523Y-32691190D02*
X179554761Y-32643571D01*
X179554761Y-32643571D02*
X179745237Y-32643571D01*
X179745237Y-32643571D02*
X179840475Y-32691190D01*
X179840475Y-32691190D02*
X179888094Y-32738809D01*
X179888094Y-32738809D02*
X179935713Y-32834047D01*
%TO.C,D6*%
X32238094Y-74962619D02*
X32238094Y-73962619D01*
X32238094Y-73962619D02*
X31999999Y-73962619D01*
X31999999Y-73962619D02*
X31857142Y-74010238D01*
X31857142Y-74010238D02*
X31761904Y-74105476D01*
X31761904Y-74105476D02*
X31714285Y-74200714D01*
X31714285Y-74200714D02*
X31666666Y-74391190D01*
X31666666Y-74391190D02*
X31666666Y-74534047D01*
X31666666Y-74534047D02*
X31714285Y-74724523D01*
X31714285Y-74724523D02*
X31761904Y-74819761D01*
X31761904Y-74819761D02*
X31857142Y-74915000D01*
X31857142Y-74915000D02*
X31999999Y-74962619D01*
X31999999Y-74962619D02*
X32238094Y-74962619D01*
X30809523Y-73962619D02*
X30999999Y-73962619D01*
X30999999Y-73962619D02*
X31095237Y-74010238D01*
X31095237Y-74010238D02*
X31142856Y-74057857D01*
X31142856Y-74057857D02*
X31238094Y-74200714D01*
X31238094Y-74200714D02*
X31285713Y-74391190D01*
X31285713Y-74391190D02*
X31285713Y-74772142D01*
X31285713Y-74772142D02*
X31238094Y-74867380D01*
X31238094Y-74867380D02*
X31190475Y-74915000D01*
X31190475Y-74915000D02*
X31095237Y-74962619D01*
X31095237Y-74962619D02*
X30904761Y-74962619D01*
X30904761Y-74962619D02*
X30809523Y-74915000D01*
X30809523Y-74915000D02*
X30761904Y-74867380D01*
X30761904Y-74867380D02*
X30714285Y-74772142D01*
X30714285Y-74772142D02*
X30714285Y-74534047D01*
X30714285Y-74534047D02*
X30761904Y-74438809D01*
X30761904Y-74438809D02*
X30809523Y-74391190D01*
X30809523Y-74391190D02*
X30904761Y-74343571D01*
X30904761Y-74343571D02*
X31095237Y-74343571D01*
X31095237Y-74343571D02*
X31190475Y-74391190D01*
X31190475Y-74391190D02*
X31238094Y-74438809D01*
X31238094Y-74438809D02*
X31285713Y-74534047D01*
%TO.C,D9*%
X86238094Y-57962619D02*
X86238094Y-56962619D01*
X86238094Y-56962619D02*
X85999999Y-56962619D01*
X85999999Y-56962619D02*
X85857142Y-57010238D01*
X85857142Y-57010238D02*
X85761904Y-57105476D01*
X85761904Y-57105476D02*
X85714285Y-57200714D01*
X85714285Y-57200714D02*
X85666666Y-57391190D01*
X85666666Y-57391190D02*
X85666666Y-57534047D01*
X85666666Y-57534047D02*
X85714285Y-57724523D01*
X85714285Y-57724523D02*
X85761904Y-57819761D01*
X85761904Y-57819761D02*
X85857142Y-57915000D01*
X85857142Y-57915000D02*
X85999999Y-57962619D01*
X85999999Y-57962619D02*
X86238094Y-57962619D01*
X85190475Y-57962619D02*
X84999999Y-57962619D01*
X84999999Y-57962619D02*
X84904761Y-57915000D01*
X84904761Y-57915000D02*
X84857142Y-57867380D01*
X84857142Y-57867380D02*
X84761904Y-57724523D01*
X84761904Y-57724523D02*
X84714285Y-57534047D01*
X84714285Y-57534047D02*
X84714285Y-57153095D01*
X84714285Y-57153095D02*
X84761904Y-57057857D01*
X84761904Y-57057857D02*
X84809523Y-57010238D01*
X84809523Y-57010238D02*
X84904761Y-56962619D01*
X84904761Y-56962619D02*
X85095237Y-56962619D01*
X85095237Y-56962619D02*
X85190475Y-57010238D01*
X85190475Y-57010238D02*
X85238094Y-57057857D01*
X85238094Y-57057857D02*
X85285713Y-57153095D01*
X85285713Y-57153095D02*
X85285713Y-57391190D01*
X85285713Y-57391190D02*
X85238094Y-57486428D01*
X85238094Y-57486428D02*
X85190475Y-57534047D01*
X85190475Y-57534047D02*
X85095237Y-57581666D01*
X85095237Y-57581666D02*
X84904761Y-57581666D01*
X84904761Y-57581666D02*
X84809523Y-57534047D01*
X84809523Y-57534047D02*
X84761904Y-57486428D01*
X84761904Y-57486428D02*
X84714285Y-57391190D01*
%TO.C,D24*%
X122714285Y-40962619D02*
X122714285Y-39962619D01*
X122714285Y-39962619D02*
X122476190Y-39962619D01*
X122476190Y-39962619D02*
X122333333Y-40010238D01*
X122333333Y-40010238D02*
X122238095Y-40105476D01*
X122238095Y-40105476D02*
X122190476Y-40200714D01*
X122190476Y-40200714D02*
X122142857Y-40391190D01*
X122142857Y-40391190D02*
X122142857Y-40534047D01*
X122142857Y-40534047D02*
X122190476Y-40724523D01*
X122190476Y-40724523D02*
X122238095Y-40819761D01*
X122238095Y-40819761D02*
X122333333Y-40915000D01*
X122333333Y-40915000D02*
X122476190Y-40962619D01*
X122476190Y-40962619D02*
X122714285Y-40962619D01*
X121761904Y-40057857D02*
X121714285Y-40010238D01*
X121714285Y-40010238D02*
X121619047Y-39962619D01*
X121619047Y-39962619D02*
X121380952Y-39962619D01*
X121380952Y-39962619D02*
X121285714Y-40010238D01*
X121285714Y-40010238D02*
X121238095Y-40057857D01*
X121238095Y-40057857D02*
X121190476Y-40153095D01*
X121190476Y-40153095D02*
X121190476Y-40248333D01*
X121190476Y-40248333D02*
X121238095Y-40391190D01*
X121238095Y-40391190D02*
X121809523Y-40962619D01*
X121809523Y-40962619D02*
X121190476Y-40962619D01*
X120333333Y-40295952D02*
X120333333Y-40962619D01*
X120571428Y-39915000D02*
X120809523Y-40629285D01*
X120809523Y-40629285D02*
X120190476Y-40629285D01*
%TO.C,D38*%
X175712619Y-85910714D02*
X174712619Y-85910714D01*
X174712619Y-85910714D02*
X174712619Y-86148809D01*
X174712619Y-86148809D02*
X174760238Y-86291666D01*
X174760238Y-86291666D02*
X174855476Y-86386904D01*
X174855476Y-86386904D02*
X174950714Y-86434523D01*
X174950714Y-86434523D02*
X175141190Y-86482142D01*
X175141190Y-86482142D02*
X175284047Y-86482142D01*
X175284047Y-86482142D02*
X175474523Y-86434523D01*
X175474523Y-86434523D02*
X175569761Y-86386904D01*
X175569761Y-86386904D02*
X175665000Y-86291666D01*
X175665000Y-86291666D02*
X175712619Y-86148809D01*
X175712619Y-86148809D02*
X175712619Y-85910714D01*
X174712619Y-86815476D02*
X174712619Y-87434523D01*
X174712619Y-87434523D02*
X175093571Y-87101190D01*
X175093571Y-87101190D02*
X175093571Y-87244047D01*
X175093571Y-87244047D02*
X175141190Y-87339285D01*
X175141190Y-87339285D02*
X175188809Y-87386904D01*
X175188809Y-87386904D02*
X175284047Y-87434523D01*
X175284047Y-87434523D02*
X175522142Y-87434523D01*
X175522142Y-87434523D02*
X175617380Y-87386904D01*
X175617380Y-87386904D02*
X175665000Y-87339285D01*
X175665000Y-87339285D02*
X175712619Y-87244047D01*
X175712619Y-87244047D02*
X175712619Y-86958333D01*
X175712619Y-86958333D02*
X175665000Y-86863095D01*
X175665000Y-86863095D02*
X175617380Y-86815476D01*
X175141190Y-88005952D02*
X175093571Y-87910714D01*
X175093571Y-87910714D02*
X175045952Y-87863095D01*
X175045952Y-87863095D02*
X174950714Y-87815476D01*
X174950714Y-87815476D02*
X174903095Y-87815476D01*
X174903095Y-87815476D02*
X174807857Y-87863095D01*
X174807857Y-87863095D02*
X174760238Y-87910714D01*
X174760238Y-87910714D02*
X174712619Y-88005952D01*
X174712619Y-88005952D02*
X174712619Y-88196428D01*
X174712619Y-88196428D02*
X174760238Y-88291666D01*
X174760238Y-88291666D02*
X174807857Y-88339285D01*
X174807857Y-88339285D02*
X174903095Y-88386904D01*
X174903095Y-88386904D02*
X174950714Y-88386904D01*
X174950714Y-88386904D02*
X175045952Y-88339285D01*
X175045952Y-88339285D02*
X175093571Y-88291666D01*
X175093571Y-88291666D02*
X175141190Y-88196428D01*
X175141190Y-88196428D02*
X175141190Y-88005952D01*
X175141190Y-88005952D02*
X175188809Y-87910714D01*
X175188809Y-87910714D02*
X175236428Y-87863095D01*
X175236428Y-87863095D02*
X175331666Y-87815476D01*
X175331666Y-87815476D02*
X175522142Y-87815476D01*
X175522142Y-87815476D02*
X175617380Y-87863095D01*
X175617380Y-87863095D02*
X175665000Y-87910714D01*
X175665000Y-87910714D02*
X175712619Y-88005952D01*
X175712619Y-88005952D02*
X175712619Y-88196428D01*
X175712619Y-88196428D02*
X175665000Y-88291666D01*
X175665000Y-88291666D02*
X175617380Y-88339285D01*
X175617380Y-88339285D02*
X175522142Y-88386904D01*
X175522142Y-88386904D02*
X175331666Y-88386904D01*
X175331666Y-88386904D02*
X175236428Y-88339285D01*
X175236428Y-88339285D02*
X175188809Y-88291666D01*
X175188809Y-88291666D02*
X175141190Y-88196428D01*
%TO.C,D35*%
X158714285Y-91962619D02*
X158714285Y-90962619D01*
X158714285Y-90962619D02*
X158476190Y-90962619D01*
X158476190Y-90962619D02*
X158333333Y-91010238D01*
X158333333Y-91010238D02*
X158238095Y-91105476D01*
X158238095Y-91105476D02*
X158190476Y-91200714D01*
X158190476Y-91200714D02*
X158142857Y-91391190D01*
X158142857Y-91391190D02*
X158142857Y-91534047D01*
X158142857Y-91534047D02*
X158190476Y-91724523D01*
X158190476Y-91724523D02*
X158238095Y-91819761D01*
X158238095Y-91819761D02*
X158333333Y-91915000D01*
X158333333Y-91915000D02*
X158476190Y-91962619D01*
X158476190Y-91962619D02*
X158714285Y-91962619D01*
X157809523Y-90962619D02*
X157190476Y-90962619D01*
X157190476Y-90962619D02*
X157523809Y-91343571D01*
X157523809Y-91343571D02*
X157380952Y-91343571D01*
X157380952Y-91343571D02*
X157285714Y-91391190D01*
X157285714Y-91391190D02*
X157238095Y-91438809D01*
X157238095Y-91438809D02*
X157190476Y-91534047D01*
X157190476Y-91534047D02*
X157190476Y-91772142D01*
X157190476Y-91772142D02*
X157238095Y-91867380D01*
X157238095Y-91867380D02*
X157285714Y-91915000D01*
X157285714Y-91915000D02*
X157380952Y-91962619D01*
X157380952Y-91962619D02*
X157666666Y-91962619D01*
X157666666Y-91962619D02*
X157761904Y-91915000D01*
X157761904Y-91915000D02*
X157809523Y-91867380D01*
X156285714Y-90962619D02*
X156761904Y-90962619D01*
X156761904Y-90962619D02*
X156809523Y-91438809D01*
X156809523Y-91438809D02*
X156761904Y-91391190D01*
X156761904Y-91391190D02*
X156666666Y-91343571D01*
X156666666Y-91343571D02*
X156428571Y-91343571D01*
X156428571Y-91343571D02*
X156333333Y-91391190D01*
X156333333Y-91391190D02*
X156285714Y-91438809D01*
X156285714Y-91438809D02*
X156238095Y-91534047D01*
X156238095Y-91534047D02*
X156238095Y-91772142D01*
X156238095Y-91772142D02*
X156285714Y-91867380D01*
X156285714Y-91867380D02*
X156333333Y-91915000D01*
X156333333Y-91915000D02*
X156428571Y-91962619D01*
X156428571Y-91962619D02*
X156666666Y-91962619D01*
X156666666Y-91962619D02*
X156761904Y-91915000D01*
X156761904Y-91915000D02*
X156809523Y-91867380D01*
%TO.C,D20*%
X194714285Y-57962619D02*
X194714285Y-56962619D01*
X194714285Y-56962619D02*
X194476190Y-56962619D01*
X194476190Y-56962619D02*
X194333333Y-57010238D01*
X194333333Y-57010238D02*
X194238095Y-57105476D01*
X194238095Y-57105476D02*
X194190476Y-57200714D01*
X194190476Y-57200714D02*
X194142857Y-57391190D01*
X194142857Y-57391190D02*
X194142857Y-57534047D01*
X194142857Y-57534047D02*
X194190476Y-57724523D01*
X194190476Y-57724523D02*
X194238095Y-57819761D01*
X194238095Y-57819761D02*
X194333333Y-57915000D01*
X194333333Y-57915000D02*
X194476190Y-57962619D01*
X194476190Y-57962619D02*
X194714285Y-57962619D01*
X193761904Y-57057857D02*
X193714285Y-57010238D01*
X193714285Y-57010238D02*
X193619047Y-56962619D01*
X193619047Y-56962619D02*
X193380952Y-56962619D01*
X193380952Y-56962619D02*
X193285714Y-57010238D01*
X193285714Y-57010238D02*
X193238095Y-57057857D01*
X193238095Y-57057857D02*
X193190476Y-57153095D01*
X193190476Y-57153095D02*
X193190476Y-57248333D01*
X193190476Y-57248333D02*
X193238095Y-57391190D01*
X193238095Y-57391190D02*
X193809523Y-57962619D01*
X193809523Y-57962619D02*
X193190476Y-57962619D01*
X192571428Y-56962619D02*
X192476190Y-56962619D01*
X192476190Y-56962619D02*
X192380952Y-57010238D01*
X192380952Y-57010238D02*
X192333333Y-57057857D01*
X192333333Y-57057857D02*
X192285714Y-57153095D01*
X192285714Y-57153095D02*
X192238095Y-57343571D01*
X192238095Y-57343571D02*
X192238095Y-57581666D01*
X192238095Y-57581666D02*
X192285714Y-57772142D01*
X192285714Y-57772142D02*
X192333333Y-57867380D01*
X192333333Y-57867380D02*
X192380952Y-57915000D01*
X192380952Y-57915000D02*
X192476190Y-57962619D01*
X192476190Y-57962619D02*
X192571428Y-57962619D01*
X192571428Y-57962619D02*
X192666666Y-57915000D01*
X192666666Y-57915000D02*
X192714285Y-57867380D01*
X192714285Y-57867380D02*
X192761904Y-57772142D01*
X192761904Y-57772142D02*
X192809523Y-57581666D01*
X192809523Y-57581666D02*
X192809523Y-57343571D01*
X192809523Y-57343571D02*
X192761904Y-57153095D01*
X192761904Y-57153095D02*
X192714285Y-57057857D01*
X192714285Y-57057857D02*
X192666666Y-57010238D01*
X192666666Y-57010238D02*
X192571428Y-56962619D01*
%TO.C,C5*%
X180266666Y-30997380D02*
X180314285Y-31045000D01*
X180314285Y-31045000D02*
X180457142Y-31092619D01*
X180457142Y-31092619D02*
X180552380Y-31092619D01*
X180552380Y-31092619D02*
X180695237Y-31045000D01*
X180695237Y-31045000D02*
X180790475Y-30949761D01*
X180790475Y-30949761D02*
X180838094Y-30854523D01*
X180838094Y-30854523D02*
X180885713Y-30664047D01*
X180885713Y-30664047D02*
X180885713Y-30521190D01*
X180885713Y-30521190D02*
X180838094Y-30330714D01*
X180838094Y-30330714D02*
X180790475Y-30235476D01*
X180790475Y-30235476D02*
X180695237Y-30140238D01*
X180695237Y-30140238D02*
X180552380Y-30092619D01*
X180552380Y-30092619D02*
X180457142Y-30092619D01*
X180457142Y-30092619D02*
X180314285Y-30140238D01*
X180314285Y-30140238D02*
X180266666Y-30187857D01*
X179361904Y-30092619D02*
X179838094Y-30092619D01*
X179838094Y-30092619D02*
X179885713Y-30568809D01*
X179885713Y-30568809D02*
X179838094Y-30521190D01*
X179838094Y-30521190D02*
X179742856Y-30473571D01*
X179742856Y-30473571D02*
X179504761Y-30473571D01*
X179504761Y-30473571D02*
X179409523Y-30521190D01*
X179409523Y-30521190D02*
X179361904Y-30568809D01*
X179361904Y-30568809D02*
X179314285Y-30664047D01*
X179314285Y-30664047D02*
X179314285Y-30902142D01*
X179314285Y-30902142D02*
X179361904Y-30997380D01*
X179361904Y-30997380D02*
X179409523Y-31045000D01*
X179409523Y-31045000D02*
X179504761Y-31092619D01*
X179504761Y-31092619D02*
X179742856Y-31092619D01*
X179742856Y-31092619D02*
X179838094Y-31045000D01*
X179838094Y-31045000D02*
X179885713Y-30997380D01*
%TO.C,U1*%
X50934619Y-34100476D02*
X50934619Y-34618571D01*
X50934619Y-34618571D02*
X50904142Y-34679523D01*
X50904142Y-34679523D02*
X50873666Y-34710000D01*
X50873666Y-34710000D02*
X50812714Y-34740476D01*
X50812714Y-34740476D02*
X50690809Y-34740476D01*
X50690809Y-34740476D02*
X50629857Y-34710000D01*
X50629857Y-34710000D02*
X50599380Y-34679523D01*
X50599380Y-34679523D02*
X50568904Y-34618571D01*
X50568904Y-34618571D02*
X50568904Y-34100476D01*
X49928904Y-34740476D02*
X50294619Y-34740476D01*
X50111762Y-34740476D02*
X50111762Y-34100476D01*
X50111762Y-34100476D02*
X50172714Y-34191904D01*
X50172714Y-34191904D02*
X50233666Y-34252857D01*
X50233666Y-34252857D02*
X50294619Y-34283333D01*
%TO.C,D28*%
X140714285Y-57962619D02*
X140714285Y-56962619D01*
X140714285Y-56962619D02*
X140476190Y-56962619D01*
X140476190Y-56962619D02*
X140333333Y-57010238D01*
X140333333Y-57010238D02*
X140238095Y-57105476D01*
X140238095Y-57105476D02*
X140190476Y-57200714D01*
X140190476Y-57200714D02*
X140142857Y-57391190D01*
X140142857Y-57391190D02*
X140142857Y-57534047D01*
X140142857Y-57534047D02*
X140190476Y-57724523D01*
X140190476Y-57724523D02*
X140238095Y-57819761D01*
X140238095Y-57819761D02*
X140333333Y-57915000D01*
X140333333Y-57915000D02*
X140476190Y-57962619D01*
X140476190Y-57962619D02*
X140714285Y-57962619D01*
X139761904Y-57057857D02*
X139714285Y-57010238D01*
X139714285Y-57010238D02*
X139619047Y-56962619D01*
X139619047Y-56962619D02*
X139380952Y-56962619D01*
X139380952Y-56962619D02*
X139285714Y-57010238D01*
X139285714Y-57010238D02*
X139238095Y-57057857D01*
X139238095Y-57057857D02*
X139190476Y-57153095D01*
X139190476Y-57153095D02*
X139190476Y-57248333D01*
X139190476Y-57248333D02*
X139238095Y-57391190D01*
X139238095Y-57391190D02*
X139809523Y-57962619D01*
X139809523Y-57962619D02*
X139190476Y-57962619D01*
X138619047Y-57391190D02*
X138714285Y-57343571D01*
X138714285Y-57343571D02*
X138761904Y-57295952D01*
X138761904Y-57295952D02*
X138809523Y-57200714D01*
X138809523Y-57200714D02*
X138809523Y-57153095D01*
X138809523Y-57153095D02*
X138761904Y-57057857D01*
X138761904Y-57057857D02*
X138714285Y-57010238D01*
X138714285Y-57010238D02*
X138619047Y-56962619D01*
X138619047Y-56962619D02*
X138428571Y-56962619D01*
X138428571Y-56962619D02*
X138333333Y-57010238D01*
X138333333Y-57010238D02*
X138285714Y-57057857D01*
X138285714Y-57057857D02*
X138238095Y-57153095D01*
X138238095Y-57153095D02*
X138238095Y-57200714D01*
X138238095Y-57200714D02*
X138285714Y-57295952D01*
X138285714Y-57295952D02*
X138333333Y-57343571D01*
X138333333Y-57343571D02*
X138428571Y-57391190D01*
X138428571Y-57391190D02*
X138619047Y-57391190D01*
X138619047Y-57391190D02*
X138714285Y-57438809D01*
X138714285Y-57438809D02*
X138761904Y-57486428D01*
X138761904Y-57486428D02*
X138809523Y-57581666D01*
X138809523Y-57581666D02*
X138809523Y-57772142D01*
X138809523Y-57772142D02*
X138761904Y-57867380D01*
X138761904Y-57867380D02*
X138714285Y-57915000D01*
X138714285Y-57915000D02*
X138619047Y-57962619D01*
X138619047Y-57962619D02*
X138428571Y-57962619D01*
X138428571Y-57962619D02*
X138333333Y-57915000D01*
X138333333Y-57915000D02*
X138285714Y-57867380D01*
X138285714Y-57867380D02*
X138238095Y-57772142D01*
X138238095Y-57772142D02*
X138238095Y-57581666D01*
X138238095Y-57581666D02*
X138285714Y-57486428D01*
X138285714Y-57486428D02*
X138333333Y-57438809D01*
X138333333Y-57438809D02*
X138428571Y-57391190D01*
%TO.C,D19*%
X63212619Y-85910714D02*
X62212619Y-85910714D01*
X62212619Y-85910714D02*
X62212619Y-86148809D01*
X62212619Y-86148809D02*
X62260238Y-86291666D01*
X62260238Y-86291666D02*
X62355476Y-86386904D01*
X62355476Y-86386904D02*
X62450714Y-86434523D01*
X62450714Y-86434523D02*
X62641190Y-86482142D01*
X62641190Y-86482142D02*
X62784047Y-86482142D01*
X62784047Y-86482142D02*
X62974523Y-86434523D01*
X62974523Y-86434523D02*
X63069761Y-86386904D01*
X63069761Y-86386904D02*
X63165000Y-86291666D01*
X63165000Y-86291666D02*
X63212619Y-86148809D01*
X63212619Y-86148809D02*
X63212619Y-85910714D01*
X63212619Y-87434523D02*
X63212619Y-86863095D01*
X63212619Y-87148809D02*
X62212619Y-87148809D01*
X62212619Y-87148809D02*
X62355476Y-87053571D01*
X62355476Y-87053571D02*
X62450714Y-86958333D01*
X62450714Y-86958333D02*
X62498333Y-86863095D01*
X63212619Y-87910714D02*
X63212619Y-88101190D01*
X63212619Y-88101190D02*
X63165000Y-88196428D01*
X63165000Y-88196428D02*
X63117380Y-88244047D01*
X63117380Y-88244047D02*
X62974523Y-88339285D01*
X62974523Y-88339285D02*
X62784047Y-88386904D01*
X62784047Y-88386904D02*
X62403095Y-88386904D01*
X62403095Y-88386904D02*
X62307857Y-88339285D01*
X62307857Y-88339285D02*
X62260238Y-88291666D01*
X62260238Y-88291666D02*
X62212619Y-88196428D01*
X62212619Y-88196428D02*
X62212619Y-88005952D01*
X62212619Y-88005952D02*
X62260238Y-87910714D01*
X62260238Y-87910714D02*
X62307857Y-87863095D01*
X62307857Y-87863095D02*
X62403095Y-87815476D01*
X62403095Y-87815476D02*
X62641190Y-87815476D01*
X62641190Y-87815476D02*
X62736428Y-87863095D01*
X62736428Y-87863095D02*
X62784047Y-87910714D01*
X62784047Y-87910714D02*
X62831666Y-88005952D01*
X62831666Y-88005952D02*
X62831666Y-88196428D01*
X62831666Y-88196428D02*
X62784047Y-88291666D01*
X62784047Y-88291666D02*
X62736428Y-88339285D01*
X62736428Y-88339285D02*
X62641190Y-88386904D01*
%TO.C,R3*%
X206666666Y-49212619D02*
X206999999Y-48736428D01*
X207238094Y-49212619D02*
X207238094Y-48212619D01*
X207238094Y-48212619D02*
X206857142Y-48212619D01*
X206857142Y-48212619D02*
X206761904Y-48260238D01*
X206761904Y-48260238D02*
X206714285Y-48307857D01*
X206714285Y-48307857D02*
X206666666Y-48403095D01*
X206666666Y-48403095D02*
X206666666Y-48545952D01*
X206666666Y-48545952D02*
X206714285Y-48641190D01*
X206714285Y-48641190D02*
X206761904Y-48688809D01*
X206761904Y-48688809D02*
X206857142Y-48736428D01*
X206857142Y-48736428D02*
X207238094Y-48736428D01*
X206333332Y-48212619D02*
X205714285Y-48212619D01*
X205714285Y-48212619D02*
X206047618Y-48593571D01*
X206047618Y-48593571D02*
X205904761Y-48593571D01*
X205904761Y-48593571D02*
X205809523Y-48641190D01*
X205809523Y-48641190D02*
X205761904Y-48688809D01*
X205761904Y-48688809D02*
X205714285Y-48784047D01*
X205714285Y-48784047D02*
X205714285Y-49022142D01*
X205714285Y-49022142D02*
X205761904Y-49117380D01*
X205761904Y-49117380D02*
X205809523Y-49165000D01*
X205809523Y-49165000D02*
X205904761Y-49212619D01*
X205904761Y-49212619D02*
X206190475Y-49212619D01*
X206190475Y-49212619D02*
X206285713Y-49165000D01*
X206285713Y-49165000D02*
X206333332Y-49117380D01*
%TO.C,D13*%
X68714285Y-74962619D02*
X68714285Y-73962619D01*
X68714285Y-73962619D02*
X68476190Y-73962619D01*
X68476190Y-73962619D02*
X68333333Y-74010238D01*
X68333333Y-74010238D02*
X68238095Y-74105476D01*
X68238095Y-74105476D02*
X68190476Y-74200714D01*
X68190476Y-74200714D02*
X68142857Y-74391190D01*
X68142857Y-74391190D02*
X68142857Y-74534047D01*
X68142857Y-74534047D02*
X68190476Y-74724523D01*
X68190476Y-74724523D02*
X68238095Y-74819761D01*
X68238095Y-74819761D02*
X68333333Y-74915000D01*
X68333333Y-74915000D02*
X68476190Y-74962619D01*
X68476190Y-74962619D02*
X68714285Y-74962619D01*
X67190476Y-74962619D02*
X67761904Y-74962619D01*
X67476190Y-74962619D02*
X67476190Y-73962619D01*
X67476190Y-73962619D02*
X67571428Y-74105476D01*
X67571428Y-74105476D02*
X67666666Y-74200714D01*
X67666666Y-74200714D02*
X67761904Y-74248333D01*
X66857142Y-73962619D02*
X66238095Y-73962619D01*
X66238095Y-73962619D02*
X66571428Y-74343571D01*
X66571428Y-74343571D02*
X66428571Y-74343571D01*
X66428571Y-74343571D02*
X66333333Y-74391190D01*
X66333333Y-74391190D02*
X66285714Y-74438809D01*
X66285714Y-74438809D02*
X66238095Y-74534047D01*
X66238095Y-74534047D02*
X66238095Y-74772142D01*
X66238095Y-74772142D02*
X66285714Y-74867380D01*
X66285714Y-74867380D02*
X66333333Y-74915000D01*
X66333333Y-74915000D02*
X66428571Y-74962619D01*
X66428571Y-74962619D02*
X66714285Y-74962619D01*
X66714285Y-74962619D02*
X66809523Y-74915000D01*
X66809523Y-74915000D02*
X66857142Y-74867380D01*
%TO.C,D23*%
X140714285Y-40962619D02*
X140714285Y-39962619D01*
X140714285Y-39962619D02*
X140476190Y-39962619D01*
X140476190Y-39962619D02*
X140333333Y-40010238D01*
X140333333Y-40010238D02*
X140238095Y-40105476D01*
X140238095Y-40105476D02*
X140190476Y-40200714D01*
X140190476Y-40200714D02*
X140142857Y-40391190D01*
X140142857Y-40391190D02*
X140142857Y-40534047D01*
X140142857Y-40534047D02*
X140190476Y-40724523D01*
X140190476Y-40724523D02*
X140238095Y-40819761D01*
X140238095Y-40819761D02*
X140333333Y-40915000D01*
X140333333Y-40915000D02*
X140476190Y-40962619D01*
X140476190Y-40962619D02*
X140714285Y-40962619D01*
X139761904Y-40057857D02*
X139714285Y-40010238D01*
X139714285Y-40010238D02*
X139619047Y-39962619D01*
X139619047Y-39962619D02*
X139380952Y-39962619D01*
X139380952Y-39962619D02*
X139285714Y-40010238D01*
X139285714Y-40010238D02*
X139238095Y-40057857D01*
X139238095Y-40057857D02*
X139190476Y-40153095D01*
X139190476Y-40153095D02*
X139190476Y-40248333D01*
X139190476Y-40248333D02*
X139238095Y-40391190D01*
X139238095Y-40391190D02*
X139809523Y-40962619D01*
X139809523Y-40962619D02*
X139190476Y-40962619D01*
X138857142Y-39962619D02*
X138238095Y-39962619D01*
X138238095Y-39962619D02*
X138571428Y-40343571D01*
X138571428Y-40343571D02*
X138428571Y-40343571D01*
X138428571Y-40343571D02*
X138333333Y-40391190D01*
X138333333Y-40391190D02*
X138285714Y-40438809D01*
X138285714Y-40438809D02*
X138238095Y-40534047D01*
X138238095Y-40534047D02*
X138238095Y-40772142D01*
X138238095Y-40772142D02*
X138285714Y-40867380D01*
X138285714Y-40867380D02*
X138333333Y-40915000D01*
X138333333Y-40915000D02*
X138428571Y-40962619D01*
X138428571Y-40962619D02*
X138714285Y-40962619D01*
X138714285Y-40962619D02*
X138809523Y-40915000D01*
X138809523Y-40915000D02*
X138857142Y-40867380D01*
%TO.C,C2*%
X54522666Y-27516380D02*
X54570285Y-27564000D01*
X54570285Y-27564000D02*
X54713142Y-27611619D01*
X54713142Y-27611619D02*
X54808380Y-27611619D01*
X54808380Y-27611619D02*
X54951237Y-27564000D01*
X54951237Y-27564000D02*
X55046475Y-27468761D01*
X55046475Y-27468761D02*
X55094094Y-27373523D01*
X55094094Y-27373523D02*
X55141713Y-27183047D01*
X55141713Y-27183047D02*
X55141713Y-27040190D01*
X55141713Y-27040190D02*
X55094094Y-26849714D01*
X55094094Y-26849714D02*
X55046475Y-26754476D01*
X55046475Y-26754476D02*
X54951237Y-26659238D01*
X54951237Y-26659238D02*
X54808380Y-26611619D01*
X54808380Y-26611619D02*
X54713142Y-26611619D01*
X54713142Y-26611619D02*
X54570285Y-26659238D01*
X54570285Y-26659238D02*
X54522666Y-26706857D01*
X54141713Y-26706857D02*
X54094094Y-26659238D01*
X54094094Y-26659238D02*
X53998856Y-26611619D01*
X53998856Y-26611619D02*
X53760761Y-26611619D01*
X53760761Y-26611619D02*
X53665523Y-26659238D01*
X53665523Y-26659238D02*
X53617904Y-26706857D01*
X53617904Y-26706857D02*
X53570285Y-26802095D01*
X53570285Y-26802095D02*
X53570285Y-26897333D01*
X53570285Y-26897333D02*
X53617904Y-27040190D01*
X53617904Y-27040190D02*
X54189332Y-27611619D01*
X54189332Y-27611619D02*
X53570285Y-27611619D01*
%TO.C,D3*%
X68238094Y-40962619D02*
X68238094Y-39962619D01*
X68238094Y-39962619D02*
X67999999Y-39962619D01*
X67999999Y-39962619D02*
X67857142Y-40010238D01*
X67857142Y-40010238D02*
X67761904Y-40105476D01*
X67761904Y-40105476D02*
X67714285Y-40200714D01*
X67714285Y-40200714D02*
X67666666Y-40391190D01*
X67666666Y-40391190D02*
X67666666Y-40534047D01*
X67666666Y-40534047D02*
X67714285Y-40724523D01*
X67714285Y-40724523D02*
X67761904Y-40819761D01*
X67761904Y-40819761D02*
X67857142Y-40915000D01*
X67857142Y-40915000D02*
X67999999Y-40962619D01*
X67999999Y-40962619D02*
X68238094Y-40962619D01*
X67333332Y-39962619D02*
X66714285Y-39962619D01*
X66714285Y-39962619D02*
X67047618Y-40343571D01*
X67047618Y-40343571D02*
X66904761Y-40343571D01*
X66904761Y-40343571D02*
X66809523Y-40391190D01*
X66809523Y-40391190D02*
X66761904Y-40438809D01*
X66761904Y-40438809D02*
X66714285Y-40534047D01*
X66714285Y-40534047D02*
X66714285Y-40772142D01*
X66714285Y-40772142D02*
X66761904Y-40867380D01*
X66761904Y-40867380D02*
X66809523Y-40915000D01*
X66809523Y-40915000D02*
X66904761Y-40962619D01*
X66904761Y-40962619D02*
X67190475Y-40962619D01*
X67190475Y-40962619D02*
X67285713Y-40915000D01*
X67285713Y-40915000D02*
X67333332Y-40867380D01*
D11*
%TO.C,U2*%
X36677333Y-37357269D02*
X36677333Y-38076936D01*
X36677333Y-38076936D02*
X36635000Y-38161602D01*
X36635000Y-38161602D02*
X36592666Y-38203936D01*
X36592666Y-38203936D02*
X36508000Y-38246269D01*
X36508000Y-38246269D02*
X36338666Y-38246269D01*
X36338666Y-38246269D02*
X36254000Y-38203936D01*
X36254000Y-38203936D02*
X36211666Y-38161602D01*
X36211666Y-38161602D02*
X36169333Y-38076936D01*
X36169333Y-38076936D02*
X36169333Y-37357269D01*
X35788333Y-37441936D02*
X35746000Y-37399602D01*
X35746000Y-37399602D02*
X35661333Y-37357269D01*
X35661333Y-37357269D02*
X35449667Y-37357269D01*
X35449667Y-37357269D02*
X35365000Y-37399602D01*
X35365000Y-37399602D02*
X35322667Y-37441936D01*
X35322667Y-37441936D02*
X35280333Y-37526602D01*
X35280333Y-37526602D02*
X35280333Y-37611269D01*
X35280333Y-37611269D02*
X35322667Y-37738269D01*
X35322667Y-37738269D02*
X35830667Y-38246269D01*
X35830667Y-38246269D02*
X35280333Y-38246269D01*
D10*
X37523808Y-41257619D02*
X36857142Y-42257619D01*
X36857142Y-41257619D02*
X37523808Y-42257619D01*
X36476189Y-42257619D02*
X36476189Y-41257619D01*
X36047618Y-41971904D02*
X35571428Y-41971904D01*
X36142856Y-42257619D02*
X35809523Y-41257619D01*
X35809523Y-41257619D02*
X35476190Y-42257619D01*
X34952380Y-41257619D02*
X34761904Y-41257619D01*
X34761904Y-41257619D02*
X34666666Y-41305238D01*
X34666666Y-41305238D02*
X34571428Y-41400476D01*
X34571428Y-41400476D02*
X34523809Y-41590952D01*
X34523809Y-41590952D02*
X34523809Y-41924285D01*
X34523809Y-41924285D02*
X34571428Y-42114761D01*
X34571428Y-42114761D02*
X34666666Y-42210000D01*
X34666666Y-42210000D02*
X34761904Y-42257619D01*
X34761904Y-42257619D02*
X34952380Y-42257619D01*
X34952380Y-42257619D02*
X35047618Y-42210000D01*
X35047618Y-42210000D02*
X35142856Y-42114761D01*
X35142856Y-42114761D02*
X35190475Y-41924285D01*
X35190475Y-41924285D02*
X35190475Y-41590952D01*
X35190475Y-41590952D02*
X35142856Y-41400476D01*
X35142856Y-41400476D02*
X35047618Y-41305238D01*
X35047618Y-41305238D02*
X34952380Y-41257619D01*
X40761904Y-40210000D02*
X40619047Y-40257619D01*
X40619047Y-40257619D02*
X40380952Y-40257619D01*
X40380952Y-40257619D02*
X40285714Y-40210000D01*
X40285714Y-40210000D02*
X40238095Y-40162380D01*
X40238095Y-40162380D02*
X40190476Y-40067142D01*
X40190476Y-40067142D02*
X40190476Y-39971904D01*
X40190476Y-39971904D02*
X40238095Y-39876666D01*
X40238095Y-39876666D02*
X40285714Y-39829047D01*
X40285714Y-39829047D02*
X40380952Y-39781428D01*
X40380952Y-39781428D02*
X40571428Y-39733809D01*
X40571428Y-39733809D02*
X40666666Y-39686190D01*
X40666666Y-39686190D02*
X40714285Y-39638571D01*
X40714285Y-39638571D02*
X40761904Y-39543333D01*
X40761904Y-39543333D02*
X40761904Y-39448095D01*
X40761904Y-39448095D02*
X40714285Y-39352857D01*
X40714285Y-39352857D02*
X40666666Y-39305238D01*
X40666666Y-39305238D02*
X40571428Y-39257619D01*
X40571428Y-39257619D02*
X40333333Y-39257619D01*
X40333333Y-39257619D02*
X40190476Y-39305238D01*
X39380952Y-40210000D02*
X39476190Y-40257619D01*
X39476190Y-40257619D02*
X39666666Y-40257619D01*
X39666666Y-40257619D02*
X39761904Y-40210000D01*
X39761904Y-40210000D02*
X39809523Y-40114761D01*
X39809523Y-40114761D02*
X39809523Y-39733809D01*
X39809523Y-39733809D02*
X39761904Y-39638571D01*
X39761904Y-39638571D02*
X39666666Y-39590952D01*
X39666666Y-39590952D02*
X39476190Y-39590952D01*
X39476190Y-39590952D02*
X39380952Y-39638571D01*
X39380952Y-39638571D02*
X39333333Y-39733809D01*
X39333333Y-39733809D02*
X39333333Y-39829047D01*
X39333333Y-39829047D02*
X39809523Y-39924285D01*
X38523809Y-40210000D02*
X38619047Y-40257619D01*
X38619047Y-40257619D02*
X38809523Y-40257619D01*
X38809523Y-40257619D02*
X38904761Y-40210000D01*
X38904761Y-40210000D02*
X38952380Y-40114761D01*
X38952380Y-40114761D02*
X38952380Y-39733809D01*
X38952380Y-39733809D02*
X38904761Y-39638571D01*
X38904761Y-39638571D02*
X38809523Y-39590952D01*
X38809523Y-39590952D02*
X38619047Y-39590952D01*
X38619047Y-39590952D02*
X38523809Y-39638571D01*
X38523809Y-39638571D02*
X38476190Y-39733809D01*
X38476190Y-39733809D02*
X38476190Y-39829047D01*
X38476190Y-39829047D02*
X38952380Y-39924285D01*
X37666666Y-40210000D02*
X37761904Y-40257619D01*
X37761904Y-40257619D02*
X37952380Y-40257619D01*
X37952380Y-40257619D02*
X38047618Y-40210000D01*
X38047618Y-40210000D02*
X38095237Y-40114761D01*
X38095237Y-40114761D02*
X38095237Y-39733809D01*
X38095237Y-39733809D02*
X38047618Y-39638571D01*
X38047618Y-39638571D02*
X37952380Y-39590952D01*
X37952380Y-39590952D02*
X37761904Y-39590952D01*
X37761904Y-39590952D02*
X37666666Y-39638571D01*
X37666666Y-39638571D02*
X37619047Y-39733809D01*
X37619047Y-39733809D02*
X37619047Y-39829047D01*
X37619047Y-39829047D02*
X38095237Y-39924285D01*
X36761904Y-40257619D02*
X36761904Y-39257619D01*
X36761904Y-40210000D02*
X36857142Y-40257619D01*
X36857142Y-40257619D02*
X37047618Y-40257619D01*
X37047618Y-40257619D02*
X37142856Y-40210000D01*
X37142856Y-40210000D02*
X37190475Y-40162380D01*
X37190475Y-40162380D02*
X37238094Y-40067142D01*
X37238094Y-40067142D02*
X37238094Y-39781428D01*
X37238094Y-39781428D02*
X37190475Y-39686190D01*
X37190475Y-39686190D02*
X37142856Y-39638571D01*
X37142856Y-39638571D02*
X37047618Y-39590952D01*
X37047618Y-39590952D02*
X36857142Y-39590952D01*
X36857142Y-39590952D02*
X36761904Y-39638571D01*
X35571427Y-40210000D02*
X35428570Y-40257619D01*
X35428570Y-40257619D02*
X35190475Y-40257619D01*
X35190475Y-40257619D02*
X35095237Y-40210000D01*
X35095237Y-40210000D02*
X35047618Y-40162380D01*
X35047618Y-40162380D02*
X34999999Y-40067142D01*
X34999999Y-40067142D02*
X34999999Y-39971904D01*
X34999999Y-39971904D02*
X35047618Y-39876666D01*
X35047618Y-39876666D02*
X35095237Y-39829047D01*
X35095237Y-39829047D02*
X35190475Y-39781428D01*
X35190475Y-39781428D02*
X35380951Y-39733809D01*
X35380951Y-39733809D02*
X35476189Y-39686190D01*
X35476189Y-39686190D02*
X35523808Y-39638571D01*
X35523808Y-39638571D02*
X35571427Y-39543333D01*
X35571427Y-39543333D02*
X35571427Y-39448095D01*
X35571427Y-39448095D02*
X35523808Y-39352857D01*
X35523808Y-39352857D02*
X35476189Y-39305238D01*
X35476189Y-39305238D02*
X35380951Y-39257619D01*
X35380951Y-39257619D02*
X35142856Y-39257619D01*
X35142856Y-39257619D02*
X34999999Y-39305238D01*
X34714284Y-39590952D02*
X34333332Y-39590952D01*
X34571427Y-39257619D02*
X34571427Y-40114761D01*
X34571427Y-40114761D02*
X34523808Y-40210000D01*
X34523808Y-40210000D02*
X34428570Y-40257619D01*
X34428570Y-40257619D02*
X34333332Y-40257619D01*
X33571427Y-39590952D02*
X33571427Y-40257619D01*
X33999998Y-39590952D02*
X33999998Y-40114761D01*
X33999998Y-40114761D02*
X33952379Y-40210000D01*
X33952379Y-40210000D02*
X33857141Y-40257619D01*
X33857141Y-40257619D02*
X33714284Y-40257619D01*
X33714284Y-40257619D02*
X33619046Y-40210000D01*
X33619046Y-40210000D02*
X33571427Y-40162380D01*
X32666665Y-40257619D02*
X32666665Y-39257619D01*
X32666665Y-40210000D02*
X32761903Y-40257619D01*
X32761903Y-40257619D02*
X32952379Y-40257619D01*
X32952379Y-40257619D02*
X33047617Y-40210000D01*
X33047617Y-40210000D02*
X33095236Y-40162380D01*
X33095236Y-40162380D02*
X33142855Y-40067142D01*
X33142855Y-40067142D02*
X33142855Y-39781428D01*
X33142855Y-39781428D02*
X33095236Y-39686190D01*
X33095236Y-39686190D02*
X33047617Y-39638571D01*
X33047617Y-39638571D02*
X32952379Y-39590952D01*
X32952379Y-39590952D02*
X32761903Y-39590952D01*
X32761903Y-39590952D02*
X32666665Y-39638571D01*
X32190474Y-40257619D02*
X32190474Y-39590952D01*
X32190474Y-39257619D02*
X32238093Y-39305238D01*
X32238093Y-39305238D02*
X32190474Y-39352857D01*
X32190474Y-39352857D02*
X32142855Y-39305238D01*
X32142855Y-39305238D02*
X32190474Y-39257619D01*
X32190474Y-39257619D02*
X32190474Y-39352857D01*
X31571427Y-40257619D02*
X31666665Y-40210000D01*
X31666665Y-40210000D02*
X31714284Y-40162380D01*
X31714284Y-40162380D02*
X31761903Y-40067142D01*
X31761903Y-40067142D02*
X31761903Y-39781428D01*
X31761903Y-39781428D02*
X31714284Y-39686190D01*
X31714284Y-39686190D02*
X31666665Y-39638571D01*
X31666665Y-39638571D02*
X31571427Y-39590952D01*
X31571427Y-39590952D02*
X31428570Y-39590952D01*
X31428570Y-39590952D02*
X31333332Y-39638571D01*
X31333332Y-39638571D02*
X31285713Y-39686190D01*
X31285713Y-39686190D02*
X31238094Y-39781428D01*
X31238094Y-39781428D02*
X31238094Y-40067142D01*
X31238094Y-40067142D02*
X31285713Y-40162380D01*
X31285713Y-40162380D02*
X31333332Y-40210000D01*
X31333332Y-40210000D02*
X31428570Y-40257619D01*
X31428570Y-40257619D02*
X31571427Y-40257619D01*
%TO.C,D17*%
X86714285Y-91962619D02*
X86714285Y-90962619D01*
X86714285Y-90962619D02*
X86476190Y-90962619D01*
X86476190Y-90962619D02*
X86333333Y-91010238D01*
X86333333Y-91010238D02*
X86238095Y-91105476D01*
X86238095Y-91105476D02*
X86190476Y-91200714D01*
X86190476Y-91200714D02*
X86142857Y-91391190D01*
X86142857Y-91391190D02*
X86142857Y-91534047D01*
X86142857Y-91534047D02*
X86190476Y-91724523D01*
X86190476Y-91724523D02*
X86238095Y-91819761D01*
X86238095Y-91819761D02*
X86333333Y-91915000D01*
X86333333Y-91915000D02*
X86476190Y-91962619D01*
X86476190Y-91962619D02*
X86714285Y-91962619D01*
X85190476Y-91962619D02*
X85761904Y-91962619D01*
X85476190Y-91962619D02*
X85476190Y-90962619D01*
X85476190Y-90962619D02*
X85571428Y-91105476D01*
X85571428Y-91105476D02*
X85666666Y-91200714D01*
X85666666Y-91200714D02*
X85761904Y-91248333D01*
X84857142Y-90962619D02*
X84190476Y-90962619D01*
X84190476Y-90962619D02*
X84619047Y-91962619D01*
%TO.C,C3*%
X54522666Y-29478380D02*
X54570285Y-29526000D01*
X54570285Y-29526000D02*
X54713142Y-29573619D01*
X54713142Y-29573619D02*
X54808380Y-29573619D01*
X54808380Y-29573619D02*
X54951237Y-29526000D01*
X54951237Y-29526000D02*
X55046475Y-29430761D01*
X55046475Y-29430761D02*
X55094094Y-29335523D01*
X55094094Y-29335523D02*
X55141713Y-29145047D01*
X55141713Y-29145047D02*
X55141713Y-29002190D01*
X55141713Y-29002190D02*
X55094094Y-28811714D01*
X55094094Y-28811714D02*
X55046475Y-28716476D01*
X55046475Y-28716476D02*
X54951237Y-28621238D01*
X54951237Y-28621238D02*
X54808380Y-28573619D01*
X54808380Y-28573619D02*
X54713142Y-28573619D01*
X54713142Y-28573619D02*
X54570285Y-28621238D01*
X54570285Y-28621238D02*
X54522666Y-28668857D01*
X54189332Y-28573619D02*
X53570285Y-28573619D01*
X53570285Y-28573619D02*
X53903618Y-28954571D01*
X53903618Y-28954571D02*
X53760761Y-28954571D01*
X53760761Y-28954571D02*
X53665523Y-29002190D01*
X53665523Y-29002190D02*
X53617904Y-29049809D01*
X53617904Y-29049809D02*
X53570285Y-29145047D01*
X53570285Y-29145047D02*
X53570285Y-29383142D01*
X53570285Y-29383142D02*
X53617904Y-29478380D01*
X53617904Y-29478380D02*
X53665523Y-29526000D01*
X53665523Y-29526000D02*
X53760761Y-29573619D01*
X53760761Y-29573619D02*
X54046475Y-29573619D01*
X54046475Y-29573619D02*
X54141713Y-29526000D01*
X54141713Y-29526000D02*
X54189332Y-29478380D01*
%TO.C,D15*%
X104714285Y-74962619D02*
X104714285Y-73962619D01*
X104714285Y-73962619D02*
X104476190Y-73962619D01*
X104476190Y-73962619D02*
X104333333Y-74010238D01*
X104333333Y-74010238D02*
X104238095Y-74105476D01*
X104238095Y-74105476D02*
X104190476Y-74200714D01*
X104190476Y-74200714D02*
X104142857Y-74391190D01*
X104142857Y-74391190D02*
X104142857Y-74534047D01*
X104142857Y-74534047D02*
X104190476Y-74724523D01*
X104190476Y-74724523D02*
X104238095Y-74819761D01*
X104238095Y-74819761D02*
X104333333Y-74915000D01*
X104333333Y-74915000D02*
X104476190Y-74962619D01*
X104476190Y-74962619D02*
X104714285Y-74962619D01*
X103190476Y-74962619D02*
X103761904Y-74962619D01*
X103476190Y-74962619D02*
X103476190Y-73962619D01*
X103476190Y-73962619D02*
X103571428Y-74105476D01*
X103571428Y-74105476D02*
X103666666Y-74200714D01*
X103666666Y-74200714D02*
X103761904Y-74248333D01*
X102285714Y-73962619D02*
X102761904Y-73962619D01*
X102761904Y-73962619D02*
X102809523Y-74438809D01*
X102809523Y-74438809D02*
X102761904Y-74391190D01*
X102761904Y-74391190D02*
X102666666Y-74343571D01*
X102666666Y-74343571D02*
X102428571Y-74343571D01*
X102428571Y-74343571D02*
X102333333Y-74391190D01*
X102333333Y-74391190D02*
X102285714Y-74438809D01*
X102285714Y-74438809D02*
X102238095Y-74534047D01*
X102238095Y-74534047D02*
X102238095Y-74772142D01*
X102238095Y-74772142D02*
X102285714Y-74867380D01*
X102285714Y-74867380D02*
X102333333Y-74915000D01*
X102333333Y-74915000D02*
X102428571Y-74962619D01*
X102428571Y-74962619D02*
X102666666Y-74962619D01*
X102666666Y-74962619D02*
X102761904Y-74915000D01*
X102761904Y-74915000D02*
X102809523Y-74867380D01*
%TO.C,R2*%
X48172666Y-36658619D02*
X48505999Y-36182428D01*
X48744094Y-36658619D02*
X48744094Y-35658619D01*
X48744094Y-35658619D02*
X48363142Y-35658619D01*
X48363142Y-35658619D02*
X48267904Y-35706238D01*
X48267904Y-35706238D02*
X48220285Y-35753857D01*
X48220285Y-35753857D02*
X48172666Y-35849095D01*
X48172666Y-35849095D02*
X48172666Y-35991952D01*
X48172666Y-35991952D02*
X48220285Y-36087190D01*
X48220285Y-36087190D02*
X48267904Y-36134809D01*
X48267904Y-36134809D02*
X48363142Y-36182428D01*
X48363142Y-36182428D02*
X48744094Y-36182428D01*
X47791713Y-35753857D02*
X47744094Y-35706238D01*
X47744094Y-35706238D02*
X47648856Y-35658619D01*
X47648856Y-35658619D02*
X47410761Y-35658619D01*
X47410761Y-35658619D02*
X47315523Y-35706238D01*
X47315523Y-35706238D02*
X47267904Y-35753857D01*
X47267904Y-35753857D02*
X47220285Y-35849095D01*
X47220285Y-35849095D02*
X47220285Y-35944333D01*
X47220285Y-35944333D02*
X47267904Y-36087190D01*
X47267904Y-36087190D02*
X47839332Y-36658619D01*
X47839332Y-36658619D02*
X47220285Y-36658619D01*
%TO.C,D34*%
X122714285Y-74962619D02*
X122714285Y-73962619D01*
X122714285Y-73962619D02*
X122476190Y-73962619D01*
X122476190Y-73962619D02*
X122333333Y-74010238D01*
X122333333Y-74010238D02*
X122238095Y-74105476D01*
X122238095Y-74105476D02*
X122190476Y-74200714D01*
X122190476Y-74200714D02*
X122142857Y-74391190D01*
X122142857Y-74391190D02*
X122142857Y-74534047D01*
X122142857Y-74534047D02*
X122190476Y-74724523D01*
X122190476Y-74724523D02*
X122238095Y-74819761D01*
X122238095Y-74819761D02*
X122333333Y-74915000D01*
X122333333Y-74915000D02*
X122476190Y-74962619D01*
X122476190Y-74962619D02*
X122714285Y-74962619D01*
X121809523Y-73962619D02*
X121190476Y-73962619D01*
X121190476Y-73962619D02*
X121523809Y-74343571D01*
X121523809Y-74343571D02*
X121380952Y-74343571D01*
X121380952Y-74343571D02*
X121285714Y-74391190D01*
X121285714Y-74391190D02*
X121238095Y-74438809D01*
X121238095Y-74438809D02*
X121190476Y-74534047D01*
X121190476Y-74534047D02*
X121190476Y-74772142D01*
X121190476Y-74772142D02*
X121238095Y-74867380D01*
X121238095Y-74867380D02*
X121285714Y-74915000D01*
X121285714Y-74915000D02*
X121380952Y-74962619D01*
X121380952Y-74962619D02*
X121666666Y-74962619D01*
X121666666Y-74962619D02*
X121761904Y-74915000D01*
X121761904Y-74915000D02*
X121809523Y-74867380D01*
X120333333Y-74295952D02*
X120333333Y-74962619D01*
X120571428Y-73915000D02*
X120809523Y-74629285D01*
X120809523Y-74629285D02*
X120190476Y-74629285D01*
D11*
%TO.C,U4*%
X198677333Y-37357269D02*
X198677333Y-38076936D01*
X198677333Y-38076936D02*
X198635000Y-38161602D01*
X198635000Y-38161602D02*
X198592666Y-38203936D01*
X198592666Y-38203936D02*
X198508000Y-38246269D01*
X198508000Y-38246269D02*
X198338666Y-38246269D01*
X198338666Y-38246269D02*
X198254000Y-38203936D01*
X198254000Y-38203936D02*
X198211666Y-38161602D01*
X198211666Y-38161602D02*
X198169333Y-38076936D01*
X198169333Y-38076936D02*
X198169333Y-37357269D01*
X197365000Y-37653602D02*
X197365000Y-38246269D01*
X197576667Y-37314936D02*
X197788333Y-37949936D01*
X197788333Y-37949936D02*
X197238000Y-37949936D01*
D10*
X199523808Y-41257619D02*
X198857142Y-42257619D01*
X198857142Y-41257619D02*
X199523808Y-42257619D01*
X198476189Y-42257619D02*
X198476189Y-41257619D01*
X198047618Y-41971904D02*
X197571428Y-41971904D01*
X198142856Y-42257619D02*
X197809523Y-41257619D01*
X197809523Y-41257619D02*
X197476190Y-42257619D01*
X196952380Y-41257619D02*
X196761904Y-41257619D01*
X196761904Y-41257619D02*
X196666666Y-41305238D01*
X196666666Y-41305238D02*
X196571428Y-41400476D01*
X196571428Y-41400476D02*
X196523809Y-41590952D01*
X196523809Y-41590952D02*
X196523809Y-41924285D01*
X196523809Y-41924285D02*
X196571428Y-42114761D01*
X196571428Y-42114761D02*
X196666666Y-42210000D01*
X196666666Y-42210000D02*
X196761904Y-42257619D01*
X196761904Y-42257619D02*
X196952380Y-42257619D01*
X196952380Y-42257619D02*
X197047618Y-42210000D01*
X197047618Y-42210000D02*
X197142856Y-42114761D01*
X197142856Y-42114761D02*
X197190475Y-41924285D01*
X197190475Y-41924285D02*
X197190475Y-41590952D01*
X197190475Y-41590952D02*
X197142856Y-41400476D01*
X197142856Y-41400476D02*
X197047618Y-41305238D01*
X197047618Y-41305238D02*
X196952380Y-41257619D01*
X202761904Y-40210000D02*
X202619047Y-40257619D01*
X202619047Y-40257619D02*
X202380952Y-40257619D01*
X202380952Y-40257619D02*
X202285714Y-40210000D01*
X202285714Y-40210000D02*
X202238095Y-40162380D01*
X202238095Y-40162380D02*
X202190476Y-40067142D01*
X202190476Y-40067142D02*
X202190476Y-39971904D01*
X202190476Y-39971904D02*
X202238095Y-39876666D01*
X202238095Y-39876666D02*
X202285714Y-39829047D01*
X202285714Y-39829047D02*
X202380952Y-39781428D01*
X202380952Y-39781428D02*
X202571428Y-39733809D01*
X202571428Y-39733809D02*
X202666666Y-39686190D01*
X202666666Y-39686190D02*
X202714285Y-39638571D01*
X202714285Y-39638571D02*
X202761904Y-39543333D01*
X202761904Y-39543333D02*
X202761904Y-39448095D01*
X202761904Y-39448095D02*
X202714285Y-39352857D01*
X202714285Y-39352857D02*
X202666666Y-39305238D01*
X202666666Y-39305238D02*
X202571428Y-39257619D01*
X202571428Y-39257619D02*
X202333333Y-39257619D01*
X202333333Y-39257619D02*
X202190476Y-39305238D01*
X201380952Y-40210000D02*
X201476190Y-40257619D01*
X201476190Y-40257619D02*
X201666666Y-40257619D01*
X201666666Y-40257619D02*
X201761904Y-40210000D01*
X201761904Y-40210000D02*
X201809523Y-40114761D01*
X201809523Y-40114761D02*
X201809523Y-39733809D01*
X201809523Y-39733809D02*
X201761904Y-39638571D01*
X201761904Y-39638571D02*
X201666666Y-39590952D01*
X201666666Y-39590952D02*
X201476190Y-39590952D01*
X201476190Y-39590952D02*
X201380952Y-39638571D01*
X201380952Y-39638571D02*
X201333333Y-39733809D01*
X201333333Y-39733809D02*
X201333333Y-39829047D01*
X201333333Y-39829047D02*
X201809523Y-39924285D01*
X200523809Y-40210000D02*
X200619047Y-40257619D01*
X200619047Y-40257619D02*
X200809523Y-40257619D01*
X200809523Y-40257619D02*
X200904761Y-40210000D01*
X200904761Y-40210000D02*
X200952380Y-40114761D01*
X200952380Y-40114761D02*
X200952380Y-39733809D01*
X200952380Y-39733809D02*
X200904761Y-39638571D01*
X200904761Y-39638571D02*
X200809523Y-39590952D01*
X200809523Y-39590952D02*
X200619047Y-39590952D01*
X200619047Y-39590952D02*
X200523809Y-39638571D01*
X200523809Y-39638571D02*
X200476190Y-39733809D01*
X200476190Y-39733809D02*
X200476190Y-39829047D01*
X200476190Y-39829047D02*
X200952380Y-39924285D01*
X199666666Y-40210000D02*
X199761904Y-40257619D01*
X199761904Y-40257619D02*
X199952380Y-40257619D01*
X199952380Y-40257619D02*
X200047618Y-40210000D01*
X200047618Y-40210000D02*
X200095237Y-40114761D01*
X200095237Y-40114761D02*
X200095237Y-39733809D01*
X200095237Y-39733809D02*
X200047618Y-39638571D01*
X200047618Y-39638571D02*
X199952380Y-39590952D01*
X199952380Y-39590952D02*
X199761904Y-39590952D01*
X199761904Y-39590952D02*
X199666666Y-39638571D01*
X199666666Y-39638571D02*
X199619047Y-39733809D01*
X199619047Y-39733809D02*
X199619047Y-39829047D01*
X199619047Y-39829047D02*
X200095237Y-39924285D01*
X198761904Y-40257619D02*
X198761904Y-39257619D01*
X198761904Y-40210000D02*
X198857142Y-40257619D01*
X198857142Y-40257619D02*
X199047618Y-40257619D01*
X199047618Y-40257619D02*
X199142856Y-40210000D01*
X199142856Y-40210000D02*
X199190475Y-40162380D01*
X199190475Y-40162380D02*
X199238094Y-40067142D01*
X199238094Y-40067142D02*
X199238094Y-39781428D01*
X199238094Y-39781428D02*
X199190475Y-39686190D01*
X199190475Y-39686190D02*
X199142856Y-39638571D01*
X199142856Y-39638571D02*
X199047618Y-39590952D01*
X199047618Y-39590952D02*
X198857142Y-39590952D01*
X198857142Y-39590952D02*
X198761904Y-39638571D01*
X197571427Y-40210000D02*
X197428570Y-40257619D01*
X197428570Y-40257619D02*
X197190475Y-40257619D01*
X197190475Y-40257619D02*
X197095237Y-40210000D01*
X197095237Y-40210000D02*
X197047618Y-40162380D01*
X197047618Y-40162380D02*
X196999999Y-40067142D01*
X196999999Y-40067142D02*
X196999999Y-39971904D01*
X196999999Y-39971904D02*
X197047618Y-39876666D01*
X197047618Y-39876666D02*
X197095237Y-39829047D01*
X197095237Y-39829047D02*
X197190475Y-39781428D01*
X197190475Y-39781428D02*
X197380951Y-39733809D01*
X197380951Y-39733809D02*
X197476189Y-39686190D01*
X197476189Y-39686190D02*
X197523808Y-39638571D01*
X197523808Y-39638571D02*
X197571427Y-39543333D01*
X197571427Y-39543333D02*
X197571427Y-39448095D01*
X197571427Y-39448095D02*
X197523808Y-39352857D01*
X197523808Y-39352857D02*
X197476189Y-39305238D01*
X197476189Y-39305238D02*
X197380951Y-39257619D01*
X197380951Y-39257619D02*
X197142856Y-39257619D01*
X197142856Y-39257619D02*
X196999999Y-39305238D01*
X196714284Y-39590952D02*
X196333332Y-39590952D01*
X196571427Y-39257619D02*
X196571427Y-40114761D01*
X196571427Y-40114761D02*
X196523808Y-40210000D01*
X196523808Y-40210000D02*
X196428570Y-40257619D01*
X196428570Y-40257619D02*
X196333332Y-40257619D01*
X195571427Y-39590952D02*
X195571427Y-40257619D01*
X195999998Y-39590952D02*
X195999998Y-40114761D01*
X195999998Y-40114761D02*
X195952379Y-40210000D01*
X195952379Y-40210000D02*
X195857141Y-40257619D01*
X195857141Y-40257619D02*
X195714284Y-40257619D01*
X195714284Y-40257619D02*
X195619046Y-40210000D01*
X195619046Y-40210000D02*
X195571427Y-40162380D01*
X194666665Y-40257619D02*
X194666665Y-39257619D01*
X194666665Y-40210000D02*
X194761903Y-40257619D01*
X194761903Y-40257619D02*
X194952379Y-40257619D01*
X194952379Y-40257619D02*
X195047617Y-40210000D01*
X195047617Y-40210000D02*
X195095236Y-40162380D01*
X195095236Y-40162380D02*
X195142855Y-40067142D01*
X195142855Y-40067142D02*
X195142855Y-39781428D01*
X195142855Y-39781428D02*
X195095236Y-39686190D01*
X195095236Y-39686190D02*
X195047617Y-39638571D01*
X195047617Y-39638571D02*
X194952379Y-39590952D01*
X194952379Y-39590952D02*
X194761903Y-39590952D01*
X194761903Y-39590952D02*
X194666665Y-39638571D01*
X194190474Y-40257619D02*
X194190474Y-39590952D01*
X194190474Y-39257619D02*
X194238093Y-39305238D01*
X194238093Y-39305238D02*
X194190474Y-39352857D01*
X194190474Y-39352857D02*
X194142855Y-39305238D01*
X194142855Y-39305238D02*
X194190474Y-39257619D01*
X194190474Y-39257619D02*
X194190474Y-39352857D01*
X193571427Y-40257619D02*
X193666665Y-40210000D01*
X193666665Y-40210000D02*
X193714284Y-40162380D01*
X193714284Y-40162380D02*
X193761903Y-40067142D01*
X193761903Y-40067142D02*
X193761903Y-39781428D01*
X193761903Y-39781428D02*
X193714284Y-39686190D01*
X193714284Y-39686190D02*
X193666665Y-39638571D01*
X193666665Y-39638571D02*
X193571427Y-39590952D01*
X193571427Y-39590952D02*
X193428570Y-39590952D01*
X193428570Y-39590952D02*
X193333332Y-39638571D01*
X193333332Y-39638571D02*
X193285713Y-39686190D01*
X193285713Y-39686190D02*
X193238094Y-39781428D01*
X193238094Y-39781428D02*
X193238094Y-40067142D01*
X193238094Y-40067142D02*
X193285713Y-40162380D01*
X193285713Y-40162380D02*
X193333332Y-40210000D01*
X193333332Y-40210000D02*
X193428570Y-40257619D01*
X193428570Y-40257619D02*
X193571427Y-40257619D01*
%TO.C,D32*%
X158714285Y-74962619D02*
X158714285Y-73962619D01*
X158714285Y-73962619D02*
X158476190Y-73962619D01*
X158476190Y-73962619D02*
X158333333Y-74010238D01*
X158333333Y-74010238D02*
X158238095Y-74105476D01*
X158238095Y-74105476D02*
X158190476Y-74200714D01*
X158190476Y-74200714D02*
X158142857Y-74391190D01*
X158142857Y-74391190D02*
X158142857Y-74534047D01*
X158142857Y-74534047D02*
X158190476Y-74724523D01*
X158190476Y-74724523D02*
X158238095Y-74819761D01*
X158238095Y-74819761D02*
X158333333Y-74915000D01*
X158333333Y-74915000D02*
X158476190Y-74962619D01*
X158476190Y-74962619D02*
X158714285Y-74962619D01*
X157809523Y-73962619D02*
X157190476Y-73962619D01*
X157190476Y-73962619D02*
X157523809Y-74343571D01*
X157523809Y-74343571D02*
X157380952Y-74343571D01*
X157380952Y-74343571D02*
X157285714Y-74391190D01*
X157285714Y-74391190D02*
X157238095Y-74438809D01*
X157238095Y-74438809D02*
X157190476Y-74534047D01*
X157190476Y-74534047D02*
X157190476Y-74772142D01*
X157190476Y-74772142D02*
X157238095Y-74867380D01*
X157238095Y-74867380D02*
X157285714Y-74915000D01*
X157285714Y-74915000D02*
X157380952Y-74962619D01*
X157380952Y-74962619D02*
X157666666Y-74962619D01*
X157666666Y-74962619D02*
X157761904Y-74915000D01*
X157761904Y-74915000D02*
X157809523Y-74867380D01*
X156809523Y-74057857D02*
X156761904Y-74010238D01*
X156761904Y-74010238D02*
X156666666Y-73962619D01*
X156666666Y-73962619D02*
X156428571Y-73962619D01*
X156428571Y-73962619D02*
X156333333Y-74010238D01*
X156333333Y-74010238D02*
X156285714Y-74057857D01*
X156285714Y-74057857D02*
X156238095Y-74153095D01*
X156238095Y-74153095D02*
X156238095Y-74248333D01*
X156238095Y-74248333D02*
X156285714Y-74391190D01*
X156285714Y-74391190D02*
X156857142Y-74962619D01*
X156857142Y-74962619D02*
X156238095Y-74962619D01*
%TO.C,D18*%
X104714285Y-91962619D02*
X104714285Y-90962619D01*
X104714285Y-90962619D02*
X104476190Y-90962619D01*
X104476190Y-90962619D02*
X104333333Y-91010238D01*
X104333333Y-91010238D02*
X104238095Y-91105476D01*
X104238095Y-91105476D02*
X104190476Y-91200714D01*
X104190476Y-91200714D02*
X104142857Y-91391190D01*
X104142857Y-91391190D02*
X104142857Y-91534047D01*
X104142857Y-91534047D02*
X104190476Y-91724523D01*
X104190476Y-91724523D02*
X104238095Y-91819761D01*
X104238095Y-91819761D02*
X104333333Y-91915000D01*
X104333333Y-91915000D02*
X104476190Y-91962619D01*
X104476190Y-91962619D02*
X104714285Y-91962619D01*
X103190476Y-91962619D02*
X103761904Y-91962619D01*
X103476190Y-91962619D02*
X103476190Y-90962619D01*
X103476190Y-90962619D02*
X103571428Y-91105476D01*
X103571428Y-91105476D02*
X103666666Y-91200714D01*
X103666666Y-91200714D02*
X103761904Y-91248333D01*
X102619047Y-91391190D02*
X102714285Y-91343571D01*
X102714285Y-91343571D02*
X102761904Y-91295952D01*
X102761904Y-91295952D02*
X102809523Y-91200714D01*
X102809523Y-91200714D02*
X102809523Y-91153095D01*
X102809523Y-91153095D02*
X102761904Y-91057857D01*
X102761904Y-91057857D02*
X102714285Y-91010238D01*
X102714285Y-91010238D02*
X102619047Y-90962619D01*
X102619047Y-90962619D02*
X102428571Y-90962619D01*
X102428571Y-90962619D02*
X102333333Y-91010238D01*
X102333333Y-91010238D02*
X102285714Y-91057857D01*
X102285714Y-91057857D02*
X102238095Y-91153095D01*
X102238095Y-91153095D02*
X102238095Y-91200714D01*
X102238095Y-91200714D02*
X102285714Y-91295952D01*
X102285714Y-91295952D02*
X102333333Y-91343571D01*
X102333333Y-91343571D02*
X102428571Y-91391190D01*
X102428571Y-91391190D02*
X102619047Y-91391190D01*
X102619047Y-91391190D02*
X102714285Y-91438809D01*
X102714285Y-91438809D02*
X102761904Y-91486428D01*
X102761904Y-91486428D02*
X102809523Y-91581666D01*
X102809523Y-91581666D02*
X102809523Y-91772142D01*
X102809523Y-91772142D02*
X102761904Y-91867380D01*
X102761904Y-91867380D02*
X102714285Y-91915000D01*
X102714285Y-91915000D02*
X102619047Y-91962619D01*
X102619047Y-91962619D02*
X102428571Y-91962619D01*
X102428571Y-91962619D02*
X102333333Y-91915000D01*
X102333333Y-91915000D02*
X102285714Y-91867380D01*
X102285714Y-91867380D02*
X102238095Y-91772142D01*
X102238095Y-91772142D02*
X102238095Y-91581666D01*
X102238095Y-91581666D02*
X102285714Y-91486428D01*
X102285714Y-91486428D02*
X102333333Y-91438809D01*
X102333333Y-91438809D02*
X102428571Y-91391190D01*
%TO.C,D4*%
X86238094Y-40962619D02*
X86238094Y-39962619D01*
X86238094Y-39962619D02*
X85999999Y-39962619D01*
X85999999Y-39962619D02*
X85857142Y-40010238D01*
X85857142Y-40010238D02*
X85761904Y-40105476D01*
X85761904Y-40105476D02*
X85714285Y-40200714D01*
X85714285Y-40200714D02*
X85666666Y-40391190D01*
X85666666Y-40391190D02*
X85666666Y-40534047D01*
X85666666Y-40534047D02*
X85714285Y-40724523D01*
X85714285Y-40724523D02*
X85761904Y-40819761D01*
X85761904Y-40819761D02*
X85857142Y-40915000D01*
X85857142Y-40915000D02*
X85999999Y-40962619D01*
X85999999Y-40962619D02*
X86238094Y-40962619D01*
X84809523Y-40295952D02*
X84809523Y-40962619D01*
X85047618Y-39915000D02*
X85285713Y-40629285D01*
X85285713Y-40629285D02*
X84666666Y-40629285D01*
%TO.C,D21*%
X176714285Y-49462619D02*
X176714285Y-48462619D01*
X176714285Y-48462619D02*
X176476190Y-48462619D01*
X176476190Y-48462619D02*
X176333333Y-48510238D01*
X176333333Y-48510238D02*
X176238095Y-48605476D01*
X176238095Y-48605476D02*
X176190476Y-48700714D01*
X176190476Y-48700714D02*
X176142857Y-48891190D01*
X176142857Y-48891190D02*
X176142857Y-49034047D01*
X176142857Y-49034047D02*
X176190476Y-49224523D01*
X176190476Y-49224523D02*
X176238095Y-49319761D01*
X176238095Y-49319761D02*
X176333333Y-49415000D01*
X176333333Y-49415000D02*
X176476190Y-49462619D01*
X176476190Y-49462619D02*
X176714285Y-49462619D01*
X175761904Y-48557857D02*
X175714285Y-48510238D01*
X175714285Y-48510238D02*
X175619047Y-48462619D01*
X175619047Y-48462619D02*
X175380952Y-48462619D01*
X175380952Y-48462619D02*
X175285714Y-48510238D01*
X175285714Y-48510238D02*
X175238095Y-48557857D01*
X175238095Y-48557857D02*
X175190476Y-48653095D01*
X175190476Y-48653095D02*
X175190476Y-48748333D01*
X175190476Y-48748333D02*
X175238095Y-48891190D01*
X175238095Y-48891190D02*
X175809523Y-49462619D01*
X175809523Y-49462619D02*
X175190476Y-49462619D01*
X174238095Y-49462619D02*
X174809523Y-49462619D01*
X174523809Y-49462619D02*
X174523809Y-48462619D01*
X174523809Y-48462619D02*
X174619047Y-48605476D01*
X174619047Y-48605476D02*
X174714285Y-48700714D01*
X174714285Y-48700714D02*
X174809523Y-48748333D01*
%TO.C,D29*%
X122714285Y-57962619D02*
X122714285Y-56962619D01*
X122714285Y-56962619D02*
X122476190Y-56962619D01*
X122476190Y-56962619D02*
X122333333Y-57010238D01*
X122333333Y-57010238D02*
X122238095Y-57105476D01*
X122238095Y-57105476D02*
X122190476Y-57200714D01*
X122190476Y-57200714D02*
X122142857Y-57391190D01*
X122142857Y-57391190D02*
X122142857Y-57534047D01*
X122142857Y-57534047D02*
X122190476Y-57724523D01*
X122190476Y-57724523D02*
X122238095Y-57819761D01*
X122238095Y-57819761D02*
X122333333Y-57915000D01*
X122333333Y-57915000D02*
X122476190Y-57962619D01*
X122476190Y-57962619D02*
X122714285Y-57962619D01*
X121761904Y-57057857D02*
X121714285Y-57010238D01*
X121714285Y-57010238D02*
X121619047Y-56962619D01*
X121619047Y-56962619D02*
X121380952Y-56962619D01*
X121380952Y-56962619D02*
X121285714Y-57010238D01*
X121285714Y-57010238D02*
X121238095Y-57057857D01*
X121238095Y-57057857D02*
X121190476Y-57153095D01*
X121190476Y-57153095D02*
X121190476Y-57248333D01*
X121190476Y-57248333D02*
X121238095Y-57391190D01*
X121238095Y-57391190D02*
X121809523Y-57962619D01*
X121809523Y-57962619D02*
X121190476Y-57962619D01*
X120714285Y-57962619D02*
X120523809Y-57962619D01*
X120523809Y-57962619D02*
X120428571Y-57915000D01*
X120428571Y-57915000D02*
X120380952Y-57867380D01*
X120380952Y-57867380D02*
X120285714Y-57724523D01*
X120285714Y-57724523D02*
X120238095Y-57534047D01*
X120238095Y-57534047D02*
X120238095Y-57153095D01*
X120238095Y-57153095D02*
X120285714Y-57057857D01*
X120285714Y-57057857D02*
X120333333Y-57010238D01*
X120333333Y-57010238D02*
X120428571Y-56962619D01*
X120428571Y-56962619D02*
X120619047Y-56962619D01*
X120619047Y-56962619D02*
X120714285Y-57010238D01*
X120714285Y-57010238D02*
X120761904Y-57057857D01*
X120761904Y-57057857D02*
X120809523Y-57153095D01*
X120809523Y-57153095D02*
X120809523Y-57391190D01*
X120809523Y-57391190D02*
X120761904Y-57486428D01*
X120761904Y-57486428D02*
X120714285Y-57534047D01*
X120714285Y-57534047D02*
X120619047Y-57581666D01*
X120619047Y-57581666D02*
X120428571Y-57581666D01*
X120428571Y-57581666D02*
X120333333Y-57534047D01*
X120333333Y-57534047D02*
X120285714Y-57486428D01*
X120285714Y-57486428D02*
X120238095Y-57391190D01*
%TO.C,D16*%
X68714285Y-91962619D02*
X68714285Y-90962619D01*
X68714285Y-90962619D02*
X68476190Y-90962619D01*
X68476190Y-90962619D02*
X68333333Y-91010238D01*
X68333333Y-91010238D02*
X68238095Y-91105476D01*
X68238095Y-91105476D02*
X68190476Y-91200714D01*
X68190476Y-91200714D02*
X68142857Y-91391190D01*
X68142857Y-91391190D02*
X68142857Y-91534047D01*
X68142857Y-91534047D02*
X68190476Y-91724523D01*
X68190476Y-91724523D02*
X68238095Y-91819761D01*
X68238095Y-91819761D02*
X68333333Y-91915000D01*
X68333333Y-91915000D02*
X68476190Y-91962619D01*
X68476190Y-91962619D02*
X68714285Y-91962619D01*
X67190476Y-91962619D02*
X67761904Y-91962619D01*
X67476190Y-91962619D02*
X67476190Y-90962619D01*
X67476190Y-90962619D02*
X67571428Y-91105476D01*
X67571428Y-91105476D02*
X67666666Y-91200714D01*
X67666666Y-91200714D02*
X67761904Y-91248333D01*
X66333333Y-90962619D02*
X66523809Y-90962619D01*
X66523809Y-90962619D02*
X66619047Y-91010238D01*
X66619047Y-91010238D02*
X66666666Y-91057857D01*
X66666666Y-91057857D02*
X66761904Y-91200714D01*
X66761904Y-91200714D02*
X66809523Y-91391190D01*
X66809523Y-91391190D02*
X66809523Y-91772142D01*
X66809523Y-91772142D02*
X66761904Y-91867380D01*
X66761904Y-91867380D02*
X66714285Y-91915000D01*
X66714285Y-91915000D02*
X66619047Y-91962619D01*
X66619047Y-91962619D02*
X66428571Y-91962619D01*
X66428571Y-91962619D02*
X66333333Y-91915000D01*
X66333333Y-91915000D02*
X66285714Y-91867380D01*
X66285714Y-91867380D02*
X66238095Y-91772142D01*
X66238095Y-91772142D02*
X66238095Y-91534047D01*
X66238095Y-91534047D02*
X66285714Y-91438809D01*
X66285714Y-91438809D02*
X66333333Y-91391190D01*
X66333333Y-91391190D02*
X66428571Y-91343571D01*
X66428571Y-91343571D02*
X66619047Y-91343571D01*
X66619047Y-91343571D02*
X66714285Y-91391190D01*
X66714285Y-91391190D02*
X66761904Y-91438809D01*
X66761904Y-91438809D02*
X66809523Y-91534047D01*
%TO.C,D33*%
X140714285Y-74962619D02*
X140714285Y-73962619D01*
X140714285Y-73962619D02*
X140476190Y-73962619D01*
X140476190Y-73962619D02*
X140333333Y-74010238D01*
X140333333Y-74010238D02*
X140238095Y-74105476D01*
X140238095Y-74105476D02*
X140190476Y-74200714D01*
X140190476Y-74200714D02*
X140142857Y-74391190D01*
X140142857Y-74391190D02*
X140142857Y-74534047D01*
X140142857Y-74534047D02*
X140190476Y-74724523D01*
X140190476Y-74724523D02*
X140238095Y-74819761D01*
X140238095Y-74819761D02*
X140333333Y-74915000D01*
X140333333Y-74915000D02*
X140476190Y-74962619D01*
X140476190Y-74962619D02*
X140714285Y-74962619D01*
X139809523Y-73962619D02*
X139190476Y-73962619D01*
X139190476Y-73962619D02*
X139523809Y-74343571D01*
X139523809Y-74343571D02*
X139380952Y-74343571D01*
X139380952Y-74343571D02*
X139285714Y-74391190D01*
X139285714Y-74391190D02*
X139238095Y-74438809D01*
X139238095Y-74438809D02*
X139190476Y-74534047D01*
X139190476Y-74534047D02*
X139190476Y-74772142D01*
X139190476Y-74772142D02*
X139238095Y-74867380D01*
X139238095Y-74867380D02*
X139285714Y-74915000D01*
X139285714Y-74915000D02*
X139380952Y-74962619D01*
X139380952Y-74962619D02*
X139666666Y-74962619D01*
X139666666Y-74962619D02*
X139761904Y-74915000D01*
X139761904Y-74915000D02*
X139809523Y-74867380D01*
X138857142Y-73962619D02*
X138238095Y-73962619D01*
X138238095Y-73962619D02*
X138571428Y-74343571D01*
X138571428Y-74343571D02*
X138428571Y-74343571D01*
X138428571Y-74343571D02*
X138333333Y-74391190D01*
X138333333Y-74391190D02*
X138285714Y-74438809D01*
X138285714Y-74438809D02*
X138238095Y-74534047D01*
X138238095Y-74534047D02*
X138238095Y-74772142D01*
X138238095Y-74772142D02*
X138285714Y-74867380D01*
X138285714Y-74867380D02*
X138333333Y-74915000D01*
X138333333Y-74915000D02*
X138428571Y-74962619D01*
X138428571Y-74962619D02*
X138714285Y-74962619D01*
X138714285Y-74962619D02*
X138809523Y-74915000D01*
X138809523Y-74915000D02*
X138857142Y-74867380D01*
%TO.C,U3*%
X184505619Y-27187676D02*
X184505619Y-27705771D01*
X184505619Y-27705771D02*
X184475142Y-27766723D01*
X184475142Y-27766723D02*
X184444666Y-27797200D01*
X184444666Y-27797200D02*
X184383714Y-27827676D01*
X184383714Y-27827676D02*
X184261809Y-27827676D01*
X184261809Y-27827676D02*
X184200857Y-27797200D01*
X184200857Y-27797200D02*
X184170380Y-27766723D01*
X184170380Y-27766723D02*
X184139904Y-27705771D01*
X184139904Y-27705771D02*
X184139904Y-27187676D01*
X183896095Y-27187676D02*
X183499904Y-27187676D01*
X183499904Y-27187676D02*
X183713238Y-27431485D01*
X183713238Y-27431485D02*
X183621809Y-27431485D01*
X183621809Y-27431485D02*
X183560857Y-27461961D01*
X183560857Y-27461961D02*
X183530381Y-27492438D01*
X183530381Y-27492438D02*
X183499904Y-27553390D01*
X183499904Y-27553390D02*
X183499904Y-27705771D01*
X183499904Y-27705771D02*
X183530381Y-27766723D01*
X183530381Y-27766723D02*
X183560857Y-27797200D01*
X183560857Y-27797200D02*
X183621809Y-27827676D01*
X183621809Y-27827676D02*
X183804666Y-27827676D01*
X183804666Y-27827676D02*
X183865619Y-27797200D01*
X183865619Y-27797200D02*
X183896095Y-27766723D01*
%TO.C,D30*%
X194714285Y-91962619D02*
X194714285Y-90962619D01*
X194714285Y-90962619D02*
X194476190Y-90962619D01*
X194476190Y-90962619D02*
X194333333Y-91010238D01*
X194333333Y-91010238D02*
X194238095Y-91105476D01*
X194238095Y-91105476D02*
X194190476Y-91200714D01*
X194190476Y-91200714D02*
X194142857Y-91391190D01*
X194142857Y-91391190D02*
X194142857Y-91534047D01*
X194142857Y-91534047D02*
X194190476Y-91724523D01*
X194190476Y-91724523D02*
X194238095Y-91819761D01*
X194238095Y-91819761D02*
X194333333Y-91915000D01*
X194333333Y-91915000D02*
X194476190Y-91962619D01*
X194476190Y-91962619D02*
X194714285Y-91962619D01*
X193809523Y-90962619D02*
X193190476Y-90962619D01*
X193190476Y-90962619D02*
X193523809Y-91343571D01*
X193523809Y-91343571D02*
X193380952Y-91343571D01*
X193380952Y-91343571D02*
X193285714Y-91391190D01*
X193285714Y-91391190D02*
X193238095Y-91438809D01*
X193238095Y-91438809D02*
X193190476Y-91534047D01*
X193190476Y-91534047D02*
X193190476Y-91772142D01*
X193190476Y-91772142D02*
X193238095Y-91867380D01*
X193238095Y-91867380D02*
X193285714Y-91915000D01*
X193285714Y-91915000D02*
X193380952Y-91962619D01*
X193380952Y-91962619D02*
X193666666Y-91962619D01*
X193666666Y-91962619D02*
X193761904Y-91915000D01*
X193761904Y-91915000D02*
X193809523Y-91867380D01*
X192571428Y-90962619D02*
X192476190Y-90962619D01*
X192476190Y-90962619D02*
X192380952Y-91010238D01*
X192380952Y-91010238D02*
X192333333Y-91057857D01*
X192333333Y-91057857D02*
X192285714Y-91153095D01*
X192285714Y-91153095D02*
X192238095Y-91343571D01*
X192238095Y-91343571D02*
X192238095Y-91581666D01*
X192238095Y-91581666D02*
X192285714Y-91772142D01*
X192285714Y-91772142D02*
X192333333Y-91867380D01*
X192333333Y-91867380D02*
X192380952Y-91915000D01*
X192380952Y-91915000D02*
X192476190Y-91962619D01*
X192476190Y-91962619D02*
X192571428Y-91962619D01*
X192571428Y-91962619D02*
X192666666Y-91915000D01*
X192666666Y-91915000D02*
X192714285Y-91867380D01*
X192714285Y-91867380D02*
X192761904Y-91772142D01*
X192761904Y-91772142D02*
X192809523Y-91581666D01*
X192809523Y-91581666D02*
X192809523Y-91343571D01*
X192809523Y-91343571D02*
X192761904Y-91153095D01*
X192761904Y-91153095D02*
X192714285Y-91057857D01*
X192714285Y-91057857D02*
X192666666Y-91010238D01*
X192666666Y-91010238D02*
X192571428Y-90962619D01*
%TO.C,D7*%
X50238094Y-66462619D02*
X50238094Y-65462619D01*
X50238094Y-65462619D02*
X49999999Y-65462619D01*
X49999999Y-65462619D02*
X49857142Y-65510238D01*
X49857142Y-65510238D02*
X49761904Y-65605476D01*
X49761904Y-65605476D02*
X49714285Y-65700714D01*
X49714285Y-65700714D02*
X49666666Y-65891190D01*
X49666666Y-65891190D02*
X49666666Y-66034047D01*
X49666666Y-66034047D02*
X49714285Y-66224523D01*
X49714285Y-66224523D02*
X49761904Y-66319761D01*
X49761904Y-66319761D02*
X49857142Y-66415000D01*
X49857142Y-66415000D02*
X49999999Y-66462619D01*
X49999999Y-66462619D02*
X50238094Y-66462619D01*
X49333332Y-65462619D02*
X48666666Y-65462619D01*
X48666666Y-65462619D02*
X49095237Y-66462619D01*
%TO.C,R1*%
X48172666Y-39198619D02*
X48505999Y-38722428D01*
X48744094Y-39198619D02*
X48744094Y-38198619D01*
X48744094Y-38198619D02*
X48363142Y-38198619D01*
X48363142Y-38198619D02*
X48267904Y-38246238D01*
X48267904Y-38246238D02*
X48220285Y-38293857D01*
X48220285Y-38293857D02*
X48172666Y-38389095D01*
X48172666Y-38389095D02*
X48172666Y-38531952D01*
X48172666Y-38531952D02*
X48220285Y-38627190D01*
X48220285Y-38627190D02*
X48267904Y-38674809D01*
X48267904Y-38674809D02*
X48363142Y-38722428D01*
X48363142Y-38722428D02*
X48744094Y-38722428D01*
X47220285Y-39198619D02*
X47791713Y-39198619D01*
X47505999Y-39198619D02*
X47505999Y-38198619D01*
X47505999Y-38198619D02*
X47601237Y-38341476D01*
X47601237Y-38341476D02*
X47696475Y-38436714D01*
X47696475Y-38436714D02*
X47791713Y-38484333D01*
%TO.C,D37*%
X122714285Y-91962619D02*
X122714285Y-90962619D01*
X122714285Y-90962619D02*
X122476190Y-90962619D01*
X122476190Y-90962619D02*
X122333333Y-91010238D01*
X122333333Y-91010238D02*
X122238095Y-91105476D01*
X122238095Y-91105476D02*
X122190476Y-91200714D01*
X122190476Y-91200714D02*
X122142857Y-91391190D01*
X122142857Y-91391190D02*
X122142857Y-91534047D01*
X122142857Y-91534047D02*
X122190476Y-91724523D01*
X122190476Y-91724523D02*
X122238095Y-91819761D01*
X122238095Y-91819761D02*
X122333333Y-91915000D01*
X122333333Y-91915000D02*
X122476190Y-91962619D01*
X122476190Y-91962619D02*
X122714285Y-91962619D01*
X121809523Y-90962619D02*
X121190476Y-90962619D01*
X121190476Y-90962619D02*
X121523809Y-91343571D01*
X121523809Y-91343571D02*
X121380952Y-91343571D01*
X121380952Y-91343571D02*
X121285714Y-91391190D01*
X121285714Y-91391190D02*
X121238095Y-91438809D01*
X121238095Y-91438809D02*
X121190476Y-91534047D01*
X121190476Y-91534047D02*
X121190476Y-91772142D01*
X121190476Y-91772142D02*
X121238095Y-91867380D01*
X121238095Y-91867380D02*
X121285714Y-91915000D01*
X121285714Y-91915000D02*
X121380952Y-91962619D01*
X121380952Y-91962619D02*
X121666666Y-91962619D01*
X121666666Y-91962619D02*
X121761904Y-91915000D01*
X121761904Y-91915000D02*
X121809523Y-91867380D01*
X120857142Y-90962619D02*
X120190476Y-90962619D01*
X120190476Y-90962619D02*
X120619047Y-91962619D01*
%TO.C,R4*%
X206666666Y-51112619D02*
X206999999Y-50636428D01*
X207238094Y-51112619D02*
X207238094Y-50112619D01*
X207238094Y-50112619D02*
X206857142Y-50112619D01*
X206857142Y-50112619D02*
X206761904Y-50160238D01*
X206761904Y-50160238D02*
X206714285Y-50207857D01*
X206714285Y-50207857D02*
X206666666Y-50303095D01*
X206666666Y-50303095D02*
X206666666Y-50445952D01*
X206666666Y-50445952D02*
X206714285Y-50541190D01*
X206714285Y-50541190D02*
X206761904Y-50588809D01*
X206761904Y-50588809D02*
X206857142Y-50636428D01*
X206857142Y-50636428D02*
X207238094Y-50636428D01*
X205809523Y-50445952D02*
X205809523Y-51112619D01*
X206047618Y-50065000D02*
X206285713Y-50779285D01*
X206285713Y-50779285D02*
X205666666Y-50779285D01*
%TO.C,D11*%
X32714285Y-91962619D02*
X32714285Y-90962619D01*
X32714285Y-90962619D02*
X32476190Y-90962619D01*
X32476190Y-90962619D02*
X32333333Y-91010238D01*
X32333333Y-91010238D02*
X32238095Y-91105476D01*
X32238095Y-91105476D02*
X32190476Y-91200714D01*
X32190476Y-91200714D02*
X32142857Y-91391190D01*
X32142857Y-91391190D02*
X32142857Y-91534047D01*
X32142857Y-91534047D02*
X32190476Y-91724523D01*
X32190476Y-91724523D02*
X32238095Y-91819761D01*
X32238095Y-91819761D02*
X32333333Y-91915000D01*
X32333333Y-91915000D02*
X32476190Y-91962619D01*
X32476190Y-91962619D02*
X32714285Y-91962619D01*
X31190476Y-91962619D02*
X31761904Y-91962619D01*
X31476190Y-91962619D02*
X31476190Y-90962619D01*
X31476190Y-90962619D02*
X31571428Y-91105476D01*
X31571428Y-91105476D02*
X31666666Y-91200714D01*
X31666666Y-91200714D02*
X31761904Y-91248333D01*
X30238095Y-91962619D02*
X30809523Y-91962619D01*
X30523809Y-91962619D02*
X30523809Y-90962619D01*
X30523809Y-90962619D02*
X30619047Y-91105476D01*
X30619047Y-91105476D02*
X30714285Y-91200714D01*
X30714285Y-91200714D02*
X30809523Y-91248333D01*
%TO.C,C4*%
X180266666Y-35147380D02*
X180314285Y-35195000D01*
X180314285Y-35195000D02*
X180457142Y-35242619D01*
X180457142Y-35242619D02*
X180552380Y-35242619D01*
X180552380Y-35242619D02*
X180695237Y-35195000D01*
X180695237Y-35195000D02*
X180790475Y-35099761D01*
X180790475Y-35099761D02*
X180838094Y-35004523D01*
X180838094Y-35004523D02*
X180885713Y-34814047D01*
X180885713Y-34814047D02*
X180885713Y-34671190D01*
X180885713Y-34671190D02*
X180838094Y-34480714D01*
X180838094Y-34480714D02*
X180790475Y-34385476D01*
X180790475Y-34385476D02*
X180695237Y-34290238D01*
X180695237Y-34290238D02*
X180552380Y-34242619D01*
X180552380Y-34242619D02*
X180457142Y-34242619D01*
X180457142Y-34242619D02*
X180314285Y-34290238D01*
X180314285Y-34290238D02*
X180266666Y-34337857D01*
X179409523Y-34575952D02*
X179409523Y-35242619D01*
X179647618Y-34195000D02*
X179885713Y-34909285D01*
X179885713Y-34909285D02*
X179266666Y-34909285D01*
%TO.C,D2*%
X50238094Y-49462619D02*
X50238094Y-48462619D01*
X50238094Y-48462619D02*
X49999999Y-48462619D01*
X49999999Y-48462619D02*
X49857142Y-48510238D01*
X49857142Y-48510238D02*
X49761904Y-48605476D01*
X49761904Y-48605476D02*
X49714285Y-48700714D01*
X49714285Y-48700714D02*
X49666666Y-48891190D01*
X49666666Y-48891190D02*
X49666666Y-49034047D01*
X49666666Y-49034047D02*
X49714285Y-49224523D01*
X49714285Y-49224523D02*
X49761904Y-49319761D01*
X49761904Y-49319761D02*
X49857142Y-49415000D01*
X49857142Y-49415000D02*
X49999999Y-49462619D01*
X49999999Y-49462619D02*
X50238094Y-49462619D01*
X49285713Y-48557857D02*
X49238094Y-48510238D01*
X49238094Y-48510238D02*
X49142856Y-48462619D01*
X49142856Y-48462619D02*
X48904761Y-48462619D01*
X48904761Y-48462619D02*
X48809523Y-48510238D01*
X48809523Y-48510238D02*
X48761904Y-48557857D01*
X48761904Y-48557857D02*
X48714285Y-48653095D01*
X48714285Y-48653095D02*
X48714285Y-48748333D01*
X48714285Y-48748333D02*
X48761904Y-48891190D01*
X48761904Y-48891190D02*
X49333332Y-49462619D01*
X49333332Y-49462619D02*
X48714285Y-49462619D01*
%TO.C,D26*%
X176714285Y-66462619D02*
X176714285Y-65462619D01*
X176714285Y-65462619D02*
X176476190Y-65462619D01*
X176476190Y-65462619D02*
X176333333Y-65510238D01*
X176333333Y-65510238D02*
X176238095Y-65605476D01*
X176238095Y-65605476D02*
X176190476Y-65700714D01*
X176190476Y-65700714D02*
X176142857Y-65891190D01*
X176142857Y-65891190D02*
X176142857Y-66034047D01*
X176142857Y-66034047D02*
X176190476Y-66224523D01*
X176190476Y-66224523D02*
X176238095Y-66319761D01*
X176238095Y-66319761D02*
X176333333Y-66415000D01*
X176333333Y-66415000D02*
X176476190Y-66462619D01*
X176476190Y-66462619D02*
X176714285Y-66462619D01*
X175761904Y-65557857D02*
X175714285Y-65510238D01*
X175714285Y-65510238D02*
X175619047Y-65462619D01*
X175619047Y-65462619D02*
X175380952Y-65462619D01*
X175380952Y-65462619D02*
X175285714Y-65510238D01*
X175285714Y-65510238D02*
X175238095Y-65557857D01*
X175238095Y-65557857D02*
X175190476Y-65653095D01*
X175190476Y-65653095D02*
X175190476Y-65748333D01*
X175190476Y-65748333D02*
X175238095Y-65891190D01*
X175238095Y-65891190D02*
X175809523Y-66462619D01*
X175809523Y-66462619D02*
X175190476Y-66462619D01*
X174333333Y-65462619D02*
X174523809Y-65462619D01*
X174523809Y-65462619D02*
X174619047Y-65510238D01*
X174619047Y-65510238D02*
X174666666Y-65557857D01*
X174666666Y-65557857D02*
X174761904Y-65700714D01*
X174761904Y-65700714D02*
X174809523Y-65891190D01*
X174809523Y-65891190D02*
X174809523Y-66272142D01*
X174809523Y-66272142D02*
X174761904Y-66367380D01*
X174761904Y-66367380D02*
X174714285Y-66415000D01*
X174714285Y-66415000D02*
X174619047Y-66462619D01*
X174619047Y-66462619D02*
X174428571Y-66462619D01*
X174428571Y-66462619D02*
X174333333Y-66415000D01*
X174333333Y-66415000D02*
X174285714Y-66367380D01*
X174285714Y-66367380D02*
X174238095Y-66272142D01*
X174238095Y-66272142D02*
X174238095Y-66034047D01*
X174238095Y-66034047D02*
X174285714Y-65938809D01*
X174285714Y-65938809D02*
X174333333Y-65891190D01*
X174333333Y-65891190D02*
X174428571Y-65843571D01*
X174428571Y-65843571D02*
X174619047Y-65843571D01*
X174619047Y-65843571D02*
X174714285Y-65891190D01*
X174714285Y-65891190D02*
X174761904Y-65938809D01*
X174761904Y-65938809D02*
X174809523Y-66034047D01*
%TO.C,J1*%
X55862619Y-28416666D02*
X56576904Y-28416666D01*
X56576904Y-28416666D02*
X56719761Y-28369047D01*
X56719761Y-28369047D02*
X56815000Y-28273809D01*
X56815000Y-28273809D02*
X56862619Y-28130952D01*
X56862619Y-28130952D02*
X56862619Y-28035714D01*
X56862619Y-29416666D02*
X56862619Y-28845238D01*
X56862619Y-29130952D02*
X55862619Y-29130952D01*
X55862619Y-29130952D02*
X56005476Y-29035714D01*
X56005476Y-29035714D02*
X56100714Y-28940476D01*
X56100714Y-28940476D02*
X56148333Y-28845238D01*
%TO.C,D22*%
X158714285Y-40962619D02*
X158714285Y-39962619D01*
X158714285Y-39962619D02*
X158476190Y-39962619D01*
X158476190Y-39962619D02*
X158333333Y-40010238D01*
X158333333Y-40010238D02*
X158238095Y-40105476D01*
X158238095Y-40105476D02*
X158190476Y-40200714D01*
X158190476Y-40200714D02*
X158142857Y-40391190D01*
X158142857Y-40391190D02*
X158142857Y-40534047D01*
X158142857Y-40534047D02*
X158190476Y-40724523D01*
X158190476Y-40724523D02*
X158238095Y-40819761D01*
X158238095Y-40819761D02*
X158333333Y-40915000D01*
X158333333Y-40915000D02*
X158476190Y-40962619D01*
X158476190Y-40962619D02*
X158714285Y-40962619D01*
X157761904Y-40057857D02*
X157714285Y-40010238D01*
X157714285Y-40010238D02*
X157619047Y-39962619D01*
X157619047Y-39962619D02*
X157380952Y-39962619D01*
X157380952Y-39962619D02*
X157285714Y-40010238D01*
X157285714Y-40010238D02*
X157238095Y-40057857D01*
X157238095Y-40057857D02*
X157190476Y-40153095D01*
X157190476Y-40153095D02*
X157190476Y-40248333D01*
X157190476Y-40248333D02*
X157238095Y-40391190D01*
X157238095Y-40391190D02*
X157809523Y-40962619D01*
X157809523Y-40962619D02*
X157190476Y-40962619D01*
X156809523Y-40057857D02*
X156761904Y-40010238D01*
X156761904Y-40010238D02*
X156666666Y-39962619D01*
X156666666Y-39962619D02*
X156428571Y-39962619D01*
X156428571Y-39962619D02*
X156333333Y-40010238D01*
X156333333Y-40010238D02*
X156285714Y-40057857D01*
X156285714Y-40057857D02*
X156238095Y-40153095D01*
X156238095Y-40153095D02*
X156238095Y-40248333D01*
X156238095Y-40248333D02*
X156285714Y-40391190D01*
X156285714Y-40391190D02*
X156857142Y-40962619D01*
X156857142Y-40962619D02*
X156238095Y-40962619D01*
%TO.C,D5*%
X104238094Y-40962619D02*
X104238094Y-39962619D01*
X104238094Y-39962619D02*
X103999999Y-39962619D01*
X103999999Y-39962619D02*
X103857142Y-40010238D01*
X103857142Y-40010238D02*
X103761904Y-40105476D01*
X103761904Y-40105476D02*
X103714285Y-40200714D01*
X103714285Y-40200714D02*
X103666666Y-40391190D01*
X103666666Y-40391190D02*
X103666666Y-40534047D01*
X103666666Y-40534047D02*
X103714285Y-40724523D01*
X103714285Y-40724523D02*
X103761904Y-40819761D01*
X103761904Y-40819761D02*
X103857142Y-40915000D01*
X103857142Y-40915000D02*
X103999999Y-40962619D01*
X103999999Y-40962619D02*
X104238094Y-40962619D01*
X102761904Y-39962619D02*
X103238094Y-39962619D01*
X103238094Y-39962619D02*
X103285713Y-40438809D01*
X103285713Y-40438809D02*
X103238094Y-40391190D01*
X103238094Y-40391190D02*
X103142856Y-40343571D01*
X103142856Y-40343571D02*
X102904761Y-40343571D01*
X102904761Y-40343571D02*
X102809523Y-40391190D01*
X102809523Y-40391190D02*
X102761904Y-40438809D01*
X102761904Y-40438809D02*
X102714285Y-40534047D01*
X102714285Y-40534047D02*
X102714285Y-40772142D01*
X102714285Y-40772142D02*
X102761904Y-40867380D01*
X102761904Y-40867380D02*
X102809523Y-40915000D01*
X102809523Y-40915000D02*
X102904761Y-40962619D01*
X102904761Y-40962619D02*
X103142856Y-40962619D01*
X103142856Y-40962619D02*
X103238094Y-40915000D01*
X103238094Y-40915000D02*
X103285713Y-40867380D01*
%TO.C,D10*%
X104714285Y-57962619D02*
X104714285Y-56962619D01*
X104714285Y-56962619D02*
X104476190Y-56962619D01*
X104476190Y-56962619D02*
X104333333Y-57010238D01*
X104333333Y-57010238D02*
X104238095Y-57105476D01*
X104238095Y-57105476D02*
X104190476Y-57200714D01*
X104190476Y-57200714D02*
X104142857Y-57391190D01*
X104142857Y-57391190D02*
X104142857Y-57534047D01*
X104142857Y-57534047D02*
X104190476Y-57724523D01*
X104190476Y-57724523D02*
X104238095Y-57819761D01*
X104238095Y-57819761D02*
X104333333Y-57915000D01*
X104333333Y-57915000D02*
X104476190Y-57962619D01*
X104476190Y-57962619D02*
X104714285Y-57962619D01*
X103190476Y-57962619D02*
X103761904Y-57962619D01*
X103476190Y-57962619D02*
X103476190Y-56962619D01*
X103476190Y-56962619D02*
X103571428Y-57105476D01*
X103571428Y-57105476D02*
X103666666Y-57200714D01*
X103666666Y-57200714D02*
X103761904Y-57248333D01*
X102571428Y-56962619D02*
X102476190Y-56962619D01*
X102476190Y-56962619D02*
X102380952Y-57010238D01*
X102380952Y-57010238D02*
X102333333Y-57057857D01*
X102333333Y-57057857D02*
X102285714Y-57153095D01*
X102285714Y-57153095D02*
X102238095Y-57343571D01*
X102238095Y-57343571D02*
X102238095Y-57581666D01*
X102238095Y-57581666D02*
X102285714Y-57772142D01*
X102285714Y-57772142D02*
X102333333Y-57867380D01*
X102333333Y-57867380D02*
X102380952Y-57915000D01*
X102380952Y-57915000D02*
X102476190Y-57962619D01*
X102476190Y-57962619D02*
X102571428Y-57962619D01*
X102571428Y-57962619D02*
X102666666Y-57915000D01*
X102666666Y-57915000D02*
X102714285Y-57867380D01*
X102714285Y-57867380D02*
X102761904Y-57772142D01*
X102761904Y-57772142D02*
X102809523Y-57581666D01*
X102809523Y-57581666D02*
X102809523Y-57343571D01*
X102809523Y-57343571D02*
X102761904Y-57153095D01*
X102761904Y-57153095D02*
X102714285Y-57057857D01*
X102714285Y-57057857D02*
X102666666Y-57010238D01*
X102666666Y-57010238D02*
X102571428Y-56962619D01*
%TO.C,D14*%
X86714285Y-74962619D02*
X86714285Y-73962619D01*
X86714285Y-73962619D02*
X86476190Y-73962619D01*
X86476190Y-73962619D02*
X86333333Y-74010238D01*
X86333333Y-74010238D02*
X86238095Y-74105476D01*
X86238095Y-74105476D02*
X86190476Y-74200714D01*
X86190476Y-74200714D02*
X86142857Y-74391190D01*
X86142857Y-74391190D02*
X86142857Y-74534047D01*
X86142857Y-74534047D02*
X86190476Y-74724523D01*
X86190476Y-74724523D02*
X86238095Y-74819761D01*
X86238095Y-74819761D02*
X86333333Y-74915000D01*
X86333333Y-74915000D02*
X86476190Y-74962619D01*
X86476190Y-74962619D02*
X86714285Y-74962619D01*
X85190476Y-74962619D02*
X85761904Y-74962619D01*
X85476190Y-74962619D02*
X85476190Y-73962619D01*
X85476190Y-73962619D02*
X85571428Y-74105476D01*
X85571428Y-74105476D02*
X85666666Y-74200714D01*
X85666666Y-74200714D02*
X85761904Y-74248333D01*
X84333333Y-74295952D02*
X84333333Y-74962619D01*
X84571428Y-73915000D02*
X84809523Y-74629285D01*
X84809523Y-74629285D02*
X84190476Y-74629285D01*
%TO.C,D31*%
X189212619Y-85910714D02*
X188212619Y-85910714D01*
X188212619Y-85910714D02*
X188212619Y-86148809D01*
X188212619Y-86148809D02*
X188260238Y-86291666D01*
X188260238Y-86291666D02*
X188355476Y-86386904D01*
X188355476Y-86386904D02*
X188450714Y-86434523D01*
X188450714Y-86434523D02*
X188641190Y-86482142D01*
X188641190Y-86482142D02*
X188784047Y-86482142D01*
X188784047Y-86482142D02*
X188974523Y-86434523D01*
X188974523Y-86434523D02*
X189069761Y-86386904D01*
X189069761Y-86386904D02*
X189165000Y-86291666D01*
X189165000Y-86291666D02*
X189212619Y-86148809D01*
X189212619Y-86148809D02*
X189212619Y-85910714D01*
X188212619Y-86815476D02*
X188212619Y-87434523D01*
X188212619Y-87434523D02*
X188593571Y-87101190D01*
X188593571Y-87101190D02*
X188593571Y-87244047D01*
X188593571Y-87244047D02*
X188641190Y-87339285D01*
X188641190Y-87339285D02*
X188688809Y-87386904D01*
X188688809Y-87386904D02*
X188784047Y-87434523D01*
X188784047Y-87434523D02*
X189022142Y-87434523D01*
X189022142Y-87434523D02*
X189117380Y-87386904D01*
X189117380Y-87386904D02*
X189165000Y-87339285D01*
X189165000Y-87339285D02*
X189212619Y-87244047D01*
X189212619Y-87244047D02*
X189212619Y-86958333D01*
X189212619Y-86958333D02*
X189165000Y-86863095D01*
X189165000Y-86863095D02*
X189117380Y-86815476D01*
X189212619Y-88386904D02*
X189212619Y-87815476D01*
X189212619Y-88101190D02*
X188212619Y-88101190D01*
X188212619Y-88101190D02*
X188355476Y-88005952D01*
X188355476Y-88005952D02*
X188450714Y-87910714D01*
X188450714Y-87910714D02*
X188498333Y-87815476D01*
%TO.C,C1*%
X54087666Y-16848380D02*
X54135285Y-16896000D01*
X54135285Y-16896000D02*
X54278142Y-16943619D01*
X54278142Y-16943619D02*
X54373380Y-16943619D01*
X54373380Y-16943619D02*
X54516237Y-16896000D01*
X54516237Y-16896000D02*
X54611475Y-16800761D01*
X54611475Y-16800761D02*
X54659094Y-16705523D01*
X54659094Y-16705523D02*
X54706713Y-16515047D01*
X54706713Y-16515047D02*
X54706713Y-16372190D01*
X54706713Y-16372190D02*
X54659094Y-16181714D01*
X54659094Y-16181714D02*
X54611475Y-16086476D01*
X54611475Y-16086476D02*
X54516237Y-15991238D01*
X54516237Y-15991238D02*
X54373380Y-15943619D01*
X54373380Y-15943619D02*
X54278142Y-15943619D01*
X54278142Y-15943619D02*
X54135285Y-15991238D01*
X54135285Y-15991238D02*
X54087666Y-16038857D01*
X53135285Y-16943619D02*
X53706713Y-16943619D01*
X53420999Y-16943619D02*
X53420999Y-15943619D01*
X53420999Y-15943619D02*
X53516237Y-16086476D01*
X53516237Y-16086476D02*
X53611475Y-16181714D01*
X53611475Y-16181714D02*
X53706713Y-16229333D01*
%TO.C,MX12*%
X47000000Y-78000000D02*
X47000000Y-78500000D01*
X47000000Y-82100000D02*
X47000000Y-82700000D01*
X47000000Y-82700000D02*
X51500000Y-82700000D01*
X51500000Y-78000000D02*
X47000000Y-78000000D01*
X51500000Y-78700000D02*
X51500000Y-78000000D01*
X52000000Y-83200000D02*
X52000000Y-84200000D01*
X52500000Y-84700000D02*
X52000000Y-84200000D01*
X55500000Y-80200000D02*
X53000000Y-80200000D01*
X55500000Y-84700000D02*
X52500000Y-84700000D01*
X56000000Y-80700000D02*
X55500000Y-80200000D01*
X56000000Y-84200000D02*
X55500000Y-84700000D01*
X52000000Y-83200000D02*
G75*
G03*
X51500000Y-82700000I-500001J-1D01*
G01*
X51500000Y-78700000D02*
G75*
G03*
X53000000Y-80200000I1500001J1D01*
G01*
%TO.C,MX6*%
X29000000Y-69500000D02*
X29000000Y-70000000D01*
X29000000Y-73600000D02*
X29000000Y-74200000D01*
X29000000Y-74200000D02*
X33500000Y-74200000D01*
X33500000Y-69500000D02*
X29000000Y-69500000D01*
X33500000Y-70200000D02*
X33500000Y-69500000D01*
X34000000Y-74700000D02*
X34000000Y-75700000D01*
X34500000Y-76200000D02*
X34000000Y-75700000D01*
X37500000Y-71700000D02*
X35000000Y-71700000D01*
X37500000Y-76200000D02*
X34500000Y-76200000D01*
X38000000Y-72200000D02*
X37500000Y-71700000D01*
X38000000Y-75700000D02*
X37500000Y-76200000D01*
X34000000Y-74700000D02*
G75*
G03*
X33500000Y-74200000I-500001J-1D01*
G01*
X33500000Y-70200000D02*
G75*
G03*
X35000000Y-71700000I1500001J1D01*
G01*
%TO.C,MX15*%
X101000000Y-69500000D02*
X101000000Y-70000000D01*
X101000000Y-73600000D02*
X101000000Y-74200000D01*
X101000000Y-74200000D02*
X105500000Y-74200000D01*
X105500000Y-69500000D02*
X101000000Y-69500000D01*
X105500000Y-70200000D02*
X105500000Y-69500000D01*
X106000000Y-74700000D02*
X106000000Y-75700000D01*
X106500000Y-76200000D02*
X106000000Y-75700000D01*
X109500000Y-71700000D02*
X107000000Y-71700000D01*
X109500000Y-76200000D02*
X106500000Y-76200000D01*
X110000000Y-72200000D02*
X109500000Y-71700000D01*
X110000000Y-75700000D02*
X109500000Y-76200000D01*
X106000000Y-74700000D02*
G75*
G03*
X105500000Y-74200000I-500001J-1D01*
G01*
X105500000Y-70200000D02*
G75*
G03*
X107000000Y-71700000I1500001J1D01*
G01*
%TO.C,MX31*%
X173000000Y-78000000D02*
X173000000Y-78500000D01*
X173000000Y-82100000D02*
X173000000Y-82700000D01*
X173000000Y-82700000D02*
X177500000Y-82700000D01*
X177500000Y-78000000D02*
X173000000Y-78000000D01*
X177500000Y-78700000D02*
X177500000Y-78000000D01*
X178000000Y-83200000D02*
X178000000Y-84200000D01*
X178500000Y-84700000D02*
X178000000Y-84200000D01*
X181500000Y-80200000D02*
X179000000Y-80200000D01*
X181500000Y-84700000D02*
X178500000Y-84700000D01*
X182000000Y-80700000D02*
X181500000Y-80200000D01*
X182000000Y-84200000D02*
X181500000Y-84700000D01*
X178000000Y-83200000D02*
G75*
G03*
X177500000Y-82700000I-500001J-1D01*
G01*
X177500000Y-78700000D02*
G75*
G03*
X179000000Y-80200000I1500001J1D01*
G01*
%TO.C,MX27*%
X155000000Y-52500000D02*
X155000000Y-53000000D01*
X155000000Y-56600000D02*
X155000000Y-57200000D01*
X155000000Y-57200000D02*
X159500000Y-57200000D01*
X159500000Y-52500000D02*
X155000000Y-52500000D01*
X159500000Y-53200000D02*
X159500000Y-52500000D01*
X160000000Y-57700000D02*
X160000000Y-58700000D01*
X160500000Y-59200000D02*
X160000000Y-58700000D01*
X163500000Y-54700000D02*
X161000000Y-54700000D01*
X163500000Y-59200000D02*
X160500000Y-59200000D01*
X164000000Y-55200000D02*
X163500000Y-54700000D01*
X164000000Y-58700000D02*
X163500000Y-59200000D01*
X160000000Y-57700000D02*
G75*
G03*
X159500000Y-57200000I-500001J-1D01*
G01*
X159500000Y-53200000D02*
G75*
G03*
X161000000Y-54700000I1500001J1D01*
G01*
%TO.C,MX5*%
X101000000Y-35500000D02*
X101000000Y-36000000D01*
X101000000Y-39600000D02*
X101000000Y-40200000D01*
X101000000Y-40200000D02*
X105500000Y-40200000D01*
X105500000Y-35500000D02*
X101000000Y-35500000D01*
X105500000Y-36200000D02*
X105500000Y-35500000D01*
X106000000Y-40700000D02*
X106000000Y-41700000D01*
X106500000Y-42200000D02*
X106000000Y-41700000D01*
X109500000Y-37700000D02*
X107000000Y-37700000D01*
X109500000Y-42200000D02*
X106500000Y-42200000D01*
X110000000Y-38200000D02*
X109500000Y-37700000D01*
X110000000Y-41700000D02*
X109500000Y-42200000D01*
X106000000Y-40700000D02*
G75*
G03*
X105500000Y-40200000I-500001J-1D01*
G01*
X105500000Y-36200000D02*
G75*
G03*
X107000000Y-37700000I1500001J1D01*
G01*
%TO.C,MX11*%
X29000000Y-86500000D02*
X29000000Y-87000000D01*
X29000000Y-90600000D02*
X29000000Y-91200000D01*
X29000000Y-91200000D02*
X33500000Y-91200000D01*
X33500000Y-86500000D02*
X29000000Y-86500000D01*
X33500000Y-87200000D02*
X33500000Y-86500000D01*
X34000000Y-91700000D02*
X34000000Y-92700000D01*
X34500000Y-93200000D02*
X34000000Y-92700000D01*
X37500000Y-88700000D02*
X35000000Y-88700000D01*
X37500000Y-93200000D02*
X34500000Y-93200000D01*
X38000000Y-89200000D02*
X37500000Y-88700000D01*
X38000000Y-92700000D02*
X37500000Y-93200000D01*
X34000000Y-91700000D02*
G75*
G03*
X33500000Y-91200000I-500001J-1D01*
G01*
X33500000Y-87200000D02*
G75*
G03*
X35000000Y-88700000I1500001J1D01*
G01*
%TO.C,MX29*%
X119000000Y-52500000D02*
X119000000Y-53000000D01*
X119000000Y-56600000D02*
X119000000Y-57200000D01*
X119000000Y-57200000D02*
X123500000Y-57200000D01*
X123500000Y-52500000D02*
X119000000Y-52500000D01*
X123500000Y-53200000D02*
X123500000Y-52500000D01*
X124000000Y-57700000D02*
X124000000Y-58700000D01*
X124500000Y-59200000D02*
X124000000Y-58700000D01*
X127500000Y-54700000D02*
X125000000Y-54700000D01*
X127500000Y-59200000D02*
X124500000Y-59200000D01*
X128000000Y-55200000D02*
X127500000Y-54700000D01*
X128000000Y-58700000D02*
X127500000Y-59200000D01*
X124000000Y-57700000D02*
G75*
G03*
X123500000Y-57200000I-500001J-1D01*
G01*
X123500000Y-53200000D02*
G75*
G03*
X125000000Y-54700000I1500001J1D01*
G01*
%TO.C,MX16*%
X65000000Y-86500000D02*
X65000000Y-87000000D01*
X65000000Y-90600000D02*
X65000000Y-91200000D01*
X65000000Y-91200000D02*
X69500000Y-91200000D01*
X69500000Y-86500000D02*
X65000000Y-86500000D01*
X69500000Y-87200000D02*
X69500000Y-86500000D01*
X70000000Y-91700000D02*
X70000000Y-92700000D01*
X70500000Y-93200000D02*
X70000000Y-92700000D01*
X73500000Y-88700000D02*
X71000000Y-88700000D01*
X73500000Y-93200000D02*
X70500000Y-93200000D01*
X74000000Y-89200000D02*
X73500000Y-88700000D01*
X74000000Y-92700000D02*
X73500000Y-93200000D01*
X70000000Y-91700000D02*
G75*
G03*
X69500000Y-91200000I-500001J-1D01*
G01*
X69500000Y-87200000D02*
G75*
G03*
X71000000Y-88700000I1500001J1D01*
G01*
%TO.C,MX2*%
X47000000Y-44000000D02*
X47000000Y-44500000D01*
X47000000Y-48100000D02*
X47000000Y-48700000D01*
X47000000Y-48700000D02*
X51500000Y-48700000D01*
X51500000Y-44000000D02*
X47000000Y-44000000D01*
X51500000Y-44700000D02*
X51500000Y-44000000D01*
X52000000Y-49200000D02*
X52000000Y-50200000D01*
X52500000Y-50700000D02*
X52000000Y-50200000D01*
X55500000Y-46200000D02*
X53000000Y-46200000D01*
X55500000Y-50700000D02*
X52500000Y-50700000D01*
X56000000Y-46700000D02*
X55500000Y-46200000D01*
X56000000Y-50200000D02*
X55500000Y-50700000D01*
X52000000Y-49200000D02*
G75*
G03*
X51500000Y-48700000I-500001J-1D01*
G01*
X51500000Y-44700000D02*
G75*
G03*
X53000000Y-46200000I1500001J1D01*
G01*
%TO.C,MX10*%
X101000000Y-52500000D02*
X101000000Y-53000000D01*
X101000000Y-56600000D02*
X101000000Y-57200000D01*
X101000000Y-57200000D02*
X105500000Y-57200000D01*
X105500000Y-52500000D02*
X101000000Y-52500000D01*
X105500000Y-53200000D02*
X105500000Y-52500000D01*
X106000000Y-57700000D02*
X106000000Y-58700000D01*
X106500000Y-59200000D02*
X106000000Y-58700000D01*
X109500000Y-54700000D02*
X107000000Y-54700000D01*
X109500000Y-59200000D02*
X106500000Y-59200000D01*
X110000000Y-55200000D02*
X109500000Y-54700000D01*
X110000000Y-58700000D02*
X109500000Y-59200000D01*
X106000000Y-57700000D02*
G75*
G03*
X105500000Y-57200000I-500001J-1D01*
G01*
X105500000Y-53200000D02*
G75*
G03*
X107000000Y-54700000I1500001J1D01*
G01*
%TO.C,MX30*%
X191000000Y-86500000D02*
X191000000Y-87000000D01*
X191000000Y-90600000D02*
X191000000Y-91200000D01*
X191000000Y-91200000D02*
X195500000Y-91200000D01*
X195500000Y-86500000D02*
X191000000Y-86500000D01*
X195500000Y-87200000D02*
X195500000Y-86500000D01*
X196000000Y-91700000D02*
X196000000Y-92700000D01*
X196500000Y-93200000D02*
X196000000Y-92700000D01*
X199500000Y-88700000D02*
X197000000Y-88700000D01*
X199500000Y-93200000D02*
X196500000Y-93200000D01*
X200000000Y-89200000D02*
X199500000Y-88700000D01*
X200000000Y-92700000D02*
X199500000Y-93200000D01*
X196000000Y-91700000D02*
G75*
G03*
X195500000Y-91200000I-500001J-1D01*
G01*
X195500000Y-87200000D02*
G75*
G03*
X197000000Y-88700000I1500001J1D01*
G01*
%TO.C,MX34*%
X119000000Y-69500000D02*
X119000000Y-70000000D01*
X119000000Y-73600000D02*
X119000000Y-74200000D01*
X119000000Y-74200000D02*
X123500000Y-74200000D01*
X123500000Y-69500000D02*
X119000000Y-69500000D01*
X123500000Y-70200000D02*
X123500000Y-69500000D01*
X124000000Y-74700000D02*
X124000000Y-75700000D01*
X124500000Y-76200000D02*
X124000000Y-75700000D01*
X127500000Y-71700000D02*
X125000000Y-71700000D01*
X127500000Y-76200000D02*
X124500000Y-76200000D01*
X128000000Y-72200000D02*
X127500000Y-71700000D01*
X128000000Y-75700000D02*
X127500000Y-76200000D01*
X124000000Y-74700000D02*
G75*
G03*
X123500000Y-74200000I-500001J-1D01*
G01*
X123500000Y-70200000D02*
G75*
G03*
X125000000Y-71700000I1500001J1D01*
G01*
%TO.C,MX3*%
X65000000Y-35500000D02*
X65000000Y-36000000D01*
X65000000Y-39600000D02*
X65000000Y-40200000D01*
X65000000Y-40200000D02*
X69500000Y-40200000D01*
X69500000Y-35500000D02*
X65000000Y-35500000D01*
X69500000Y-36200000D02*
X69500000Y-35500000D01*
X70000000Y-40700000D02*
X70000000Y-41700000D01*
X70500000Y-42200000D02*
X70000000Y-41700000D01*
X73500000Y-37700000D02*
X71000000Y-37700000D01*
X73500000Y-42200000D02*
X70500000Y-42200000D01*
X74000000Y-38200000D02*
X73500000Y-37700000D01*
X74000000Y-41700000D02*
X73500000Y-42200000D01*
X70000000Y-40700000D02*
G75*
G03*
X69500000Y-40200000I-500001J-1D01*
G01*
X69500000Y-36200000D02*
G75*
G03*
X71000000Y-37700000I1500001J1D01*
G01*
%TO.C,MX21*%
X173000000Y-44000000D02*
X173000000Y-44500000D01*
X173000000Y-48100000D02*
X173000000Y-48700000D01*
X173000000Y-48700000D02*
X177500000Y-48700000D01*
X177500000Y-44000000D02*
X173000000Y-44000000D01*
X177500000Y-44700000D02*
X177500000Y-44000000D01*
X178000000Y-49200000D02*
X178000000Y-50200000D01*
X178500000Y-50700000D02*
X178000000Y-50200000D01*
X181500000Y-46200000D02*
X179000000Y-46200000D01*
X181500000Y-50700000D02*
X178500000Y-50700000D01*
X182000000Y-46700000D02*
X181500000Y-46200000D01*
X182000000Y-50200000D02*
X181500000Y-50700000D01*
X178000000Y-49200000D02*
G75*
G03*
X177500000Y-48700000I-500001J-1D01*
G01*
X177500000Y-44700000D02*
G75*
G03*
X179000000Y-46200000I1500001J1D01*
G01*
%TO.C,MX20*%
X191000000Y-52500000D02*
X191000000Y-53000000D01*
X191000000Y-56600000D02*
X191000000Y-57200000D01*
X191000000Y-57200000D02*
X195500000Y-57200000D01*
X195500000Y-52500000D02*
X191000000Y-52500000D01*
X195500000Y-53200000D02*
X195500000Y-52500000D01*
X196000000Y-57700000D02*
X196000000Y-58700000D01*
X196500000Y-59200000D02*
X196000000Y-58700000D01*
X199500000Y-54700000D02*
X197000000Y-54700000D01*
X199500000Y-59200000D02*
X196500000Y-59200000D01*
X200000000Y-55200000D02*
X199500000Y-54700000D01*
X200000000Y-58700000D02*
X199500000Y-59200000D01*
X196000000Y-57700000D02*
G75*
G03*
X195500000Y-57200000I-500001J-1D01*
G01*
X195500000Y-53200000D02*
G75*
G03*
X197000000Y-54700000I1500001J1D01*
G01*
%TO.C,MX7*%
X47000000Y-61000000D02*
X47000000Y-61500000D01*
X47000000Y-65100000D02*
X47000000Y-65700000D01*
X47000000Y-65700000D02*
X51500000Y-65700000D01*
X51500000Y-61000000D02*
X47000000Y-61000000D01*
X51500000Y-61700000D02*
X51500000Y-61000000D01*
X52000000Y-66200000D02*
X52000000Y-67200000D01*
X52500000Y-67700000D02*
X52000000Y-67200000D01*
X55500000Y-63200000D02*
X53000000Y-63200000D01*
X55500000Y-67700000D02*
X52500000Y-67700000D01*
X56000000Y-63700000D02*
X55500000Y-63200000D01*
X56000000Y-67200000D02*
X55500000Y-67700000D01*
X52000000Y-66200000D02*
G75*
G03*
X51500000Y-65700000I-500001J-1D01*
G01*
X51500000Y-61700000D02*
G75*
G03*
X53000000Y-63200000I1500001J1D01*
G01*
%TO.C,MX32*%
X155000000Y-69500000D02*
X155000000Y-70000000D01*
X155000000Y-73600000D02*
X155000000Y-74200000D01*
X155000000Y-74200000D02*
X159500000Y-74200000D01*
X159500000Y-69500000D02*
X155000000Y-69500000D01*
X159500000Y-70200000D02*
X159500000Y-69500000D01*
X160000000Y-74700000D02*
X160000000Y-75700000D01*
X160500000Y-76200000D02*
X160000000Y-75700000D01*
X163500000Y-71700000D02*
X161000000Y-71700000D01*
X163500000Y-76200000D02*
X160500000Y-76200000D01*
X164000000Y-72200000D02*
X163500000Y-71700000D01*
X164000000Y-75700000D02*
X163500000Y-76200000D01*
X160000000Y-74700000D02*
G75*
G03*
X159500000Y-74200000I-500001J-1D01*
G01*
X159500000Y-70200000D02*
G75*
G03*
X161000000Y-71700000I1500001J1D01*
G01*
%TO.C,MX13*%
X65000000Y-69500000D02*
X65000000Y-70000000D01*
X65000000Y-73600000D02*
X65000000Y-74200000D01*
X65000000Y-74200000D02*
X69500000Y-74200000D01*
X69500000Y-69500000D02*
X65000000Y-69500000D01*
X69500000Y-70200000D02*
X69500000Y-69500000D01*
X70000000Y-74700000D02*
X70000000Y-75700000D01*
X70500000Y-76200000D02*
X70000000Y-75700000D01*
X73500000Y-71700000D02*
X71000000Y-71700000D01*
X73500000Y-76200000D02*
X70500000Y-76200000D01*
X74000000Y-72200000D02*
X73500000Y-71700000D01*
X74000000Y-75700000D02*
X73500000Y-76200000D01*
X70000000Y-74700000D02*
G75*
G03*
X69500000Y-74200000I-500001J-1D01*
G01*
X69500000Y-70200000D02*
G75*
G03*
X71000000Y-71700000I1500001J1D01*
G01*
%TO.C,MX35*%
X155000000Y-86500000D02*
X155000000Y-87000000D01*
X155000000Y-90600000D02*
X155000000Y-91200000D01*
X155000000Y-91200000D02*
X159500000Y-91200000D01*
X159500000Y-86500000D02*
X155000000Y-86500000D01*
X159500000Y-87200000D02*
X159500000Y-86500000D01*
X160000000Y-91700000D02*
X160000000Y-92700000D01*
X160500000Y-93200000D02*
X160000000Y-92700000D01*
X163500000Y-88700000D02*
X161000000Y-88700000D01*
X163500000Y-93200000D02*
X160500000Y-93200000D01*
X164000000Y-89200000D02*
X163500000Y-88700000D01*
X164000000Y-92700000D02*
X163500000Y-93200000D01*
X160000000Y-91700000D02*
G75*
G03*
X159500000Y-91200000I-500001J-1D01*
G01*
X159500000Y-87200000D02*
G75*
G03*
X161000000Y-88700000I1500001J1D01*
G01*
%TO.C,MX33*%
X137000000Y-69500000D02*
X137000000Y-70000000D01*
X137000000Y-73600000D02*
X137000000Y-74200000D01*
X137000000Y-74200000D02*
X141500000Y-74200000D01*
X141500000Y-69500000D02*
X137000000Y-69500000D01*
X141500000Y-70200000D02*
X141500000Y-69500000D01*
X142000000Y-74700000D02*
X142000000Y-75700000D01*
X142500000Y-76200000D02*
X142000000Y-75700000D01*
X145500000Y-71700000D02*
X143000000Y-71700000D01*
X145500000Y-76200000D02*
X142500000Y-76200000D01*
X146000000Y-72200000D02*
X145500000Y-71700000D01*
X146000000Y-75700000D02*
X145500000Y-76200000D01*
X142000000Y-74700000D02*
G75*
G03*
X141500000Y-74200000I-500001J-1D01*
G01*
X141500000Y-70200000D02*
G75*
G03*
X143000000Y-71700000I1500001J1D01*
G01*
%TO.C,MX25*%
X191000000Y-69500000D02*
X191000000Y-70000000D01*
X191000000Y-73600000D02*
X191000000Y-74200000D01*
X191000000Y-74200000D02*
X195500000Y-74200000D01*
X195500000Y-69500000D02*
X191000000Y-69500000D01*
X195500000Y-70200000D02*
X195500000Y-69500000D01*
X196000000Y-74700000D02*
X196000000Y-75700000D01*
X196500000Y-76200000D02*
X196000000Y-75700000D01*
X199500000Y-71700000D02*
X197000000Y-71700000D01*
X199500000Y-76200000D02*
X196500000Y-76200000D01*
X200000000Y-72200000D02*
X199500000Y-71700000D01*
X200000000Y-75700000D02*
X199500000Y-76200000D01*
X196000000Y-74700000D02*
G75*
G03*
X195500000Y-74200000I-500001J-1D01*
G01*
X195500000Y-70200000D02*
G75*
G03*
X197000000Y-71700000I1500001J1D01*
G01*
%TO.C,MX14*%
X83000000Y-69500000D02*
X83000000Y-70000000D01*
X83000000Y-73600000D02*
X83000000Y-74200000D01*
X83000000Y-74200000D02*
X87500000Y-74200000D01*
X87500000Y-69500000D02*
X83000000Y-69500000D01*
X87500000Y-70200000D02*
X87500000Y-69500000D01*
X88000000Y-74700000D02*
X88000000Y-75700000D01*
X88500000Y-76200000D02*
X88000000Y-75700000D01*
X91500000Y-71700000D02*
X89000000Y-71700000D01*
X91500000Y-76200000D02*
X88500000Y-76200000D01*
X92000000Y-72200000D02*
X91500000Y-71700000D01*
X92000000Y-75700000D02*
X91500000Y-76200000D01*
X88000000Y-74700000D02*
G75*
G03*
X87500000Y-74200000I-500001J-1D01*
G01*
X87500000Y-70200000D02*
G75*
G03*
X89000000Y-71700000I1500001J1D01*
G01*
%TO.C,MX1*%
X29000000Y-52500000D02*
X29000000Y-53000000D01*
X29000000Y-56600000D02*
X29000000Y-57200000D01*
X29000000Y-57200000D02*
X33500000Y-57200000D01*
X33500000Y-52500000D02*
X29000000Y-52500000D01*
X33500000Y-53200000D02*
X33500000Y-52500000D01*
X34000000Y-57700000D02*
X34000000Y-58700000D01*
X34500000Y-59200000D02*
X34000000Y-58700000D01*
X37500000Y-54700000D02*
X35000000Y-54700000D01*
X37500000Y-59200000D02*
X34500000Y-59200000D01*
X38000000Y-55200000D02*
X37500000Y-54700000D01*
X38000000Y-58700000D02*
X37500000Y-59200000D01*
X34000000Y-57700000D02*
G75*
G03*
X33500000Y-57200000I-500001J-1D01*
G01*
X33500000Y-53200000D02*
G75*
G03*
X35000000Y-54700000I1500001J1D01*
G01*
%TO.C,MX8*%
X65000000Y-52500000D02*
X65000000Y-53000000D01*
X65000000Y-56600000D02*
X65000000Y-57200000D01*
X65000000Y-57200000D02*
X69500000Y-57200000D01*
X69500000Y-52500000D02*
X65000000Y-52500000D01*
X69500000Y-53200000D02*
X69500000Y-52500000D01*
X70000000Y-57700000D02*
X70000000Y-58700000D01*
X70500000Y-59200000D02*
X70000000Y-58700000D01*
X73500000Y-54700000D02*
X71000000Y-54700000D01*
X73500000Y-59200000D02*
X70500000Y-59200000D01*
X74000000Y-55200000D02*
X73500000Y-54700000D01*
X74000000Y-58700000D02*
X73500000Y-59200000D01*
X70000000Y-57700000D02*
G75*
G03*
X69500000Y-57200000I-500001J-1D01*
G01*
X69500000Y-53200000D02*
G75*
G03*
X71000000Y-54700000I1500001J1D01*
G01*
%TO.C,MX37*%
X119000000Y-86500000D02*
X119000000Y-87000000D01*
X119000000Y-90600000D02*
X119000000Y-91200000D01*
X119000000Y-91200000D02*
X123500000Y-91200000D01*
X123500000Y-86500000D02*
X119000000Y-86500000D01*
X123500000Y-87200000D02*
X123500000Y-86500000D01*
X124000000Y-91700000D02*
X124000000Y-92700000D01*
X124500000Y-93200000D02*
X124000000Y-92700000D01*
X127500000Y-88700000D02*
X125000000Y-88700000D01*
X127500000Y-93200000D02*
X124500000Y-93200000D01*
X128000000Y-89200000D02*
X127500000Y-88700000D01*
X128000000Y-92700000D02*
X127500000Y-93200000D01*
X124000000Y-91700000D02*
G75*
G03*
X123500000Y-91200000I-500001J-1D01*
G01*
X123500000Y-87200000D02*
G75*
G03*
X125000000Y-88700000I1500001J1D01*
G01*
%TO.C,MX28*%
X137000000Y-52500000D02*
X137000000Y-53000000D01*
X137000000Y-56600000D02*
X137000000Y-57200000D01*
X137000000Y-57200000D02*
X141500000Y-57200000D01*
X141500000Y-52500000D02*
X137000000Y-52500000D01*
X141500000Y-53200000D02*
X141500000Y-52500000D01*
X142000000Y-57700000D02*
X142000000Y-58700000D01*
X142500000Y-59200000D02*
X142000000Y-58700000D01*
X145500000Y-54700000D02*
X143000000Y-54700000D01*
X145500000Y-59200000D02*
X142500000Y-59200000D01*
X146000000Y-55200000D02*
X145500000Y-54700000D01*
X146000000Y-58700000D02*
X145500000Y-59200000D01*
X142000000Y-57700000D02*
G75*
G03*
X141500000Y-57200000I-500001J-1D01*
G01*
X141500000Y-53200000D02*
G75*
G03*
X143000000Y-54700000I1500001J1D01*
G01*
%TO.C,MX9*%
X83000000Y-52500000D02*
X83000000Y-53000000D01*
X83000000Y-56600000D02*
X83000000Y-57200000D01*
X83000000Y-57200000D02*
X87500000Y-57200000D01*
X87500000Y-52500000D02*
X83000000Y-52500000D01*
X87500000Y-53200000D02*
X87500000Y-52500000D01*
X88000000Y-57700000D02*
X88000000Y-58700000D01*
X88500000Y-59200000D02*
X88000000Y-58700000D01*
X91500000Y-54700000D02*
X89000000Y-54700000D01*
X91500000Y-59200000D02*
X88500000Y-59200000D01*
X92000000Y-55200000D02*
X91500000Y-54700000D01*
X92000000Y-58700000D02*
X91500000Y-59200000D01*
X88000000Y-57700000D02*
G75*
G03*
X87500000Y-57200000I-500001J-1D01*
G01*
X87500000Y-53200000D02*
G75*
G03*
X89000000Y-54700000I1500001J1D01*
G01*
%TO.C,MX23*%
X137000000Y-35500000D02*
X137000000Y-36000000D01*
X137000000Y-39600000D02*
X137000000Y-40200000D01*
X137000000Y-40200000D02*
X141500000Y-40200000D01*
X141500000Y-35500000D02*
X137000000Y-35500000D01*
X141500000Y-36200000D02*
X141500000Y-35500000D01*
X142000000Y-40700000D02*
X142000000Y-41700000D01*
X142500000Y-42200000D02*
X142000000Y-41700000D01*
X145500000Y-37700000D02*
X143000000Y-37700000D01*
X145500000Y-42200000D02*
X142500000Y-42200000D01*
X146000000Y-38200000D02*
X145500000Y-37700000D01*
X146000000Y-41700000D02*
X145500000Y-42200000D01*
X142000000Y-40700000D02*
G75*
G03*
X141500000Y-40200000I-500001J-1D01*
G01*
X141500000Y-36200000D02*
G75*
G03*
X143000000Y-37700000I1500001J1D01*
G01*
%TO.C,MX36*%
X137000000Y-86500000D02*
X137000000Y-87000000D01*
X137000000Y-90600000D02*
X137000000Y-91200000D01*
X137000000Y-91200000D02*
X141500000Y-91200000D01*
X141500000Y-86500000D02*
X137000000Y-86500000D01*
X141500000Y-87200000D02*
X141500000Y-86500000D01*
X142000000Y-91700000D02*
X142000000Y-92700000D01*
X142500000Y-93200000D02*
X142000000Y-92700000D01*
X145500000Y-88700000D02*
X143000000Y-88700000D01*
X145500000Y-93200000D02*
X142500000Y-93200000D01*
X146000000Y-89200000D02*
X145500000Y-88700000D01*
X146000000Y-92700000D02*
X145500000Y-93200000D01*
X142000000Y-91700000D02*
G75*
G03*
X141500000Y-91200000I-500001J-1D01*
G01*
X141500000Y-87200000D02*
G75*
G03*
X143000000Y-88700000I1500001J1D01*
G01*
%TO.C,MX17*%
X83000000Y-86500000D02*
X83000000Y-87000000D01*
X83000000Y-90600000D02*
X83000000Y-91200000D01*
X83000000Y-91200000D02*
X87500000Y-91200000D01*
X87500000Y-86500000D02*
X83000000Y-86500000D01*
X87500000Y-87200000D02*
X87500000Y-86500000D01*
X88000000Y-91700000D02*
X88000000Y-92700000D01*
X88500000Y-93200000D02*
X88000000Y-92700000D01*
X91500000Y-88700000D02*
X89000000Y-88700000D01*
X91500000Y-93200000D02*
X88500000Y-93200000D01*
X92000000Y-89200000D02*
X91500000Y-88700000D01*
X92000000Y-92700000D02*
X91500000Y-93200000D01*
X88000000Y-91700000D02*
G75*
G03*
X87500000Y-91200000I-500001J-1D01*
G01*
X87500000Y-87200000D02*
G75*
G03*
X89000000Y-88700000I1500001J1D01*
G01*
%TO.C,MX18*%
X101000000Y-86500000D02*
X101000000Y-87000000D01*
X101000000Y-90600000D02*
X101000000Y-91200000D01*
X101000000Y-91200000D02*
X105500000Y-91200000D01*
X105500000Y-86500000D02*
X101000000Y-86500000D01*
X105500000Y-87200000D02*
X105500000Y-86500000D01*
X106000000Y-91700000D02*
X106000000Y-92700000D01*
X106500000Y-93200000D02*
X106000000Y-92700000D01*
X109500000Y-88700000D02*
X107000000Y-88700000D01*
X109500000Y-93200000D02*
X106500000Y-93200000D01*
X110000000Y-89200000D02*
X109500000Y-88700000D01*
X110000000Y-92700000D02*
X109500000Y-93200000D01*
X106000000Y-91700000D02*
G75*
G03*
X105500000Y-91200000I-500001J-1D01*
G01*
X105500000Y-87200000D02*
G75*
G03*
X107000000Y-88700000I1500001J1D01*
G01*
%TO.C,MX4*%
X83000000Y-35500000D02*
X83000000Y-36000000D01*
X83000000Y-39600000D02*
X83000000Y-40200000D01*
X83000000Y-40200000D02*
X87500000Y-40200000D01*
X87500000Y-35500000D02*
X83000000Y-35500000D01*
X87500000Y-36200000D02*
X87500000Y-35500000D01*
X88000000Y-40700000D02*
X88000000Y-41700000D01*
X88500000Y-42200000D02*
X88000000Y-41700000D01*
X91500000Y-37700000D02*
X89000000Y-37700000D01*
X91500000Y-42200000D02*
X88500000Y-42200000D01*
X92000000Y-38200000D02*
X91500000Y-37700000D01*
X92000000Y-41700000D02*
X91500000Y-42200000D01*
X88000000Y-40700000D02*
G75*
G03*
X87500000Y-40200000I-500001J-1D01*
G01*
X87500000Y-36200000D02*
G75*
G03*
X89000000Y-37700000I1500001J1D01*
G01*
%TO.C,MX24*%
X119000000Y-35500000D02*
X119000000Y-36000000D01*
X119000000Y-39600000D02*
X119000000Y-40200000D01*
X119000000Y-40200000D02*
X123500000Y-40200000D01*
X123500000Y-35500000D02*
X119000000Y-35500000D01*
X123500000Y-36200000D02*
X123500000Y-35500000D01*
X124000000Y-40700000D02*
X124000000Y-41700000D01*
X124500000Y-42200000D02*
X124000000Y-41700000D01*
X127500000Y-37700000D02*
X125000000Y-37700000D01*
X127500000Y-42200000D02*
X124500000Y-42200000D01*
X128000000Y-38200000D02*
X127500000Y-37700000D01*
X128000000Y-41700000D02*
X127500000Y-42200000D01*
X124000000Y-40700000D02*
G75*
G03*
X123500000Y-40200000I-500001J-1D01*
G01*
X123500000Y-36200000D02*
G75*
G03*
X125000000Y-37700000I1500001J1D01*
G01*
%TO.C,MX22*%
X155000000Y-35500000D02*
X155000000Y-36000000D01*
X155000000Y-39600000D02*
X155000000Y-40200000D01*
X155000000Y-40200000D02*
X159500000Y-40200000D01*
X159500000Y-35500000D02*
X155000000Y-35500000D01*
X159500000Y-36200000D02*
X159500000Y-35500000D01*
X160000000Y-40700000D02*
X160000000Y-41700000D01*
X160500000Y-42200000D02*
X160000000Y-41700000D01*
X163500000Y-37700000D02*
X161000000Y-37700000D01*
X163500000Y-42200000D02*
X160500000Y-42200000D01*
X164000000Y-38200000D02*
X163500000Y-37700000D01*
X164000000Y-41700000D02*
X163500000Y-42200000D01*
X160000000Y-40700000D02*
G75*
G03*
X159500000Y-40200000I-500001J-1D01*
G01*
X159500000Y-36200000D02*
G75*
G03*
X161000000Y-37700000I1500001J1D01*
G01*
%TO.C,MX26*%
X173000000Y-61000000D02*
X173000000Y-61500000D01*
X173000000Y-65100000D02*
X173000000Y-65700000D01*
X173000000Y-65700000D02*
X177500000Y-65700000D01*
X177500000Y-61000000D02*
X173000000Y-61000000D01*
X177500000Y-61700000D02*
X177500000Y-61000000D01*
X178000000Y-66200000D02*
X178000000Y-67200000D01*
X178500000Y-67700000D02*
X178000000Y-67200000D01*
X181500000Y-63200000D02*
X179000000Y-63200000D01*
X181500000Y-67700000D02*
X178500000Y-67700000D01*
X182000000Y-63700000D02*
X181500000Y-63200000D01*
X182000000Y-67200000D02*
X181500000Y-67700000D01*
X178000000Y-66200000D02*
G75*
G03*
X177500000Y-65700000I-500001J-1D01*
G01*
X177500000Y-61700000D02*
G75*
G03*
X179000000Y-63200000I1500001J1D01*
G01*
D12*
%TO.C,D36*%
X141860000Y-94500000D02*
X137850000Y-94500000D01*
X141860000Y-92500000D02*
X141860000Y-94500000D01*
X141860000Y-92500000D02*
X137850000Y-92500000D01*
%TO.C,D8*%
X69860000Y-60500000D02*
X65850000Y-60500000D01*
X69860000Y-58500000D02*
X69860000Y-60500000D01*
X69860000Y-58500000D02*
X65850000Y-58500000D01*
%TO.C,D25*%
X195860000Y-77500000D02*
X191850000Y-77500000D01*
X195860000Y-75500000D02*
X195860000Y-77500000D01*
X195860000Y-75500000D02*
X191850000Y-75500000D01*
%TO.C,J2*%
X169440000Y-31960000D02*
X169440000Y-25840000D01*
X175660000Y-31960000D02*
X175660000Y-31040000D01*
X177260000Y-31960000D02*
X169440000Y-31960000D01*
X171700000Y-31200000D02*
X171700000Y-30200000D01*
X173300000Y-31200000D02*
X171700000Y-31200000D01*
X175660000Y-31040000D02*
X177260000Y-31040000D01*
X177260000Y-31040000D02*
X177260000Y-31960000D01*
X175660000Y-30760000D02*
X175660000Y-31040000D01*
X175660000Y-30760000D02*
X176875000Y-30760000D01*
X171700000Y-30700000D02*
X169440000Y-30700000D01*
X171700000Y-30200000D02*
X169440000Y-30200000D01*
X171700000Y-30200000D02*
X173300000Y-30200000D01*
X173300000Y-30200000D02*
X173300000Y-31200000D01*
X169440000Y-29400000D02*
X173800000Y-29400000D01*
X173800000Y-29400000D02*
X173800000Y-28400000D01*
X173800000Y-28400000D02*
X169440000Y-28400000D01*
X171700000Y-27600000D02*
X173300000Y-27600000D01*
X173300000Y-27600000D02*
X173300000Y-26600000D01*
X175660000Y-26760000D02*
X175660000Y-27040000D01*
X177260000Y-26760000D02*
X175660000Y-26760000D01*
X171700000Y-26600000D02*
X171700000Y-27600000D01*
X173300000Y-26600000D02*
X171700000Y-26600000D01*
X169440000Y-25840000D02*
X177260000Y-25840000D01*
X175660000Y-25840000D02*
X175660000Y-26760000D01*
X177260000Y-25840000D02*
X177260000Y-26760000D01*
%TO.C,D27*%
X159860000Y-60500000D02*
X155850000Y-60500000D01*
X159860000Y-58500000D02*
X159860000Y-60500000D01*
X159860000Y-58500000D02*
X155850000Y-58500000D01*
%TO.C,D12*%
X46250000Y-89485000D02*
X46250000Y-85475000D01*
X48250000Y-89485000D02*
X46250000Y-89485000D01*
X48250000Y-89485000D02*
X48250000Y-85475000D01*
%TO.C,D1*%
X33860000Y-60500000D02*
X29850000Y-60500000D01*
X33860000Y-58500000D02*
X33860000Y-60500000D01*
X33860000Y-58500000D02*
X29850000Y-58500000D01*
%TO.C,C6*%
X177840000Y-30115000D02*
X181750000Y-30115000D01*
X177840000Y-31985000D02*
X177840000Y-30115000D01*
X181750000Y-31985000D02*
X177840000Y-31985000D01*
%TO.C,D6*%
X33860000Y-77500000D02*
X29850000Y-77500000D01*
X33860000Y-75500000D02*
X33860000Y-77500000D01*
X33860000Y-75500000D02*
X29850000Y-75500000D01*
%TO.C,D9*%
X87860000Y-60500000D02*
X83850000Y-60500000D01*
X87860000Y-58500000D02*
X87860000Y-60500000D01*
X87860000Y-58500000D02*
X83850000Y-58500000D01*
%TO.C,D24*%
X123860000Y-43500000D02*
X119850000Y-43500000D01*
X123860000Y-41500000D02*
X123860000Y-43500000D01*
X123860000Y-41500000D02*
X119850000Y-41500000D01*
%TO.C,D38*%
X172250000Y-89485000D02*
X172250000Y-85475000D01*
X174250000Y-89485000D02*
X172250000Y-89485000D01*
X174250000Y-89485000D02*
X174250000Y-85475000D01*
%TO.C,D35*%
X159860000Y-94500000D02*
X155850000Y-94500000D01*
X159860000Y-92500000D02*
X159860000Y-94500000D01*
X159860000Y-92500000D02*
X155850000Y-92500000D01*
%TO.C,D20*%
X195860000Y-60500000D02*
X191850000Y-60500000D01*
X195860000Y-58500000D02*
X195860000Y-60500000D01*
X195860000Y-58500000D02*
X191850000Y-58500000D01*
%TO.C,C5*%
X179838748Y-28215000D02*
X180361252Y-28215000D01*
X179838748Y-29685000D02*
X180361252Y-29685000D01*
D13*
%TO.C,U1*%
X48665000Y-28363000D02*
X49535000Y-28363000D01*
X48665000Y-33613000D02*
X49535000Y-33613000D01*
X51665000Y-28363000D02*
X50795000Y-28363000D01*
X51665000Y-33613000D02*
X50795000Y-33613000D01*
D14*
X48055000Y-32988000D02*
G75*
G03*
X48055000Y-32988000I-100000J0D01*
G01*
D12*
%TO.C,D28*%
X141860000Y-60500000D02*
X137850000Y-60500000D01*
X141860000Y-58500000D02*
X141860000Y-60500000D01*
X141860000Y-58500000D02*
X137850000Y-58500000D01*
%TO.C,D19*%
X59750000Y-89485000D02*
X59750000Y-85475000D01*
X61750000Y-89485000D02*
X59750000Y-89485000D01*
X61750000Y-89485000D02*
X61750000Y-85475000D01*
%TO.C,R3*%
X206272936Y-46365000D02*
X206727064Y-46365000D01*
X206272936Y-47835000D02*
X206727064Y-47835000D01*
%TO.C,D13*%
X69860000Y-77500000D02*
X65850000Y-77500000D01*
X69860000Y-75500000D02*
X69860000Y-77500000D01*
X69860000Y-75500000D02*
X65850000Y-75500000D01*
%TO.C,D23*%
X141860000Y-43500000D02*
X137850000Y-43500000D01*
X141860000Y-41500000D02*
X141860000Y-43500000D01*
X141860000Y-41500000D02*
X137850000Y-41500000D01*
%TO.C,C2*%
X54617252Y-29564000D02*
X54094748Y-29564000D01*
X54617252Y-28094000D02*
X54094748Y-28094000D01*
%TO.C,D3*%
X69860000Y-43500000D02*
X65850000Y-43500000D01*
X69860000Y-41500000D02*
X69860000Y-43500000D01*
X69860000Y-41500000D02*
X65850000Y-41500000D01*
D13*
%TO.C,U2*%
X44900000Y-26795000D02*
X44900000Y-43795000D01*
X42900000Y-45795000D02*
X29100000Y-45795000D01*
X40500000Y-30724270D02*
X40500000Y-23370970D01*
X40500000Y-23370970D02*
X31500000Y-23370970D01*
X31500000Y-30724270D02*
X40500000Y-30724270D01*
X31500000Y-23370970D02*
X31500000Y-30724270D01*
X29100000Y-24795910D02*
X42900000Y-24795910D01*
X27100000Y-43795000D02*
X27100000Y-26795000D01*
D12*
X42900000Y-45794999D02*
G75*
G03*
X44899999Y-43795000I-44857J2044856D01*
G01*
X44899999Y-26795000D02*
G75*
G03*
X42900000Y-24795001I-2044611J-44612D01*
G01*
X27100000Y-43795000D02*
G75*
G03*
X29100000Y-45795000I2000000J0D01*
G01*
X29100000Y-24795000D02*
G75*
G03*
X27100000Y-26795000I44600J-2044600D01*
G01*
D15*
X47127000Y-26495000D02*
G75*
G03*
X47127000Y-26495000I-127000J0D01*
G01*
D16*
X44884667Y-26684527D02*
X44887715Y-26733295D01*
X44880603Y-26635506D01*
X44884667Y-26684527D01*
X27157752Y-44205955D02*
X27147847Y-44157950D01*
X27138956Y-44109690D01*
X27131336Y-44061175D01*
X27124732Y-44012407D01*
X27119399Y-43963639D01*
X27115335Y-43914618D01*
X27112287Y-43865850D01*
X27110508Y-43816574D01*
X27157752Y-44205955D01*
D12*
%TO.C,D17*%
X87860000Y-94500000D02*
X83850000Y-94500000D01*
X87860000Y-92500000D02*
X87860000Y-94500000D01*
X87860000Y-92500000D02*
X83850000Y-92500000D01*
%TO.C,C3*%
X56666000Y-31796000D02*
X52756000Y-31796000D01*
X56666000Y-29926000D02*
X56666000Y-31796000D01*
X52756000Y-29926000D02*
X56666000Y-29926000D01*
%TO.C,D15*%
X105860000Y-77500000D02*
X101850000Y-77500000D01*
X105860000Y-75500000D02*
X105860000Y-77500000D01*
X105860000Y-75500000D02*
X101850000Y-75500000D01*
%TO.C,R2*%
X48233064Y-38581000D02*
X47778936Y-38581000D01*
X48233064Y-37111000D02*
X47778936Y-37111000D01*
%TO.C,D34*%
X123860000Y-77500000D02*
X119850000Y-77500000D01*
X123860000Y-75500000D02*
X123860000Y-77500000D01*
X123860000Y-75500000D02*
X119850000Y-75500000D01*
D13*
%TO.C,U4*%
X206900000Y-26795000D02*
X206900000Y-43795000D01*
X204900000Y-45795000D02*
X191100000Y-45795000D01*
X202500000Y-30724270D02*
X202500000Y-23370970D01*
X202500000Y-23370970D02*
X193500000Y-23370970D01*
X193500000Y-30724270D02*
X202500000Y-30724270D01*
X193500000Y-23370970D02*
X193500000Y-30724270D01*
X191100000Y-24795910D02*
X204900000Y-24795910D01*
X189100000Y-43795000D02*
X189100000Y-26795000D01*
D12*
X204900000Y-45794999D02*
G75*
G03*
X206899999Y-43795000I-44857J2044856D01*
G01*
X206899999Y-26795000D02*
G75*
G03*
X204900000Y-24795001I-2044611J-44612D01*
G01*
X189100000Y-43795000D02*
G75*
G03*
X191100000Y-45795000I2000000J0D01*
G01*
X191100000Y-24795001D02*
G75*
G03*
X189100001Y-26795000I44610J-2044609D01*
G01*
D15*
X209127000Y-26495000D02*
G75*
G03*
X209127000Y-26495000I-127000J0D01*
G01*
D16*
X206884667Y-26684527D02*
X206887715Y-26733295D01*
X206880603Y-26635506D01*
X206884667Y-26684527D01*
X189157752Y-44205955D02*
X189147847Y-44157950D01*
X189138956Y-44109690D01*
X189131336Y-44061175D01*
X189124732Y-44012407D01*
X189119399Y-43963639D01*
X189115335Y-43914618D01*
X189112287Y-43865850D01*
X189110508Y-43816574D01*
X189157752Y-44205955D01*
D12*
%TO.C,D32*%
X159860000Y-77500000D02*
X155850000Y-77500000D01*
X159860000Y-75500000D02*
X159860000Y-77500000D01*
X159860000Y-75500000D02*
X155850000Y-75500000D01*
%TO.C,D18*%
X105860000Y-94500000D02*
X101850000Y-94500000D01*
X105860000Y-92500000D02*
X105860000Y-94500000D01*
X105860000Y-92500000D02*
X101850000Y-92500000D01*
%TO.C,D4*%
X87860000Y-43500000D02*
X83850000Y-43500000D01*
X87860000Y-41500000D02*
X87860000Y-43500000D01*
X87860000Y-41500000D02*
X83850000Y-41500000D01*
%TO.C,D21*%
X177860000Y-52000000D02*
X173850000Y-52000000D01*
X177860000Y-50000000D02*
X177860000Y-52000000D01*
X177860000Y-50000000D02*
X173850000Y-50000000D01*
%TO.C,D29*%
X123860000Y-60500000D02*
X119850000Y-60500000D01*
X123860000Y-58500000D02*
X123860000Y-60500000D01*
X123860000Y-58500000D02*
X119850000Y-58500000D01*
%TO.C,D16*%
X69860000Y-94500000D02*
X65850000Y-94500000D01*
X69860000Y-92500000D02*
X69860000Y-94500000D01*
X69860000Y-92500000D02*
X65850000Y-92500000D01*
%TO.C,D33*%
X141860000Y-77500000D02*
X137850000Y-77500000D01*
X141860000Y-75500000D02*
X141860000Y-77500000D01*
X141860000Y-75500000D02*
X137850000Y-75500000D01*
D13*
%TO.C,U3*%
X185800000Y-33613000D02*
X184930000Y-33613000D01*
X185800000Y-28363000D02*
X184930000Y-28363000D01*
X182800000Y-33613000D02*
X183670000Y-33613000D01*
X182800000Y-28363000D02*
X183670000Y-28363000D01*
D14*
X186610000Y-28988000D02*
G75*
G03*
X186610000Y-28988000I-100000J0D01*
G01*
D12*
%TO.C,D30*%
X195860000Y-94500000D02*
X191850000Y-94500000D01*
X195860000Y-92500000D02*
X195860000Y-94500000D01*
X195860000Y-92500000D02*
X191850000Y-92500000D01*
%TO.C,D7*%
X51860000Y-69000000D02*
X47850000Y-69000000D01*
X51860000Y-67000000D02*
X51860000Y-69000000D01*
X51860000Y-67000000D02*
X47850000Y-67000000D01*
%TO.C,R1*%
X48233064Y-41121000D02*
X47778936Y-41121000D01*
X48233064Y-39651000D02*
X47778936Y-39651000D01*
%TO.C,D37*%
X123860000Y-94500000D02*
X119850000Y-94500000D01*
X123860000Y-92500000D02*
X123860000Y-94500000D01*
X123860000Y-92500000D02*
X119850000Y-92500000D01*
%TO.C,R4*%
X206272936Y-48265000D02*
X206727064Y-48265000D01*
X206272936Y-49735000D02*
X206727064Y-49735000D01*
%TO.C,D11*%
X33860000Y-94500000D02*
X29850000Y-94500000D01*
X33860000Y-92500000D02*
X33860000Y-94500000D01*
X33860000Y-92500000D02*
X29850000Y-92500000D01*
%TO.C,C4*%
X179838748Y-32365000D02*
X180361252Y-32365000D01*
X179838748Y-33835000D02*
X180361252Y-33835000D01*
%TO.C,D2*%
X51860000Y-52000000D02*
X47850000Y-52000000D01*
X51860000Y-50000000D02*
X51860000Y-52000000D01*
X51860000Y-50000000D02*
X47850000Y-50000000D01*
%TO.C,D26*%
X177860000Y-69000000D02*
X173850000Y-69000000D01*
X177860000Y-67000000D02*
X177860000Y-69000000D01*
X177860000Y-67000000D02*
X173850000Y-67000000D01*
%TO.C,J1*%
X65310000Y-25690000D02*
X65310000Y-31810000D01*
X59090000Y-25690000D02*
X59090000Y-26610000D01*
X57490000Y-25690000D02*
X65310000Y-25690000D01*
X63050000Y-26450000D02*
X63050000Y-27450000D01*
X61450000Y-26450000D02*
X63050000Y-26450000D01*
X59090000Y-26610000D02*
X57490000Y-26610000D01*
X57490000Y-26610000D02*
X57490000Y-25690000D01*
X59090000Y-26890000D02*
X59090000Y-26610000D01*
X59090000Y-26890000D02*
X57875000Y-26890000D01*
X63050000Y-26950000D02*
X65310000Y-26950000D01*
X63050000Y-27450000D02*
X65310000Y-27450000D01*
X63050000Y-27450000D02*
X61450000Y-27450000D01*
X61450000Y-27450000D02*
X61450000Y-26450000D01*
X65310000Y-28250000D02*
X60950000Y-28250000D01*
X60950000Y-28250000D02*
X60950000Y-29250000D01*
X60950000Y-29250000D02*
X65310000Y-29250000D01*
X63050000Y-30050000D02*
X61450000Y-30050000D01*
X61450000Y-30050000D02*
X61450000Y-31050000D01*
X59090000Y-30890000D02*
X59090000Y-30610000D01*
X57490000Y-30890000D02*
X59090000Y-30890000D01*
X63050000Y-31050000D02*
X63050000Y-30050000D01*
X61450000Y-31050000D02*
X63050000Y-31050000D01*
X65310000Y-31810000D02*
X57490000Y-31810000D01*
X59090000Y-31810000D02*
X59090000Y-30890000D01*
X57490000Y-31810000D02*
X57490000Y-30890000D01*
%TO.C,D22*%
X159860000Y-43500000D02*
X155850000Y-43500000D01*
X159860000Y-41500000D02*
X159860000Y-43500000D01*
X159860000Y-41500000D02*
X155850000Y-41500000D01*
%TO.C,D5*%
X105860000Y-43500000D02*
X101850000Y-43500000D01*
X105860000Y-41500000D02*
X105860000Y-43500000D01*
X105860000Y-41500000D02*
X101850000Y-41500000D01*
%TO.C,D10*%
X105860000Y-60500000D02*
X101850000Y-60500000D01*
X105860000Y-58500000D02*
X105860000Y-60500000D01*
X105860000Y-58500000D02*
X101850000Y-58500000D01*
%TO.C,D14*%
X87860000Y-77500000D02*
X83850000Y-77500000D01*
X87860000Y-75500000D02*
X87860000Y-77500000D01*
X87860000Y-75500000D02*
X83850000Y-75500000D01*
%TO.C,D31*%
X185750000Y-89485000D02*
X185750000Y-85475000D01*
X187750000Y-89485000D02*
X185750000Y-89485000D01*
X187750000Y-89485000D02*
X187750000Y-85475000D01*
%TO.C,C1*%
X54617252Y-33628000D02*
X54094748Y-33628000D01*
X54617252Y-32158000D02*
X54094748Y-32158000D01*
%TD*%
M02*
