M48
; DRILL file {KiCad 7.0.2-0} date 2024 August 06, Tuesday 11:42:47
; FORMAT={-:-/ absolute / inch / decimal}
; #@! TF.CreationDate,2024-08-06T11:42:47-04:00
; #@! TF.GenerationSoftware,Kicad,Pcbnew,7.0.2-0
; #@! TF.FileFunction,NonPlated,1,2,NPTH
FMAT,2
INCH
; #@! TA.AperFunction,NonPlated,NPTH,ComponentDrill
T1C0.0390
; #@! TA.AperFunction,NonPlated,NPTH,ComponentDrill
T2C0.0670
; #@! TA.AperFunction,NonPlated,NPTH,ComponentDrill
T3C0.1181
; #@! TA.AperFunction,NonPlated,NPTH,ComponentDrill
T4C0.1350
%
G90
G05
T1
X1.6228Y-1.8425
X1.6228Y-2.5118
X1.6228Y-3.1811
X2.3315Y-1.5079
X2.3315Y-2.1772
X2.3315Y-2.8465
X3.0402Y-1.1732
X3.0402Y-1.8425
X3.0402Y-2.5118
X3.0402Y-3.1811
X3.7488Y-1.1732
X3.7488Y-1.8425
X3.7488Y-2.5118
X3.7488Y-3.1811
X4.4575Y-1.1732
X4.4575Y-1.8425
X4.4575Y-2.5118
X4.4575Y-3.1811
X5.1661Y-1.1732
X5.1661Y-1.8425
X5.1661Y-2.5118
X5.1661Y-3.1811
X5.8748Y-1.1732
X5.8748Y-1.8425
X5.8748Y-2.5118
X5.8748Y-3.1811
X6.5835Y-1.1732
X6.5835Y-1.8425
X6.5835Y-2.5118
X6.5835Y-3.1811
X7.2921Y-1.5079
X7.2921Y-2.1772
X7.2921Y-2.8465
X8.0008Y-1.8425
X8.0008Y-2.5118
X8.0008Y-3.1811
T2
X1.2008Y-2.0079
X1.2008Y-2.6772
X1.2008Y-3.3465
X1.6339Y-2.0079
X1.6339Y-2.6772
X1.6339Y-3.3465
X1.9094Y-1.6732
X1.9094Y-2.3425
X1.9094Y-3.0118
X2.3425Y-1.6732
X2.3425Y-2.3425
X2.3425Y-3.0118
X2.6181Y-1.3386
X2.6181Y-2.0079
X2.6181Y-2.6772
X2.6181Y-3.3465
X3.0512Y-1.3386
X3.0512Y-2.0079
X3.0512Y-2.6772
X3.0512Y-3.3465
X3.3268Y-1.3386
X3.3268Y-2.0079
X3.3268Y-2.6772
X3.3268Y-3.3465
X3.7598Y-1.3386
X3.7598Y-2.0079
X3.7598Y-2.6772
X3.7598Y-3.3465
X4.0354Y-1.3386
X4.0354Y-2.0079
X4.0354Y-2.6772
X4.0354Y-3.3465
X4.4685Y-1.3386
X4.4685Y-2.0079
X4.4685Y-2.6772
X4.4685Y-3.3465
X4.7441Y-1.3386
X4.7441Y-2.0079
X4.7441Y-2.6772
X4.7441Y-3.3465
X5.1772Y-1.3386
X5.1772Y-2.0079
X5.1772Y-2.6772
X5.1772Y-3.3465
X5.4528Y-1.3386
X5.4528Y-2.0079
X5.4528Y-2.6772
X5.4528Y-3.3465
X5.8858Y-1.3386
X5.8858Y-2.0079
X5.8858Y-2.6772
X5.8858Y-3.3465
X6.1614Y-1.3386
X6.1614Y-2.0079
X6.1614Y-2.6772
X6.1614Y-3.3465
X6.5945Y-1.3386
X6.5945Y-2.0079
X6.5945Y-2.6772
X6.5945Y-3.3465
X6.8701Y-1.6732
X6.8701Y-2.3425
X6.8701Y-3.0118
X7.3031Y-1.6732
X7.3031Y-2.3425
X7.3031Y-3.0118
X7.5787Y-2.0079
X7.5787Y-2.6772
X7.5787Y-3.3465
X8.0118Y-2.0079
X8.0118Y-2.6772
X8.0118Y-3.3465
T3
X1.2205Y-2.1555
X1.2205Y-2.8248
X1.2205Y-3.4941
X1.4173Y-2.2421
X1.4173Y-2.9114
X1.4173Y-3.5807
X1.9291Y-1.8209
X1.9291Y-2.4902
X1.9291Y-3.1594
X2.126Y-1.9075
X2.126Y-2.5768
X2.126Y-3.2461
X2.6378Y-1.4862
X2.6378Y-2.1555
X2.6378Y-2.8248
X2.6378Y-3.4941
X2.8346Y-1.5728
X2.8346Y-2.2421
X2.8346Y-2.9114
X2.8346Y-3.5807
X3.3465Y-1.4862
X3.3465Y-2.1555
X3.3465Y-2.8248
X3.3465Y-3.4941
X3.5433Y-1.5728
X3.5433Y-2.2421
X3.5433Y-2.9114
X3.5433Y-3.5807
X4.0551Y-1.4862
X4.0551Y-2.1555
X4.0551Y-2.8248
X4.0551Y-3.4941
X4.252Y-1.5728
X4.252Y-2.2421
X4.252Y-2.9114
X4.252Y-3.5807
X4.7638Y-1.4862
X4.7638Y-2.1555
X4.7638Y-2.8248
X4.7638Y-3.4941
X4.9606Y-1.5728
X4.9606Y-2.2421
X4.9606Y-2.9114
X4.9606Y-3.5807
X5.4724Y-1.4862
X5.4724Y-2.1555
X5.4724Y-2.8248
X5.4724Y-3.4941
X5.6693Y-1.5728
X5.6693Y-2.2421
X5.6693Y-2.9114
X5.6693Y-3.5807
X6.1811Y-1.4862
X6.1811Y-2.1555
X6.1811Y-2.8248
X6.1811Y-3.4941
X6.378Y-1.5728
X6.378Y-2.2421
X6.378Y-2.9114
X6.378Y-3.5807
X6.8898Y-1.8209
X6.8898Y-2.4902
X6.8898Y-3.1594
X7.0866Y-1.9075
X7.0866Y-2.5768
X7.0866Y-3.2461
X7.5984Y-2.1555
X7.5984Y-2.8248
X7.5984Y-3.4941
X7.7953Y-2.2421
X7.7953Y-2.9114
X7.7953Y-3.5807
T4
X1.4173Y-2.0079
X1.4173Y-2.6772
X1.4173Y-3.3465
X2.126Y-1.6732
X2.126Y-2.3425
X2.126Y-3.0118
X2.8346Y-1.3386
X2.8346Y-2.0079
X2.8346Y-2.6772
X2.8346Y-3.3465
X3.5433Y-1.3386
X3.5433Y-2.0079
X3.5433Y-2.6772
X3.5433Y-3.3465
X4.252Y-1.3386
X4.252Y-2.0079
X4.252Y-2.6772
X4.252Y-3.3465
X4.9606Y-1.3386
X4.9606Y-2.0079
X4.9606Y-2.6772
X4.9606Y-3.3465
X5.6693Y-1.3386
X5.6693Y-2.0079
X5.6693Y-2.6772
X5.6693Y-3.3465
X6.378Y-1.3386
X6.378Y-2.0079
X6.378Y-2.6772
X6.378Y-3.3465
X7.0866Y-1.6732
X7.0866Y-2.3425
X7.0866Y-3.0118
X7.7953Y-2.0079
X7.7953Y-2.6772
X7.7953Y-3.3465
T0
M30
