M48
; DRILL file {KiCad 7.0.2-0} date 2024 August 06, Tuesday 11:42:47
; FORMAT={-:-/ absolute / inch / decimal}
; #@! TF.CreationDate,2024-08-06T11:42:47-04:00
; #@! TF.GenerationSoftware,Kicad,Pcbnew,7.0.2-0
; #@! TF.FileFunction,Plated,1,2,PTH
FMAT,2
INCH
; #@! TA.AperFunction,Plated,PTH,ViaDrill
T1C0.0157
; #@! TA.AperFunction,Plated,PTH,ComponentDrill
T2C0.0295
; #@! TA.AperFunction,Plated,PTH,ComponentDrill
T3C0.0394
; #@! TA.AperFunction,Plated,PTH,ComponentDrill
T4C0.0433
%
G90
G05
T1
X1.0827Y-1.1896
X1.0827Y-1.2896
X1.0827Y-1.3896
X1.0827Y-1.4896
X1.0827Y-1.5896
X1.0827Y-1.6896
X1.3051Y-2.3425
X1.3051Y-3.0118
X1.3051Y-3.6811
X1.8602Y-3.4951
X1.89Y-1.361
X1.89Y-1.4181
X1.9294Y-1.4181
X1.9757Y-1.3667
X2.0138Y-2.0079
X2.0138Y-2.6772
X2.1026Y-1.135
X2.1931Y-1.215
X2.3917Y-3.4951
X2.7224Y-1.6732
X2.7224Y-2.3425
X2.7224Y-3.0118
X2.7224Y-3.6811
X3.4311Y-1.6732
X3.4311Y-2.3425
X3.4311Y-3.0118
X3.4311Y-3.6811
X4.1398Y-1.6732
X4.1398Y-2.3425
X4.1398Y-3.0118
X4.1398Y-3.6811
X4.8484Y-1.6732
X4.8484Y-2.3425
X4.8484Y-3.0118
X4.8484Y-3.6811
X5.5571Y-1.6732
X5.5571Y-2.3425
X5.5571Y-3.0118
X5.5571Y-3.6811
X6.2657Y-1.6732
X6.2657Y-2.3425
X6.2657Y-3.0118
X6.2657Y-3.6811
X6.8209Y-3.3652
X6.8209Y-3.4951
X6.9744Y-2.0079
X6.9744Y-2.6772
X7.187Y-3.1713
X7.2106Y-1.1063
X7.2332Y-3.6663
X7.2441Y-3.1713
X7.2559Y-1.1063
X7.3366Y-1.1732
X7.3524Y-3.4951
X7.4606Y-1.1896
X7.4606Y-1.3896
X7.4606Y-1.4896
X7.4606Y-1.5896
X7.4606Y-1.6896
X7.6831Y-2.3425
X7.6831Y-3.0118
X7.6831Y-3.6811
X7.7441Y-1.3071
X7.8524Y-1.3071
T2
X2.3209Y-1.0925
X2.3209Y-1.1713
X6.9213Y-1.0984
X6.9213Y-1.1772
T3
X1.5945Y-1.303
X1.5945Y-1.3778
X7.9724Y-1.303
X7.9724Y-1.3778
T4
X2.0374Y-3.3858
X2.0374Y-3.6417
X2.2146Y-3.3858
X2.2146Y-3.6417
X6.998Y-3.3858
X6.998Y-3.6417
X7.1752Y-3.3858
X7.1752Y-3.6417
T0
M30
