%TF.GenerationSoftware,KiCad,Pcbnew,7.0.2-0*%
%TF.CreationDate,2024-08-06T11:42:49-04:00*%
%TF.ProjectId,PCB,5043422e-6b69-4636-9164-5f7063625858,rev?*%
%TF.SameCoordinates,Original*%
%TF.FileFunction,Profile,NP*%
%FSLAX46Y46*%
G04 Gerber Fmt 4.6, Leading zero omitted, Abs format (unit mm)*
G04 Created by KiCad (PCBNEW 7.0.2-0) date 2024-08-06 11:42:49*
%MOMM*%
%LPD*%
G01*
G04 APERTURE LIST*
%TA.AperFunction,Profile*%
%ADD10C,0.100000*%
%TD*%
G04 APERTURE END LIST*
D10*
X25250000Y-26700000D02*
X25250000Y-23750000D01*
X115700000Y-94450000D02*
X115750000Y-24150000D01*
X209400000Y-23850000D02*
X208450000Y-23850000D01*
X209400000Y-92050000D02*
X209400000Y-94900000D01*
X158550000Y-23850000D02*
X208450000Y-23850000D01*
X115950000Y-89100000D02*
X115950000Y-94450000D01*
X25250000Y-60900000D02*
X25250000Y-26700000D01*
X25250000Y-23750000D02*
X25700000Y-23750000D01*
X30250000Y-94850000D02*
X26050000Y-94850000D01*
X115750000Y-24150000D02*
X116000000Y-24150000D01*
X25250000Y-94450000D02*
X25250000Y-94850000D01*
X190350000Y-94900000D02*
X30250000Y-94850000D01*
X190350000Y-94900000D02*
X208950000Y-94900000D01*
X115950000Y-94450000D02*
X115700000Y-94450000D01*
X209400000Y-40700000D02*
X209400000Y-92050000D01*
X25250000Y-60900000D02*
X25250000Y-94450000D01*
X116000000Y-24150000D02*
X115950000Y-89100000D01*
X209400000Y-94900000D02*
X208950000Y-94900000D01*
X209400000Y-40700000D02*
X209400000Y-23850000D01*
X25250000Y-94850000D02*
X26050000Y-94850000D01*
X158550000Y-23850000D02*
X25700000Y-23750000D01*
M02*
